;TYPE=PLATED
;Layer: PTH_Through_Via
;EasyEDA Pro v3.2.91, 2026-07-09 07:33:28
;Gerber Generator version 0.3
M48
METRIC,LZ,0000.00000
;Hole size 1 = 0.30480 METRIC
T01C0.30480
;Hole size 2 = 0.30500 METRIC
T02C0.30500
%
G05
G90
T01
X32.385Y63.373
X32.385Y62.611
X33.147Y63.373
X32.385Y64.262
X31.623Y64.262
X31.623Y63.373
X31.623Y62.611
X30.861Y62.611
X30.861Y63.373
X30.861Y64.262
X33.147Y64.262
X33.147Y62.611
X33.909Y62.611
X33.909Y63.373
X33.909Y64.262
X32.385Y59.69
X32.385Y58.928
X33.147Y59.69
X32.385Y60.579
X31.623Y60.579
X31.623Y59.69
X31.623Y58.928
X30.861Y58.928
X30.861Y59.69
X30.861Y60.579
X33.147Y60.579
X33.147Y58.928
X33.909Y58.928
X33.909Y59.69
X33.909Y60.579
X36.195Y63.373
X36.195Y62.611
X36.957Y63.373
X36.195Y64.262
X35.433Y64.262
X35.433Y63.373
X35.433Y62.611
X34.671Y62.611
X34.671Y63.373
X34.671Y64.262
X36.957Y64.262
X36.957Y62.611
X37.719Y62.611
X37.719Y63.373
X37.719Y64.262
X36.195Y59.69
X36.195Y58.928
X36.957Y59.69
X36.195Y60.579
X35.433Y60.579
X35.433Y59.69
X35.433Y58.928
X34.671Y58.928
X34.671Y59.69
X34.671Y60.579
X36.957Y60.579
X36.957Y58.928
X37.719Y58.928
X37.719Y59.69
X37.719Y60.579
X7.13102Y75.71553
X7.89302Y75.71553
X7.13102Y76.47753
X6.24202Y75.71553
X6.24202Y74.95353
X7.13102Y74.95353
X7.89302Y74.95353
X7.89302Y74.19153
X7.13102Y74.19153
X6.24202Y74.19153
X6.24202Y76.47753
X7.89302Y76.47753
X7.89302Y77.23953
X7.13102Y77.23953
X6.24202Y77.23953
X6.096Y46.736
X6.858Y46.736
X6.096Y47.498
X5.207Y46.736
X5.207Y45.974
X6.096Y45.974
X6.858Y45.974
X6.858Y45.212
X6.096Y45.212
X5.207Y45.212
X5.207Y47.498
X6.858Y47.498
X6.858Y48.26
X6.096Y48.26
X5.207Y48.26
X28.575Y63.373
X28.575Y62.611
X29.337Y63.373
X28.575Y64.262
X27.813Y64.262
X27.813Y63.373
X27.813Y62.611
X27.051Y62.611
X27.051Y63.373
X27.051Y64.262
X29.337Y64.262
X29.337Y62.611
X30.099Y62.611
X30.099Y63.373
X30.099Y64.262
X28.575Y59.69
X28.575Y58.928
X29.337Y59.69
X28.575Y60.579
X27.813Y60.579
X27.813Y59.69
X27.813Y58.928
X27.051Y58.928
X27.051Y59.69
X27.051Y60.579
X29.337Y60.579
X29.337Y58.928
X30.099Y58.928
X30.099Y59.69
X30.099Y60.579
T02
X64.643Y67.056
X53.213Y69.977
X56.62021Y57.531
X56.515Y33.655
X57.6744Y33.655
X56.515Y32.639
X57.69178Y32.639
X65.53195Y40.132
X57.023Y37.465
X63.119Y36.957
X63.119Y33.147
X63.119Y29.337
X119.38Y51.054
X120.523Y49.276
X121.158Y48.514
X117.602Y48.133
X90.6055Y73.406
X97.663Y73.533
X23.876Y12.954
X23.876Y11.938
X54.864Y9.398
X89.535Y45.39161
X89.535Y47.117
X93.472Y54.61
X91.948Y54.737
X51.63639Y8.636
X55.72013Y14.25687
X99.314Y42.418
X99.314Y40.386
X77.343Y10.922
X74.295Y10.922
X90.297Y48.641
X94.615Y48.514
X90.043Y60.96
X95.504Y60.96
X21.082Y7.874
X58.039Y54.88579
X62.992Y53.213
X90.043Y57.658
X90.043Y56.49366
X90.551Y50.165
X94.361Y50.419
X94.361Y52.324
X49.149Y8.001
X114.173Y23.62776
X117.983Y23.495
X114.935Y44.831
X113.284Y44.831
X17.907Y9.43971
X106.934Y33.274
X104.648Y33.274
X118.11Y77.343
X116.83779Y76.07079
X7.112Y63.627
X9.017Y56.261
X8.763Y54.483
X8.95198Y41.021
X17.78Y35.48532
X47.498Y40.71468
X50.08093Y37.338
X55.118Y37.592
X54.991Y26.67
X62.611Y26.66995
X62.23005Y29.718
X65.024Y30.823
X65.024Y27.93995
X65.024Y26.41595
X68.55605Y33.909
X70.10405Y33.909
X72.771Y48.38713
X66.54813Y52.832
X66.167Y54.356
X66.04Y56.14872
X66.167Y57.785
X67.31864Y57.658
X69.977Y55.372
X30.41498Y38.481
X59.182Y76.58105
X72.771Y76.327
X72.898Y78.52766
X47.879Y15.86687
X47.498Y14.86687
X47.498Y13.716
X46.101Y13.335
X55.118Y15.875
X55.88Y17.25399
X15.621Y13.72387
X15.621Y14.605
X10.541Y11.557
X19.36902Y12.573
X20.447Y15.621
X19.939Y14.732
X89.916Y28.448
X94.615Y22.987
X97.663Y28.702
X94.61495Y39.624
X101.981Y43.688
X83.82Y54.356
X86.487Y53.467
X88.39192Y52.451
X110.363Y40.259
X115.443Y40.386
X116.38857Y44.323
X112.71212Y47.371
X117.475Y55.499
X115.697Y59.817
X106.68Y59.309
X104.267Y61.849
X121.015Y56.245
X124.079Y58.801
X125.69341Y60.198
X127.762Y60.198
X129.032Y58.928
X129.032Y56.76686
X129.032Y53.74242
X129.032Y50.419
X127.889Y49.022
X125.21831Y49.022
X121.666Y47.23292
X124.46Y46.736
X125.51054Y48.18568
X127.96833Y48.04994
X129.032Y46.63035
X129.032Y43.72178
X129.032Y40.79005
X129.032Y38.481
X127.508Y36.957
X125.603Y36.957
X124.333Y37.973
X121.269Y39.005
X128.016Y13.97
X21.336Y16.51
X37.338Y73.533
X38.70835Y73.533
X40.0787Y73.533
X41.44904Y73.533
X42.81939Y73.533
X37.338Y72.16265
X37.338Y70.7923
X37.338Y69.42196
X37.338Y68.05161
X38.70835Y72.16265
X40.0787Y72.16265
X41.44904Y72.16265
X42.81939Y72.16265
X38.70835Y70.7923
X40.0787Y70.7923
X41.44904Y70.7923
X42.81939Y70.7923
X38.70835Y69.42196
X40.0787Y69.42196
X41.44904Y69.42196
X42.81939Y69.42196
X38.70835Y68.05161
X40.0787Y68.05161
X41.44904Y68.05161
X42.81939Y68.05161
X10.53647Y45.339
X11.77059Y45.339
X13.0047Y45.339
X10.53647Y44.10489
X11.77059Y44.10489
X13.0047Y44.10489
X10.53647Y42.87078
X11.77059Y42.87078
X10.53647Y41.63667
X11.77059Y41.63667
X13.0047Y42.87078
X13.0047Y41.63667
X36.61189Y42.63611
X37.846Y42.63611
X39.08011Y42.63611
X36.61189Y41.402
X37.846Y41.402
X39.08011Y41.402
X36.61189Y40.16789
X37.846Y40.16789
X39.08011Y40.16789
X36.61189Y38.93378
X37.846Y38.93378
X39.08011Y38.93378
X84.61789Y58.32889
X84.61789Y59.563
X85.852Y58.32889
X85.852Y59.563
X87.08611Y58.32889
X87.08611Y59.563
X88.32022Y58.32889
X88.32022Y59.563
X53.78928Y44.03311
X53.78928Y42.799
X53.78928Y41.56489
X66.04Y45.30311
X66.04Y44.069
X66.04Y42.83489
X67.056Y45.30311
X67.056Y44.069
X67.056Y42.83489
X61.722Y58.80103
X126.619Y71.374
X7.163Y87.96
X17.323Y87.96
X22.403Y87.96
X27.483Y87.96
X37.643Y87.96
X42.723Y87.96
X47.803Y87.96
X57.963Y87.96
X63.043Y87.96
X68.123Y87.96
X73.203Y87.96
X103.683Y87.96
X118.923Y87.96
X124.003Y87.96
X129.083Y87.96
X7.163Y82.88
X27.483Y82.88
X42.723Y82.88
X47.803Y82.88
X52.883Y82.88
X57.963Y82.88
X63.043Y82.88
X73.203Y82.88
X78.283Y82.88
X88.443Y82.88
X93.523Y82.88
X98.603Y82.88
X103.683Y82.88
X113.843Y82.88
X17.323Y77.8
X22.403Y77.8
X27.483Y77.8
X37.643Y77.8
X42.723Y77.8
X47.803Y77.8
X57.963Y77.8
X63.043Y77.8
X73.203Y77.8
X98.603Y77.8
X103.683Y77.8
X129.083Y77.8
X7.163Y72.72
X12.243Y72.72
X17.323Y72.72
X22.403Y72.72
X27.483Y72.72
X32.563Y72.72
X47.803Y72.72
X52.883Y72.72
X57.963Y72.72
X63.043Y72.72
X68.123Y72.72
X73.203Y72.72
X78.283Y72.72
X83.363Y72.72
X88.443Y72.72
X98.603Y72.72
X103.683Y72.72
X108.763Y72.72
X113.843Y72.72
X124.003Y72.72
X129.083Y72.72
X17.323Y67.64
X22.403Y67.64
X27.483Y67.64
X47.803Y67.64
X68.123Y67.64
X73.203Y67.64
X78.283Y67.64
X83.363Y67.64
X88.443Y67.64
X113.843Y67.64
X124.003Y67.64
X129.083Y67.64
X7.163Y62.56
X12.243Y62.56
X57.963Y62.56
X63.043Y62.56
X68.123Y62.56
X73.203Y62.56
X78.283Y62.56
X83.363Y62.56
X88.443Y62.56
X98.603Y62.56
X103.683Y62.56
X113.843Y62.56
X124.003Y62.56
X129.083Y62.56
X7.163Y57.48
X12.243Y57.48
X52.883Y57.48
X73.203Y57.48
X98.603Y57.48
X113.843Y57.48
X124.003Y57.48
X129.083Y57.48
X7.163Y52.4
X12.243Y52.4
X17.323Y52.4
X22.403Y52.4
X27.483Y52.4
X32.563Y52.4
X37.643Y52.4
X42.723Y52.4
X47.803Y52.4
X68.123Y52.4
X83.363Y52.4
X108.763Y52.4
X113.843Y52.4
X124.003Y52.4
X129.083Y52.4
X12.243Y47.32
X17.323Y47.32
X22.403Y47.32
X27.483Y47.32
X32.563Y47.32
X37.643Y47.32
X42.723Y47.32
X47.803Y47.32
X52.883Y47.32
X57.963Y47.32
X63.043Y47.32
X68.123Y47.32
X73.203Y47.32
X78.283Y47.32
X83.363Y47.32
X88.443Y47.32
X98.603Y47.32
X104.394Y46.609
X108.763Y47.32
X124.003Y47.32
X129.083Y47.32
X7.163Y42.24
X17.323Y42.24
X22.403Y42.24
X27.483Y42.24
X32.563Y42.24
X42.723Y42.24
X47.803Y42.24
X52.883Y42.24
X68.123Y42.24
X78.283Y42.24
X83.363Y42.24
X93.523Y42.24
X124.003Y42.24
X129.083Y42.24
X7.163Y37.16
X12.243Y37.16
X17.323Y37.16
X22.403Y37.16
X27.483Y37.16
X32.563Y37.16
X37.643Y37.16
X42.723Y37.16
X47.803Y37.16
X52.883Y37.16
X73.203Y37.16
X78.283Y37.16
X83.363Y37.16
X88.443Y37.16
X98.603Y37.16
X124.003Y37.16
X129.083Y37.16
X7.163Y32.08
X17.323Y32.08
X27.483Y32.08
X32.563Y32.08
X42.723Y32.08
X52.883Y32.08
X68.123Y32.08
X73.203Y32.08
X83.363Y32.08
X103.683Y32.08
X113.843Y32.08
X7.163Y27.0
X12.243Y27.0
X22.403Y27.0
X27.483Y27.0
X32.563Y27.0
X37.643Y27.0
X42.723Y27.0
X47.803Y27.0
X73.203Y27.0
X78.283Y27.0
X83.363Y27.0
X88.443Y27.0
X98.603Y27.0
X103.683Y27.0
X108.763Y27.0
X113.843Y27.0
X124.003Y27.0
X129.083Y27.0
X27.483Y21.92
X32.563Y21.92
X63.043Y21.92
X68.123Y21.92
X73.203Y21.92
X78.283Y21.92
X83.363Y21.92
X88.443Y21.92
X93.523Y21.92
X98.603Y21.92
X103.683Y21.92
X108.763Y21.92
X113.843Y21.92
X118.923Y21.92
X124.003Y21.92
X129.083Y21.92
X7.163Y16.84
X27.483Y16.84
X42.723Y16.84
X57.963Y16.84
X63.043Y16.84
X68.123Y16.84
X73.203Y16.84
X78.283Y16.84
X83.363Y16.84
X88.443Y16.84
X98.603Y16.84
X103.683Y16.84
X108.763Y16.84
X113.843Y16.84
X118.923Y16.84
X129.083Y16.84
X7.163Y11.76
X52.883Y11.76
X63.043Y11.76
X68.123Y11.76
X73.203Y11.76
X78.283Y11.76
X83.363Y11.76
X88.443Y11.76
X118.923Y11.76
X129.083Y11.76
X3.353Y89.992
X8.433Y89.992
X13.513Y89.992
X18.593Y89.992
X23.673Y89.992
X28.753Y89.992
X64.313Y89.992
X69.393Y89.992
X74.473Y89.992
X79.553Y89.992
X84.633Y89.992
X89.713Y89.992
X94.793Y89.992
X104.953Y89.992
X110.033Y89.992
X115.113Y89.992
X120.193Y89.992
X125.273Y89.992
X130.353Y89.992
X3.353Y84.912
X8.433Y84.912
X18.593Y84.912
X23.673Y84.912
X28.753Y84.912
X38.913Y84.912
X43.993Y84.912
X49.073Y84.912
X59.233Y84.912
X74.473Y84.912
X79.553Y84.912
X84.633Y84.912
X89.713Y84.912
X115.113Y84.912
X120.193Y84.912
X130.353Y84.912
X3.353Y79.832
X8.433Y79.832
X28.753Y79.832
X49.073Y79.832
X54.153Y79.832
X59.233Y79.832
X69.393Y79.832
X74.473Y79.832
X79.553Y79.832
X84.633Y79.832
X89.713Y79.832
X94.793Y79.832
X99.873Y79.832
X115.113Y79.832
X120.193Y79.832
X3.353Y74.752
X13.513Y74.752
X18.593Y74.752
X23.673Y74.752
X28.753Y74.752
X33.833Y74.752
X38.913Y74.752
X43.993Y74.752
X49.073Y74.752
X54.153Y74.752
X59.233Y74.752
X64.313Y74.752
X69.393Y74.752
X74.473Y74.752
X79.553Y74.752
X84.633Y74.752
X89.713Y74.752
X110.033Y74.752
X115.113Y74.752
X120.193Y74.752
X125.273Y74.752
X3.353Y69.672
X13.513Y69.672
X18.593Y69.672
X23.673Y69.672
X28.753Y69.672
X43.993Y69.672
X49.073Y69.672
X59.233Y69.672
X69.393Y69.672
X74.473Y69.672
X79.553Y69.672
X84.633Y69.672
X89.713Y69.672
X99.873Y69.672
X104.953Y69.672
X115.113Y69.672
X120.193Y69.672
X125.273Y69.672
X3.353Y64.592
X64.313Y64.592
X69.393Y64.592
X74.473Y64.592
X79.553Y64.592
X84.633Y64.592
X89.713Y64.592
X99.873Y64.592
X110.033Y64.592
X115.113Y64.592
X3.353Y59.512
X59.233Y59.512
X64.313Y59.512
X69.393Y59.512
X74.473Y59.512
X89.713Y59.512
X99.873Y59.512
X104.953Y59.512
X115.113Y59.512
X125.273Y59.512
X3.353Y54.432
X13.513Y54.432
X18.593Y54.432
X23.673Y54.432
X28.753Y54.432
X38.913Y54.432
X43.993Y54.432
X84.633Y54.432
X110.033Y54.432
X3.353Y49.352
X8.433Y49.352
X13.513Y49.352
X18.593Y49.352
X23.673Y49.352
X28.753Y49.352
X33.833Y49.352
X38.913Y49.352
X43.993Y49.352
X49.073Y49.352
X59.233Y49.352
X64.313Y49.352
X74.473Y49.352
X84.633Y49.352
X110.033Y49.352
X3.353Y44.272
X8.433Y44.272
X18.593Y44.272
X28.753Y44.272
X33.833Y44.272
X43.993Y44.272
X49.073Y44.272
X69.393Y44.272
X74.473Y44.272
X79.553Y44.272
X84.633Y44.272
X89.713Y44.272
X94.793Y44.272
X104.953Y44.272
X3.353Y39.192
X18.593Y39.192
X23.673Y39.192
X28.753Y39.192
X33.833Y39.192
X43.993Y39.192
X49.073Y39.192
X69.393Y39.192
X74.473Y39.192
X79.553Y39.192
X84.633Y39.192
X89.713Y39.192
X104.953Y39.192
X115.113Y39.192
X120.193Y39.192
X125.273Y39.192
X3.353Y34.112
X8.433Y34.112
X13.513Y34.112
X18.593Y34.112
X28.753Y34.112
X33.833Y34.112
X38.913Y34.112
X43.993Y34.112
X54.153Y34.112
X69.393Y34.112
X74.473Y34.112
X94.793Y34.112
X110.033Y34.112
X120.193Y34.112
X125.273Y34.112
X3.353Y29.032
X8.433Y29.032
X13.513Y29.032
X18.593Y29.032
X28.753Y29.032
X33.833Y29.032
X38.913Y29.032
X43.993Y29.032
X54.153Y29.032
X69.393Y29.032
X74.473Y29.032
X79.553Y29.032
X84.633Y29.032
X89.713Y29.032
X99.873Y29.032
X104.953Y29.032
X120.193Y29.032
X125.273Y29.032
X130.353Y29.032
X23.673Y23.952
X28.753Y23.952
X33.833Y23.952
X38.913Y23.952
X43.993Y23.952
X64.313Y23.952
X69.393Y23.952
X74.473Y23.952
X79.553Y23.952
X84.633Y23.952
X89.713Y23.952
X99.873Y23.952
X104.953Y23.952
X110.033Y23.952
X120.193Y23.952
X125.273Y23.952
X130.353Y23.952
X3.353Y18.872
X8.433Y18.872
X18.593Y18.872
X23.673Y18.872
X28.753Y18.872
X33.833Y18.872
X59.233Y18.872
X64.313Y18.872
X69.393Y18.872
X74.473Y18.872
X79.553Y18.872
X84.633Y18.872
X89.713Y18.872
X99.873Y18.872
X104.953Y18.872
X110.033Y18.872
X125.273Y18.872
X130.353Y18.872
X3.353Y13.792
X8.433Y13.792
X13.513Y13.792
X59.233Y13.792
X64.313Y13.792
X69.393Y13.792
X74.473Y13.792
X84.633Y13.792
X89.713Y13.792
X99.873Y13.792
X104.953Y13.792
X110.033Y13.792
X125.273Y13.792
X130.353Y13.792
X3.353Y8.712
X8.433Y8.712
X13.513Y8.712
X18.593Y8.712
X23.673Y8.712
X125.273Y8.712
X130.353Y8.712
X105.73893Y48.31207
M30