G04 Layer: TopSolderMaskLayer*
G04 EasyEDA Pro v3.2.91, 2026-07-09 07:33:27*
G04 Gerber Generator version 0.3*
G04 Scale: 100 percent, Rotated: No, Reflected: No*
G04 Dimensions in millimeters*
G04 Leading zeros omitted, absolute positions, 4 integers and 5 decimals*
G04 Generated by one-click*
%FSLAX45Y45*%
%MOMM*%
%AMRoundRect*1,1,$1,$2,$3*1,1,$1,$4,$5*1,1,$1,0-$2,0-$3*1,1,$1,0-$4,0-$5*20,1,$1,$2,$3,$4,$5,0*20,1,$1,$4,$5,0-$2,0-$3,0*20,1,$1,0-$2,0-$3,0-$4,0-$5,0*20,1,$1,0-$4,0-$5,$2,$3,0*4,1,4,$2,$3,$4,$5,0-$2,0-$3,0-$4,0-$5,$2,$3,0*%
%ADD10C,1.7016*%
%ADD11RoundRect,0.1016X-0.675X-0.705X-0.675X0.705*%
%ADD12RoundRect,0.1016X-0.45X-0.4X-0.45X0.4*%
%ADD13RoundRect,0.2032X-0.4X-0.4X-0.4X0.4*%
%ADD14RoundRect,0.1016X-0.4X0.45X0.4X0.45*%
%ADD15C,2.20002*%
%ADD16RoundRect,0.2032X-0.4X0.4X0.4X0.4*%
%ADD17RoundRect,0.1079X-0.705X0.67501X0.705X0.67501*%
%ADD18RoundRect,0.1016X-0.705X0.67501X0.705X0.67501*%
%ADD19RoundRect,0.1016X-0.74251X0.86399X0.74251X0.86399*%
%ADD20RoundRect,0.10201X-0.648X-0.75X-0.648X0.75*%
%ADD21RoundRect,0.2032X-0.62501X-0.5X-0.62501X0.5*%
%ADD22RoundRect,0.2032X-0.5X0.62501X0.5X0.62501*%
%ADD23RoundRect,0.1016X-0.9X0.9X0.9X0.9*%
%ADD24C,1.9016*%
%ADD25C,1.9*%
%ADD26RoundRect,0.1016X-1.02375X1.0962X1.02375X1.0962*%
%ADD27RoundRect,0.1016X-0.7X0.6X0.7X0.6*%
%ADD28RoundRect,0.1016X-0.6X-0.7X-0.6X0.7*%
%ADD29RoundRect,0.1016X-1.0X-1.0X-1.0X1.0*%
%ADD30RoundRect,0.1016X-0.32501X-0.5X-0.32501X0.5*%
%ADD31RoundRect,0.1016X-0.85X-0.55X-0.85X0.55*%
%ADD32RoundRect,0.1016X-0.8X0.85X0.8X0.85*%
%ADD33RoundRect,0.1016X-0.47501X0.57501X0.47501X0.57501*%
%ADD34RoundRect,0.1016X-0.6X0.6X0.6X0.6*%
%ADD35O,6.60161X1.7016*%
%ADD36O,2.70002X1.70002*%
%ADD37RoundRect,0.1016X-0.85X0.85X0.85X0.85*%
%ADD38C,1.8016*%
%ADD39RoundRect,0.1016X-0.7X-0.75X-0.7X0.75*%
%ADD40RoundRect,0.1016X-0.75X0.7X0.75X0.7*%
%ADD41RoundRect,0.1016X-1.5X3.35001X1.5X3.35001*%
%ADD42C,3.90159*%
%ADD43RoundRect,0.1016X-3.35001X-1.5X-3.35001X1.5*%
%ADD44RoundRect,0.1016X-0.4X-0.4X-0.4X0.4*%
%ADD45RoundRect,0.1016X-0.3X-0.4X-0.3X0.4*%
%ADD46RoundRect,0.1016X-0.4X0.4X0.4X0.4*%
%ADD47O,1.9016X2.70159*%
%ADD48RoundRect,0.1016X-0.9X1.3X0.9X1.3*%
%ADD49RoundRect,0.1016X-0.266X-0.51874X-0.266X0.51874*%
%ADD50RoundRect,0.10003X-0.4X0.4X0.4X0.4*%
%ADD51RoundRect,0.1016X-0.432X-0.40324X-0.432X0.40324*%
%ADD52RoundRect,0.1016X-0.40324X0.432X0.40324X0.432*%
%ADD53RoundRect,0.1016X-0.68851X-0.56627X-0.68851X0.56627*%
%ADD54RoundRect,0.10003X-1.55X-1.25X-1.55X1.25*%
%ADD55O,0.80002X2.30002*%
%ADD56RoundRect,0.1016X-0.266X0.536X0.266X0.536*%
%ADD57C,3.10159*%
%ADD58O,2.05181X0.67*%
%ADD59RoundRect,0.1016X-0.8X-0.8X-0.8X0.8*%
%ADD60O,1.6016X0.4016*%
%ADD61O,0.4016X1.6016*%
%ADD62O,0.7316X1.9666*%
%ADD63C,1.66159*%
G75*


G04 Pad Start*
G54D10*
G01X8839192Y8610595D03*
G01X8585192Y8610595D03*
G01X8331192Y8610595D03*
G01X8077192Y8610595D03*
G01X9715492Y1193795D03*
G01X9461492Y1193795D03*
G01X9207492Y1193795D03*
G01X8953492Y1193795D03*
G01X10312408Y1181105D03*
G01X10566408Y1181105D03*
G01X10820408Y1181105D03*
G01X11074408Y1181105D03*
G54D11*
G01X12283552Y4100500D03*
G01X12283552Y3900500D03*
G01X12283552Y4357700D03*
G01X12283552Y4557700D03*
G01X8610592Y5675302D03*
G01X8610592Y5475303D03*
G54D12*
G01X8386529Y5692277D03*
G01X8386529Y5552272D03*
G54D11*
G01X355600Y2373300D03*
G01X355600Y2173300D03*
G01X571500Y2373300D03*
G01X571500Y2173300D03*
G54D10*
G01X7337811Y4178313D03*
G01X6987799Y4178313D03*
G54D13*
G01X7010405Y3674092D03*
G01X7010405Y3514098D03*
G54D14*
G01X3041498Y4000500D03*
G01X3181502Y4000500D03*
G54D11*
G01X3175000Y1636700D03*
G01X3175000Y1436700D03*
G01X2946400Y1636700D03*
G01X2946400Y1436700D03*
G54D12*
G01X711200Y6025998D03*
G01X711200Y6166002D03*
G54D14*
G01X882802Y6604000D03*
G01X742798Y6604000D03*
G01X6483502Y5435600D03*
G01X6343498Y5435600D03*
G01X895198Y3975100D03*
G01X1035202Y3975100D03*
G54D15*
G01X1644294Y4533900D03*
G01X2394306Y4533900D03*
G54D10*
G01X3568705Y8115305D03*
G01X2552705Y8115305D03*
G54D16*
G01X6163292Y2666995D03*
G01X6003298Y2666995D03*
G54D18*
G01X6742113Y7797800D03*
G01X6542088Y7797800D03*
G54D10*
G01X5778505Y8140705D03*
G01X4762505Y8140705D03*
G54D13*
G01X6070605Y3242292D03*
G01X6070605Y3082298D03*
G54D19*
G01X5479542Y5257800D03*
G01X5798058Y5257800D03*
G54D10*
G01X6604013Y1806189D03*
G01X6604013Y2156201D03*
G54D20*
G01X6654813Y4809769D03*
G01X6654813Y5147031D03*
G54D13*
G01X6070595Y3425208D03*
G01X6070595Y3585202D03*
G54D15*
G01X3790594Y4521200D03*
G01X4540606Y4521200D03*
G54D21*
G01X876300Y6162700D03*
G01X876300Y6362700D03*
G54D11*
G01X8991600Y3216653D03*
G01X8991600Y3016654D03*
G54D22*
G01X5826100Y2667000D03*
G01X5626100Y2667000D03*
G54D12*
G01X11638857Y4525551D03*
G01X11638857Y4665556D03*
G54D11*
G01X12283552Y5167300D03*
G01X12283552Y4967300D03*
G54D13*
G01X6413505Y3585192D03*
G01X6413505Y3425198D03*
G01X6855605Y3514108D03*
G01X6855605Y3674102D03*
G01X6223005Y3242292D03*
G01X6223005Y3082298D03*
G01X7302505Y5413992D03*
G01X7302505Y5253998D03*
G54D11*
G01X12283552Y5424500D03*
G01X12283552Y5624500D03*
G54D14*
G01X12490602Y7962900D03*
G01X12350598Y7962900D03*
G54D23*
G01X6834505Y8636000D03*
G54D24*
G01X7084695Y8636000D03*
G54D25*
G01X9902012Y8483600D03*
G01X9652025Y8483600D03*
G01X9402013Y8483600D03*
G54D24*
G01X6056005Y1231892D03*
G01X5805815Y1231892D03*
G01X12359005Y8420100D03*
G54D23*
G01X12609195Y8420100D03*
G54D26*
G01X6078080Y4851400D03*
G01X5605920Y4851400D03*
G54D27*
G01X5503393Y2184400D03*
G01X5850407Y2184400D03*
G54D28*
G01X6045200Y1833093D03*
G01X6045200Y2180107D03*
G54D29*
G01X5524513Y6709692D03*
G01X5524513Y6269688D03*
G01X6134113Y6709692D03*
G01X6134113Y6269688D03*
G54D30*
G01X9556496Y2614600D03*
G01X9366504Y2614600D03*
G01X9461500Y2414600D03*
G54D27*
G01X5503393Y2451100D03*
G01X5850407Y2451100D03*
G54D31*
G01X8839192Y5367200D03*
G01X8839192Y5707205D03*
G54D32*
G01X5745897Y7658105D03*
G01X5353898Y7658105D03*
G54D27*
G01X5008093Y3873500D03*
G01X5355107Y3873500D03*
G54D33*
G01X7166940Y4838713D03*
G01X6828460Y4838713D03*
G54D34*
G01X6802112Y8051805D03*
G01X6482098Y8051805D03*
G54D35*
G01X4795698Y3098800D03*
G01X3865702Y3098800D03*
G01X2204898Y3098800D03*
G01X1274902Y3098800D03*
G54D36*
G01X2439899Y2886100D03*
G01X2439899Y3286100D03*
G01X1039901Y3286100D03*
G01X1039901Y2886100D03*
G01X5030097Y2886100D03*
G01X5030097Y3286100D03*
G01X3630099Y3286100D03*
G01X3630099Y2886100D03*
G54D37*
G01X10449626Y8589404D03*
G54D38*
G01X10703626Y8589404D03*
G01X10957626Y8589404D03*
G01X11211626Y8589404D03*
G54D37*
G01X9461500Y1955800D03*
G54D38*
G01X9715500Y1955800D03*
G54D37*
G01X11696700Y1168400D03*
G54D38*
G01X11442700Y1168400D03*
G54D39*
G01X12040619Y1231905D03*
G01X12800587Y1231905D03*
G54D40*
G01X12661895Y6224019D03*
G01X12661895Y6983987D03*
G54D41*
G01X5626306Y4279910D03*
G01X6286299Y4279910D03*
G54D42*
G01X3416308Y6781803D03*
G01X3416308Y5575303D03*
G54D43*
G01X7861290Y5105606D03*
G01X7861290Y5765599D03*
G54D44*
G01X720964Y7011119D03*
G01X880857Y7011830D03*
G54D45*
G01X11177194Y8128000D03*
G01X11327206Y8128000D03*
G54D46*
G01X10858856Y3818966D03*
G01X10858144Y3978859D03*
G01X10921644Y6696634D03*
G01X10922356Y6536741D03*
G54D47*
G01X1282677Y8623788D03*
G01X1536703Y8622797D03*
G54D48*
G01X1028677Y8623788D03*
G54D47*
G01X3301977Y8623788D03*
G01X3556003Y8622797D03*
G54D48*
G01X3047977Y8623788D03*
G54D47*
G01X5321277Y8623788D03*
G01X5575303Y8622797D03*
G54D48*
G01X5067277Y8623788D03*
G54D49*
G01X7029704Y7852766D03*
G01X7219696Y7852766D03*
G01X7124700Y8073034D03*
G54D50*
G01X616191Y5626595D03*
G01X806209Y5626595D03*
G01X711695Y5879605D03*
G54D51*
G01X10680700Y4153764D03*
G01X10680700Y4304436D03*
G01X11036300Y4304436D03*
G01X11036300Y4153764D03*
G54D52*
G01X12292736Y6235700D03*
G01X12142064Y6235700D03*
G01X9271864Y1651000D03*
G01X9422536Y1651000D03*
G54D53*
G01X9766300Y3236900D03*
G01X9766300Y3036900D03*
G54D52*
G01X11657736Y8128000D03*
G01X11507064Y8128000D03*
G01X12495936Y7785100D03*
G01X12345264Y7785100D03*
G54D51*
G01X10960100Y8266836D03*
G01X10960100Y8116164D03*
G01X10706100Y8266836D03*
G01X10706100Y8116164D03*
G54D13*
G01X6553195Y3585200D03*
G01X6553195Y3425205D03*
G01X6413505Y3082300D03*
G01X6413505Y3242295D03*
G54D51*
G01X10858500Y4304436D03*
G01X10858500Y4153764D03*
G54D52*
G01X623164Y5448300D03*
G01X773836Y5448300D03*
G01X725261Y6874624D03*
G01X875934Y6874624D03*
G01X725261Y6747134D03*
G01X875934Y6747134D03*
G54D51*
G01X5245100Y6526936D03*
G01X5245100Y6376264D03*
G01X5905500Y6526936D03*
G01X5905500Y6376264D03*
G01X5245100Y6693764D03*
G01X5245100Y6844436D03*
G01X5905500Y6693764D03*
G01X5905500Y6844436D03*
G54D52*
G01X6325961Y5778500D03*
G01X6476634Y5778500D03*
G01X6325961Y5614872D03*
G01X6476634Y5614872D03*
G01X9841636Y4864100D03*
G01X9690964Y4864100D03*
G01X9841636Y5562600D03*
G01X9690964Y5562600D03*
G01X7174636Y7632700D03*
G01X7023964Y7632700D03*
G01X6846164Y5041900D03*
G01X6996836Y5041900D03*
G54D13*
G01X6223005Y3425200D03*
G01X6223005Y3585195D03*
G54D16*
G01X6600200Y2489195D03*
G01X6760195Y2489195D03*
G01X6600200Y2793995D03*
G01X6760195Y2793995D03*
G01X6600200Y2641595D03*
G01X6760195Y2641595D03*
G54D52*
G01X6731864Y5651500D03*
G01X6882536Y5651500D03*
G01X7200036Y5651500D03*
G01X7049364Y5651500D03*
G01X12292736Y6413500D03*
G01X12142064Y6413500D03*
G01X9841636Y5054600D03*
G01X9690964Y5054600D03*
G01X9841636Y5245100D03*
G01X9690964Y5245100D03*
G54D51*
G01X11315700Y4406036D03*
G01X11315700Y4255364D03*
G01X10922000Y6198464D03*
G01X10922000Y6349136D03*
G54D54*
G01X5702300Y3319780D03*
G54D55*
G01X5892800Y3616960D03*
G01X5765800Y3616960D03*
G01X5638800Y3616960D03*
G01X5511800Y3616960D03*
G01X5892800Y3012440D03*
G01X5765800Y3012440D03*
G01X5638800Y3012440D03*
G01X5511800Y3012440D03*
G54D56*
G01X7092709Y5436212D03*
G01X6997713Y5436212D03*
G01X6902717Y5436212D03*
G01X6902717Y5206393D03*
G01X6997713Y5206393D03*
G01X7092709Y5206393D03*
G54D57*
G01X3881095Y2108200D03*
G01X4831105Y2108200D03*
G01X1290295Y2108200D03*
G01X2240305Y2108200D03*
G54D58*
G01X5998223Y5499103D03*
G01X5998223Y5626103D03*
G01X5998223Y5753103D03*
G01X5998223Y5880103D03*
G01X5457203Y5499103D03*
G01X5457203Y5626103D03*
G01X5457203Y5753103D03*
G01X5457203Y5880103D03*
G54D59*
G01X1473190Y5918200D03*
G54D10*
G01X1473190Y6172200D03*
G01X1473190Y6426200D03*
G01X1473190Y6680200D03*
G54D60*
G01X11516220Y4781194D03*
G01X11516220Y4831207D03*
G01X11516220Y4881194D03*
G01X11516220Y4931207D03*
G01X11516220Y4981194D03*
G01X11516220Y5031207D03*
G01X11516220Y5081194D03*
G01X11516220Y5131206D03*
G01X11516220Y5181194D03*
G01X11516220Y5231206D03*
G01X11516220Y5281193D03*
G01X11516220Y5331206D03*
G01X11516220Y5381193D03*
G01X11516220Y5431206D03*
G01X11516220Y5481193D03*
G01X11516220Y5531206D03*
G54D61*
G01X11321225Y5726201D03*
G01X11271212Y5726201D03*
G01X11221225Y5726201D03*
G01X11171212Y5726201D03*
G01X11121225Y5726201D03*
G01X11071212Y5726201D03*
G01X11021225Y5726201D03*
G01X10971213Y5726201D03*
G01X10921225Y5726201D03*
G01X10871213Y5726201D03*
G01X10821226Y5726201D03*
G01X10771213Y5726201D03*
G01X10721226Y5726201D03*
G01X10671213Y5726201D03*
G01X10621226Y5726201D03*
G01X10571213Y5726201D03*
G54D60*
G01X10378580Y5531206D03*
G01X10378580Y5481193D03*
G01X10378580Y5431206D03*
G01X10378580Y5381193D03*
G01X10378580Y5331206D03*
G01X10378580Y5281193D03*
G01X10378580Y5231206D03*
G01X10378580Y5181194D03*
G01X10378580Y5131206D03*
G01X10378580Y5081194D03*
G01X10378580Y5031207D03*
G01X10378580Y4981194D03*
G01X10378580Y4931207D03*
G01X10378580Y4881194D03*
G01X10378580Y4831207D03*
G01X10378580Y4781194D03*
G54D61*
G01X10571213Y4586199D03*
G01X10621226Y4586199D03*
G01X10671213Y4586199D03*
G01X10721226Y4586199D03*
G01X10771213Y4586199D03*
G01X10821226Y4586199D03*
G01X10871213Y4586199D03*
G01X10921225Y4586199D03*
G01X10971213Y4586199D03*
G01X11021225Y4586199D03*
G01X11071212Y4586199D03*
G01X11121225Y4586199D03*
G01X11171212Y4586199D03*
G01X11221225Y4586199D03*
G01X11271212Y4586199D03*
G01X11321225Y4586199D03*
G54D62*
G01X9207495Y3224261D03*
G01X9334495Y3224261D03*
G01X9461495Y3224261D03*
G01X9588495Y3224261D03*
G01X9207495Y3760760D03*
G01X9334495Y3760760D03*
G01X9461495Y3760760D03*
G01X9588495Y3760760D03*
G54D63*
G01X12661900Y5229708D03*
G01X12661900Y5717692D03*
G01X12661900Y4023208D03*
G01X12661900Y4511192D03*
G54D12*
G01X11569700Y5721198D03*
G01X11569700Y5861202D03*
G01X11544300Y4337202D03*
G01X11544300Y4197198D03*
G01X10198100Y4654702D03*
G01X10198100Y4514698D03*
G54D14*
G01X10560202Y6070600D03*
G01X10420198Y6070600D03*
G04 Pad End*

M02*

