G04 Layer: BottomPasteMaskLayer*
G04 EasyEDA Pro v3.2.91, 2026-07-09 07:33:27*
G04 Gerber Generator version 0.3*
G04 Scale: 100 percent, Rotated: No, Reflected: No*
G04 Dimensions in millimeters*
G04 Leading zeros omitted, absolute positions, 4 integers and 5 decimals*
G04 Generated by one-click*
%FSLAX45Y45*%
%MOMM*%
%ADD10R,0.8X0.9*%
%ADD11R,2.1924X2.04749*%
%ADD12R,2.0X3.29999*%
%ADD13O,1.62001X0.28001*%
%ADD14C,0.8146*%
G75*


G04 PolygonModel Start*
G36*
G01X2122805Y1805297D02*
G01X2122805Y1780299D01*
G01X2152805Y1780299D01*
G01X2152805Y1750299D01*
G01X2122805Y1750299D01*
G01X2122805Y1725298D01*
G01X2127804Y1720299D01*
G01X2212805Y1720299D01*
G01X2217804Y1725298D01*
G01X2217804Y1805297D01*
G01X2212805Y1810299D01*
G01X2127804Y1810299D01*
G01X2122805Y1805297D01*
G37*
G36*
G01X1952805Y1810299D02*
G01X1947804Y1805297D01*
G01X1947804Y1725298D01*
G01X1952805Y1720299D01*
G01X2037804Y1720299D01*
G01X2042805Y1725298D01*
G01X2042805Y1750299D01*
G01X2012805Y1750299D01*
G01X2012805Y1780299D01*
G01X2042805Y1780299D01*
G01X2042805Y1805297D01*
G01X2037804Y1810299D01*
G01X1952805Y1810299D01*
G37*
G36*
G01X1737995Y1725303D02*
G01X1737995Y1750301D01*
G01X1707995Y1750301D01*
G01X1707995Y1780301D01*
G01X1737995Y1780301D01*
G01X1737995Y1805302D01*
G01X1732996Y1810301D01*
G01X1647995Y1810301D01*
G01X1642996Y1805302D01*
G01X1642996Y1725303D01*
G01X1647995Y1720301D01*
G01X1732996Y1720301D01*
G01X1737995Y1725303D01*
G37*
G36*
G01X1907995Y1720301D02*
G01X1912996Y1725303D01*
G01X1912996Y1805302D01*
G01X1907995Y1810301D01*
G01X1822996Y1810301D01*
G01X1817995Y1805302D01*
G01X1817995Y1780301D01*
G01X1847995Y1780301D01*
G01X1847995Y1750301D01*
G01X1817995Y1750301D01*
G01X1817995Y1725303D01*
G01X1822996Y1720301D01*
G01X1907995Y1720301D01*
G37*
G36*
G01X4167901Y1829999D02*
G01X4261947Y1829999D01*
G01X4271945Y1839999D01*
G01X4271947Y1863606D01*
G01X4281947Y1873606D01*
G01X4379453Y1873606D01*
G01X4389453Y1863606D01*
G01X4389453Y1839999D01*
G01X4399453Y1829999D01*
G01X4493499Y1829999D01*
G01X4503499Y1839999D01*
G01X4503499Y1948254D01*
G01X4493499Y1958254D01*
G01X4167901Y1958254D01*
G01X4157901Y1948254D01*
G01X4157901Y1839999D01*
G01X4167901Y1829999D01*
G37*
G36*
G01X4167901Y1345001D02*
G01X4157901Y1335001D01*
G01X4157901Y1226746D01*
G01X4167901Y1216746D01*
G01X4493499Y1216746D01*
G01X4503499Y1226746D01*
G01X4503499Y1335001D01*
G01X4493499Y1345001D01*
G01X4399453Y1345001D01*
G01X4389455Y1335001D01*
G01X4389453Y1311394D01*
G01X4379453Y1301394D01*
G01X4281947Y1301394D01*
G01X4271947Y1311394D01*
G01X4271947Y1335001D01*
G01X4261947Y1345001D01*
G01X4167901Y1345001D01*
G37*
G36*
G01X1158001Y1702999D02*
G01X1252047Y1702999D01*
G01X1262045Y1712999D01*
G01X1262047Y1736606D01*
G01X1272047Y1746606D01*
G01X1369553Y1746606D01*
G01X1379553Y1736606D01*
G01X1379553Y1712999D01*
G01X1389553Y1702999D01*
G01X1483599Y1702999D01*
G01X1493599Y1712999D01*
G01X1493599Y1821254D01*
G01X1483599Y1831254D01*
G01X1158001Y1831254D01*
G01X1148001Y1821254D01*
G01X1148001Y1712999D01*
G01X1158001Y1702999D01*
G37*
G36*
G01X1158001Y1218001D02*
G01X1148001Y1208001D01*
G01X1148001Y1099746D01*
G01X1158001Y1089746D01*
G01X1483599Y1089746D01*
G01X1493599Y1099746D01*
G01X1493599Y1208001D01*
G01X1483599Y1218001D01*
G01X1389553Y1218001D01*
G01X1379555Y1208001D01*
G01X1379553Y1184394D01*
G01X1369553Y1174394D01*
G01X1272047Y1174394D01*
G01X1262047Y1184394D01*
G01X1262047Y1208001D01*
G01X1252047Y1218001D01*
G01X1158001Y1218001D01*
G37*
G36*
G01X5294003Y1970405D02*
G01X5319001Y1970405D01*
G01X5319001Y2000405D01*
G01X5349001Y2000405D01*
G01X5349001Y1970405D01*
G01X5374002Y1970405D01*
G01X5379001Y1975404D01*
G01X5379001Y2060405D01*
G01X5374002Y2065404D01*
G01X5294003Y2065404D01*
G01X5289001Y2060405D01*
G01X5289001Y1975404D01*
G01X5294003Y1970405D01*
G37*
G36*
G01X5289001Y1800405D02*
G01X5294003Y1795404D01*
G01X5374002Y1795404D01*
G01X5379001Y1800405D01*
G01X5379001Y1885404D01*
G01X5374002Y1890405D01*
G01X5349001Y1890405D01*
G01X5349001Y1860405D01*
G01X5319001Y1860405D01*
G01X5319001Y1890405D01*
G01X5294003Y1890405D01*
G01X5289001Y1885404D01*
G01X5289001Y1800405D01*
G37*
G36*
G01X5451554Y1765397D02*
G01X5451554Y1740398D01*
G01X5481554Y1740398D01*
G01X5481554Y1710398D01*
G01X5451554Y1710398D01*
G01X5451554Y1685397D01*
G01X5456552Y1680398D01*
G01X5541554Y1680398D01*
G01X5546552Y1685397D01*
G01X5546552Y1765397D01*
G01X5541554Y1770398D01*
G01X5456552Y1770398D01*
G01X5451554Y1765397D01*
G37*
G36*
G01X5281554Y1770398D02*
G01X5276553Y1765397D01*
G01X5276553Y1685397D01*
G01X5281554Y1680398D01*
G01X5366553Y1680398D01*
G01X5371554Y1685397D01*
G01X5371554Y1710398D01*
G01X5341554Y1710398D01*
G01X5341554Y1740398D01*
G01X5371554Y1740398D01*
G01X5371554Y1765397D01*
G01X5366553Y1770398D01*
G01X5281554Y1770398D01*
G37*

G04 Pad Start*
G54D10*
G01X1796898Y1155700D03*
G01X1936902Y1155700D03*
G01X4883302Y1270000D03*
G01X4743298Y1270000D03*
G54D11*
G01X1485900Y3548532D03*
G01X1485900Y4020668D03*
G01X4559300Y4071468D03*
G01X4559300Y3599332D03*
G54D12*
G01X4472229Y8102600D03*
G01X3858971Y8102600D03*
G01X1894129Y8115300D03*
G01X1280871Y8115300D03*
G54D13*
G01X2204898Y1522400D03*
G01X2204898Y1472387D03*
G01X2204898Y1422400D03*
G01X2204898Y1372387D03*
G01X2204898Y1322400D03*
G01X1782902Y1522400D03*
G01X1782902Y1472387D03*
G01X1782902Y1422400D03*
G01X1782902Y1372387D03*
G01X1782902Y1322400D03*
G01X5329098Y1636700D03*
G01X5329098Y1586687D03*
G01X5329098Y1536700D03*
G01X5329098Y1486687D03*
G01X5329098Y1436700D03*
G01X4907102Y1636700D03*
G01X4907102Y1586687D03*
G01X4907102Y1536700D03*
G01X4907102Y1486687D03*
G01X4907102Y1436700D03*
G04 Pad End*

M02*

