G04 Layer: TopSilkscreenLayer*
G04 EasyEDA Pro v3.2.91, 2026-07-09 07:33:27*
G04 Gerber Generator version 0.3*
G04 Scale: 100 percent, Rotated: No, Reflected: No*
G04 Dimensions in millimeters*
G04 Leading zeros omitted, absolute positions, 4 integers and 5 decimals*
G04 Generated by one-click*
%FSLAX45Y45*%
%MOMM*%
%ADD10C,0.1524*%
%ADD11C,0.3*%
%ADD12C,0.254*%
%ADD13C,0.127*%
%ADD14C,0.2*%
%ADD15C,0.1999*%
%ADD16C,0.15199*%
%ADD17C,0.15001*%
%ADD18C,0.2087*%
%ADD19C,0.203*%
%ADD20C,0.4*%
%ADD21C,0.11999*%
%ADD22C,0.6*%
%ADD23C,0.25806*%
G75*


G04 Text Start*
G54D10*
G01X8465947Y8783066D02*
G01X8459851Y8779764D01*
G01X8450453Y8770620D01*
G01X8450453Y8835644D01*
G01X9353169Y1369314D02*
G01X9353169Y1366266D01*
G01X9350121Y1359916D01*
G01X9346819Y1356868D01*
G01X9340723Y1353820D01*
G01X9328277Y1353820D01*
G01X9322181Y1356868D01*
G01X9319133Y1359916D01*
G01X9316085Y1366266D01*
G01X9316085Y1372362D01*
G01X9319133Y1378458D01*
G01X9325229Y1387856D01*
G01X9356217Y1418844D01*
G01X9312783Y1418844D01*
G01X10677779Y1406144D02*
G01X10711815Y1406144D01*
G01X10693273Y1381506D01*
G01X10702671Y1381506D01*
G01X10708767Y1378458D01*
G01X10711815Y1375156D01*
G01X10715117Y1366012D01*
G01X10715117Y1359662D01*
G01X10711815Y1350518D01*
G01X10705719Y1344168D01*
G01X10696575Y1341120D01*
G01X10687177Y1341120D01*
G01X10677779Y1344168D01*
G01X10674731Y1347470D01*
G01X10671683Y1353566D01*
G01X12266534Y4266202D02*
G01X12260184Y4263154D01*
G01X12254088Y4256804D01*
G01X12251040Y4250708D01*
G01X12251040Y4238262D01*
G01X12254088Y4232166D01*
G01X12260184Y4225816D01*
G01X12266534Y4222768D01*
G01X12275678Y4219720D01*
G01X12291172Y4219720D01*
G01X12300570Y4222768D01*
G01X12306666Y4225816D01*
G01X12313016Y4232166D01*
G01X12316064Y4238262D01*
G01X12316064Y4250708D01*
G01X12313016Y4256804D01*
G01X12306666Y4263154D01*
G01X12300570Y4266202D01*
G01X12263486Y4296428D02*
G01X12260184Y4302524D01*
G01X12251040Y4311668D01*
G01X12316064Y4311668D01*
G01X12300570Y4750326D02*
G01X12306920Y4753374D01*
G01X12313016Y4759724D01*
G01X12316064Y4765820D01*
G01X12316064Y4778266D01*
G01X12313016Y4784362D01*
G01X12306920Y4790712D01*
G01X12300570Y4793760D01*
G01X12291426Y4796808D01*
G01X12275932Y4796808D01*
G01X12266534Y4793760D01*
G01X12260438Y4790712D01*
G01X12254088Y4784362D01*
G01X12251040Y4778266D01*
G01X12251040Y4765820D01*
G01X12254088Y4759724D01*
G01X12260438Y4753374D01*
G01X12266534Y4750326D01*
G01X12300570Y4717052D02*
G01X12303618Y4717052D01*
G01X12309968Y4714004D01*
G01X12313016Y4710956D01*
G01X12316064Y4704860D01*
G01X12316064Y4692414D01*
G01X12313016Y4686064D01*
G01X12309968Y4683016D01*
G01X12303618Y4679968D01*
G01X12297522Y4679968D01*
G01X12291426Y4683016D01*
G01X12282028Y4689366D01*
G01X12251040Y4720100D01*
G01X12251040Y4676920D01*
G01X8593582Y5841002D02*
G01X8587232Y5837954D01*
G01X8581136Y5831604D01*
G01X8578088Y5825508D01*
G01X8578088Y5813062D01*
G01X8581136Y5806966D01*
G01X8587232Y5800616D01*
G01X8593582Y5797568D01*
G01X8602726Y5794520D01*
G01X8618220Y5794520D01*
G01X8627618Y5797568D01*
G01X8633714Y5800616D01*
G01X8640064Y5806966D01*
G01X8643112Y5813062D01*
G01X8643112Y5825508D01*
G01X8640064Y5831604D01*
G01X8633714Y5837954D01*
G01X8627618Y5841002D01*
G01X8593582Y5874276D02*
G01X8590534Y5874276D01*
G01X8584184Y5877324D01*
G01X8581136Y5880372D01*
G01X8578088Y5886468D01*
G01X8578088Y5898914D01*
G01X8581136Y5905264D01*
G01X8584184Y5908312D01*
G01X8590534Y5911360D01*
G01X8596630Y5911360D01*
G01X8602726Y5908312D01*
G01X8612124Y5901962D01*
G01X8643112Y5871228D01*
G01X8643112Y5914408D01*
G01X8578088Y5944634D02*
G01X8643112Y5944634D01*
G01X8578088Y5944634D02*
G01X8578088Y5972320D01*
G01X8581136Y5981718D01*
G01X8584184Y5984766D01*
G01X8590534Y5987814D01*
G01X8596630Y5987814D01*
G01X8602726Y5984766D01*
G01X8605774Y5981718D01*
G01X8609076Y5972320D01*
G01X8609076Y5944634D02*
G01X8609076Y5972320D01*
G01X8612124Y5981718D01*
G01X8615172Y5984766D01*
G01X8621268Y5987814D01*
G01X8630666Y5987814D01*
G01X8636762Y5984766D01*
G01X8640064Y5981718D01*
G01X8643112Y5972320D01*
G01X8643112Y5944634D01*
G01X8369240Y5840778D02*
G01X8362890Y5837730D01*
G01X8356794Y5831380D01*
G01X8353746Y5825284D01*
G01X8353746Y5812838D01*
G01X8356794Y5806742D01*
G01X8362890Y5800392D01*
G01X8369240Y5797344D01*
G01X8378384Y5794296D01*
G01X8393878Y5794296D01*
G01X8403276Y5797344D01*
G01X8409372Y5800392D01*
G01X8415722Y5806742D01*
G01X8418770Y5812838D01*
G01X8418770Y5825284D01*
G01X8415722Y5831380D01*
G01X8409372Y5837730D01*
G01X8403276Y5840778D01*
G01X8353746Y5908088D02*
G01X8353746Y5877100D01*
G01X8381432Y5874052D01*
G01X8378384Y5877100D01*
G01X8375336Y5886244D01*
G01X8375336Y5895642D01*
G01X8378384Y5905040D01*
G01X8384734Y5911136D01*
G01X8393878Y5914184D01*
G01X8400228Y5914184D01*
G01X8409372Y5911136D01*
G01X8415722Y5905040D01*
G01X8418770Y5895642D01*
G01X8418770Y5886244D01*
G01X8415722Y5877100D01*
G01X8412420Y5874052D01*
G01X8406324Y5871004D01*
G01X338582Y2539002D02*
G01X332232Y2535954D01*
G01X326136Y2529604D01*
G01X323088Y2523508D01*
G01X323088Y2511062D01*
G01X326136Y2504966D01*
G01X332232Y2498616D01*
G01X338582Y2495568D01*
G01X347726Y2492520D01*
G01X363220Y2492520D01*
G01X372618Y2495568D01*
G01X378714Y2498616D01*
G01X385064Y2504966D01*
G01X388112Y2511062D01*
G01X388112Y2523508D01*
G01X385064Y2529604D01*
G01X378714Y2535954D01*
G01X372618Y2539002D01*
G01X332232Y2606312D02*
G01X326136Y2603264D01*
G01X323088Y2593866D01*
G01X323088Y2587770D01*
G01X326136Y2578372D01*
G01X335534Y2572276D01*
G01X350774Y2569228D01*
G01X366268Y2569228D01*
G01X378714Y2572276D01*
G01X385064Y2578372D01*
G01X388112Y2587770D01*
G01X388112Y2590818D01*
G01X385064Y2599962D01*
G01X378714Y2606312D01*
G01X369570Y2609360D01*
G01X366268Y2609360D01*
G01X357124Y2606312D01*
G01X350774Y2599962D01*
G01X347726Y2590818D01*
G01X347726Y2587770D01*
G01X350774Y2578372D01*
G01X357124Y2572276D01*
G01X366268Y2569228D01*
G01X554482Y2539002D02*
G01X548132Y2535954D01*
G01X542036Y2529604D01*
G01X538988Y2523508D01*
G01X538988Y2511062D01*
G01X542036Y2504966D01*
G01X548132Y2498616D01*
G01X554482Y2495568D01*
G01X563626Y2492520D01*
G01X579120Y2492520D01*
G01X588518Y2495568D01*
G01X594614Y2498616D01*
G01X600964Y2504966D01*
G01X604012Y2511062D01*
G01X604012Y2523508D01*
G01X600964Y2529604D01*
G01X594614Y2535954D01*
G01X588518Y2539002D01*
G01X538988Y2612408D02*
G01X604012Y2581420D01*
G01X538988Y2569228D02*
G01X538988Y2612408D01*
G01X7153148Y4660900D02*
G01X7150100Y4667250D01*
G01X7143750Y4673346D01*
G01X7137654Y4676394D01*
G01X7125208Y4676394D01*
G01X7119112Y4673346D01*
G01X7112762Y4667250D01*
G01X7109714Y4660900D01*
G01X7106666Y4651756D01*
G01X7106666Y4636262D01*
G01X7109714Y4626864D01*
G01X7112762Y4620768D01*
G01X7119112Y4614418D01*
G01X7125208Y4611370D01*
G01X7137654Y4611370D01*
G01X7143750Y4614418D01*
G01X7150100Y4620768D01*
G01X7153148Y4626864D01*
G01X7198614Y4676394D02*
G01X7189470Y4673346D01*
G01X7186422Y4667250D01*
G01X7186422Y4660900D01*
G01X7189470Y4654804D01*
G01X7195566Y4651756D01*
G01X7208012Y4648708D01*
G01X7217410Y4645406D01*
G01X7223506Y4639310D01*
G01X7226554Y4633214D01*
G01X7226554Y4623816D01*
G01X7223506Y4617720D01*
G01X7220458Y4614418D01*
G01X7211060Y4611370D01*
G01X7198614Y4611370D01*
G01X7189470Y4614418D01*
G01X7186422Y4617720D01*
G01X7183374Y4623816D01*
G01X7183374Y4633214D01*
G01X7186422Y4639310D01*
G01X7192518Y4645406D01*
G01X7201916Y4648708D01*
G01X7214108Y4651756D01*
G01X7220458Y4654804D01*
G01X7223506Y4660900D01*
G01X7223506Y4667250D01*
G01X7220458Y4673346D01*
G01X7211060Y4676394D01*
G01X7198614Y4676394D01*
G01X7027418Y3822088D02*
G01X7033768Y3825136D01*
G01X7039864Y3831486D01*
G01X7042912Y3837582D01*
G01X7042912Y3850028D01*
G01X7039864Y3856124D01*
G01X7033768Y3862474D01*
G01X7027418Y3865522D01*
G01X7018274Y3868570D01*
G01X7002780Y3868570D01*
G01X6993382Y3865522D01*
G01X6987286Y3862474D01*
G01X6980936Y3856124D01*
G01X6977888Y3850028D01*
G01X6977888Y3837582D01*
G01X6980936Y3831486D01*
G01X6987286Y3825136D01*
G01X6993382Y3822088D01*
G01X7021322Y3751730D02*
G01X7011924Y3754778D01*
G01X7005828Y3761128D01*
G01X7002780Y3770272D01*
G01X7002780Y3773320D01*
G01X7005828Y3782718D01*
G01X7011924Y3788814D01*
G01X7021322Y3791862D01*
G01X7024370Y3791862D01*
G01X7033768Y3788814D01*
G01X7039864Y3782718D01*
G01X7042912Y3773320D01*
G01X7042912Y3770272D01*
G01X7039864Y3761128D01*
G01X7033768Y3754778D01*
G01X7021322Y3751730D01*
G01X7005828Y3751730D01*
G01X6990334Y3754778D01*
G01X6980936Y3761128D01*
G01X6977888Y3770272D01*
G01X6977888Y3776622D01*
G01X6980936Y3785766D01*
G01X6987286Y3788814D01*
G01X3134500Y4120017D02*
G01X3137548Y4113667D01*
G01X3143898Y4107571D01*
G01X3149994Y4104523D01*
G01X3162440Y4104523D01*
G01X3168536Y4107571D01*
G01X3174886Y4113667D01*
G01X3177934Y4120017D01*
G01X3180982Y4129161D01*
G01X3180982Y4144655D01*
G01X3177934Y4154053D01*
G01X3174886Y4160149D01*
G01X3168536Y4166499D01*
G01X3162440Y4169547D01*
G01X3149994Y4169547D01*
G01X3143898Y4166499D01*
G01X3137548Y4160149D01*
G01X3134500Y4154053D01*
G01X3104274Y4116969D02*
G01X3098178Y4113667D01*
G01X3089034Y4104523D01*
G01X3089034Y4169547D01*
G01X3058808Y4116969D02*
G01X3052712Y4113667D01*
G01X3043568Y4104523D01*
G01X3043568Y4169547D01*
G01X3157982Y1802402D02*
G01X3151632Y1799354D01*
G01X3145536Y1793004D01*
G01X3142488Y1786908D01*
G01X3142488Y1774462D01*
G01X3145536Y1768366D01*
G01X3151632Y1762016D01*
G01X3157982Y1758968D01*
G01X3167126Y1755920D01*
G01X3182620Y1755920D01*
G01X3192018Y1758968D01*
G01X3198114Y1762016D01*
G01X3204464Y1768366D01*
G01X3207512Y1774462D01*
G01X3207512Y1786908D01*
G01X3204464Y1793004D01*
G01X3198114Y1799354D01*
G01X3192018Y1802402D01*
G01X3154934Y1832628D02*
G01X3151632Y1838724D01*
G01X3142488Y1847868D01*
G01X3207512Y1847868D01*
G01X3157982Y1881142D02*
G01X3154934Y1881142D01*
G01X3148584Y1884190D01*
G01X3145536Y1887238D01*
G01X3142488Y1893334D01*
G01X3142488Y1905780D01*
G01X3145536Y1912130D01*
G01X3148584Y1915178D01*
G01X3154934Y1918226D01*
G01X3161030Y1918226D01*
G01X3167126Y1915178D01*
G01X3176524Y1908828D01*
G01X3207512Y1878094D01*
G01X3207512Y1921274D01*
G01X2929382Y1802402D02*
G01X2923032Y1799354D01*
G01X2916936Y1793004D01*
G01X2913888Y1786908D01*
G01X2913888Y1774462D01*
G01X2916936Y1768366D01*
G01X2923032Y1762016D01*
G01X2929382Y1758968D01*
G01X2938526Y1755920D01*
G01X2954020Y1755920D01*
G01X2963418Y1758968D01*
G01X2969514Y1762016D01*
G01X2975864Y1768366D01*
G01X2978912Y1774462D01*
G01X2978912Y1786908D01*
G01X2975864Y1793004D01*
G01X2969514Y1799354D01*
G01X2963418Y1802402D01*
G01X2926334Y1832628D02*
G01X2923032Y1838724D01*
G01X2913888Y1847868D01*
G01X2978912Y1847868D01*
G01X2913888Y1884190D02*
G01X2913888Y1918226D01*
G01X2938526Y1899684D01*
G01X2938526Y1908828D01*
G01X2941574Y1915178D01*
G01X2944876Y1918226D01*
G01X2954020Y1921274D01*
G01X2960370Y1921274D01*
G01X2969514Y1918226D01*
G01X2975864Y1912130D01*
G01X2978912Y1902732D01*
G01X2978912Y1893334D01*
G01X2975864Y1884190D01*
G01X2972562Y1881142D01*
G01X2966466Y1878094D01*
G01X728489Y6391491D02*
G01X734839Y6394539D01*
G01X740935Y6400889D01*
G01X743983Y6406985D01*
G01X743983Y6419431D01*
G01X740935Y6425527D01*
G01X734839Y6431877D01*
G01X728489Y6434925D01*
G01X719345Y6437973D01*
G01X703851Y6437973D01*
G01X694453Y6434925D01*
G01X688357Y6431877D01*
G01X682007Y6425527D01*
G01X678959Y6419431D01*
G01X678959Y6406985D01*
G01X682007Y6400889D01*
G01X688357Y6394539D01*
G01X694453Y6391491D01*
G01X731537Y6361265D02*
G01X734839Y6355169D01*
G01X743983Y6346025D01*
G01X678959Y6346025D01*
G01X743983Y6285065D02*
G01X700803Y6315799D01*
G01X700803Y6269571D01*
G01X743983Y6285065D02*
G01X678959Y6285065D01*
G01X775830Y6758094D02*
G01X772782Y6764444D01*
G01X766432Y6770540D01*
G01X760336Y6773588D01*
G01X747890Y6773588D01*
G01X741794Y6770540D01*
G01X735444Y6764444D01*
G01X732396Y6758094D01*
G01X729348Y6748950D01*
G01X729348Y6733456D01*
G01X732396Y6724058D01*
G01X735444Y6717962D01*
G01X741794Y6711612D01*
G01X747890Y6708564D01*
G01X760336Y6708564D01*
G01X766432Y6711612D01*
G01X772782Y6717962D01*
G01X775830Y6724058D01*
G01X806056Y6761142D02*
G01X812152Y6764444D01*
G01X821296Y6773588D01*
G01X821296Y6708564D01*
G01X888606Y6773588D02*
G01X857618Y6773588D01*
G01X854570Y6745902D01*
G01X857618Y6748950D01*
G01X866762Y6751998D01*
G01X876160Y6751998D01*
G01X885558Y6748950D01*
G01X891654Y6742600D01*
G01X894702Y6733456D01*
G01X894702Y6727106D01*
G01X891654Y6717962D01*
G01X885558Y6711612D01*
G01X876160Y6708564D01*
G01X866762Y6708564D01*
G01X857618Y6711612D01*
G01X854570Y6714914D01*
G01X851522Y6721010D01*
G01X6378054Y5589694D02*
G01X6375006Y5596044D01*
G01X6368656Y5602140D01*
G01X6362560Y5605188D01*
G01X6350114Y5605188D01*
G01X6344018Y5602140D01*
G01X6337668Y5596044D01*
G01X6334620Y5589694D01*
G01X6331572Y5580550D01*
G01X6331572Y5565056D01*
G01X6334620Y5555658D01*
G01X6337668Y5549562D01*
G01X6344018Y5543212D01*
G01X6350114Y5540164D01*
G01X6362560Y5540164D01*
G01X6368656Y5543212D01*
G01X6375006Y5549562D01*
G01X6378054Y5555658D01*
G01X6408280Y5592742D02*
G01X6414376Y5596044D01*
G01X6423520Y5605188D01*
G01X6423520Y5540164D01*
G01X6490830Y5596044D02*
G01X6487782Y5602140D01*
G01X6478384Y5605188D01*
G01X6472288Y5605188D01*
G01X6462890Y5602140D01*
G01X6456794Y5592742D01*
G01X6453746Y5577502D01*
G01X6453746Y5562008D01*
G01X6456794Y5549562D01*
G01X6462890Y5543212D01*
G01X6472288Y5540164D01*
G01X6475336Y5540164D01*
G01X6484480Y5543212D01*
G01X6490830Y5549562D01*
G01X6493878Y5558706D01*
G01X6493878Y5562008D01*
G01X6490830Y5571152D01*
G01X6484480Y5577502D01*
G01X6475336Y5580550D01*
G01X6472288Y5580550D01*
G01X6462890Y5577502D01*
G01X6456794Y5571152D01*
G01X6453746Y5562008D01*
G01X1002170Y4094617D02*
G01X1005218Y4088267D01*
G01X1011568Y4082171D01*
G01X1017664Y4079123D01*
G01X1030110Y4079123D01*
G01X1036206Y4082171D01*
G01X1042556Y4088267D01*
G01X1045604Y4094617D01*
G01X1048652Y4103761D01*
G01X1048652Y4119255D01*
G01X1045604Y4128653D01*
G01X1042556Y4134749D01*
G01X1036206Y4141099D01*
G01X1030110Y4144147D01*
G01X1017664Y4144147D01*
G01X1011568Y4141099D01*
G01X1005218Y4134749D01*
G01X1002170Y4128653D01*
G01X971944Y4091569D02*
G01X965848Y4088267D01*
G01X956704Y4079123D01*
G01X956704Y4144147D01*
G01X883298Y4079123D02*
G01X914286Y4144147D01*
G01X926478Y4079123D02*
G01X883298Y4079123D01*
G54D11*
G01X1548638Y4821428D02*
G01X1548638Y4725670D01*
G01X1500886Y4773676D02*
G01X1596644Y4773676D01*
G01X2313686Y4760976D02*
G01X2409444Y4760976D01*
G54D10*
G01X1983105Y5503748D02*
G01X1980057Y5510098D01*
G01X1973707Y5516194D01*
G01X1967611Y5519242D01*
G01X1955165Y5519242D01*
G01X1949069Y5516194D01*
G01X1942719Y5510098D01*
G01X1939671Y5503748D01*
G01X1936623Y5494604D01*
G01X1936623Y5479110D01*
G01X1939671Y5469712D01*
G01X1942719Y5463616D01*
G01X1949069Y5457266D01*
G01X1955165Y5454218D01*
G01X1967611Y5454218D01*
G01X1973707Y5457266D01*
G01X1980057Y5463616D01*
G01X1983105Y5469712D01*
G01X2013331Y5506796D02*
G01X2019427Y5510098D01*
G01X2028571Y5519242D01*
G01X2028571Y5454218D01*
G01X2074037Y5519242D02*
G01X2064893Y5516194D01*
G01X2061845Y5510098D01*
G01X2061845Y5503748D01*
G01X2064893Y5497652D01*
G01X2070989Y5494604D01*
G01X2083435Y5491556D01*
G01X2092833Y5488254D01*
G01X2098929Y5482158D01*
G01X2101977Y5476062D01*
G01X2101977Y5466664D01*
G01X2098929Y5460568D01*
G01X2095881Y5457266D01*
G01X2086483Y5454218D01*
G01X2074037Y5454218D01*
G01X2064893Y5457266D01*
G01X2061845Y5460568D01*
G01X2058797Y5466664D01*
G01X2058797Y5476062D01*
G01X2061845Y5482158D01*
G01X2067941Y5488254D01*
G01X2077339Y5491556D01*
G01X2089531Y5494604D01*
G01X2095881Y5497652D01*
G01X2098929Y5503748D01*
G01X2098929Y5510098D01*
G01X2095881Y5516194D01*
G01X2086483Y5519242D01*
G01X2074037Y5519242D01*
G01X3095371Y8413814D02*
G01X3098419Y8407464D01*
G01X3104769Y8401368D01*
G01X3110865Y8398320D01*
G01X3123311Y8398320D01*
G01X3129407Y8401368D01*
G01X3135757Y8407464D01*
G01X3138805Y8413814D01*
G01X3141853Y8422958D01*
G01X3141853Y8438452D01*
G01X3138805Y8447850D01*
G01X3135757Y8453946D01*
G01X3129407Y8460296D01*
G01X3123311Y8463344D01*
G01X3110865Y8463344D01*
G01X3104769Y8460296D01*
G01X3098419Y8453946D01*
G01X3095371Y8447850D01*
G01X3065145Y8410766D02*
G01X3059049Y8407464D01*
G01X3049905Y8398320D01*
G01X3049905Y8463344D01*
G01X2979547Y8419910D02*
G01X2982595Y8429308D01*
G01X2988945Y8435404D01*
G01X2998089Y8438452D01*
G01X3001137Y8438452D01*
G01X3010535Y8435404D01*
G01X3016631Y8429308D01*
G01X3019679Y8419910D01*
G01X3019679Y8416862D01*
G01X3016631Y8407464D01*
G01X3010535Y8401368D01*
G01X3001137Y8398320D01*
G01X2998089Y8398320D01*
G01X2988945Y8401368D01*
G01X2982595Y8407464D01*
G01X2979547Y8419910D01*
G01X2979547Y8435404D01*
G01X2982595Y8450898D01*
G01X2988945Y8460296D01*
G01X2998089Y8463344D01*
G01X3004439Y8463344D01*
G01X3013583Y8460296D01*
G01X3016631Y8453946D01*
G01X6133465Y2760127D02*
G01X6136513Y2753777D01*
G01X6142863Y2747681D01*
G01X6148959Y2744633D01*
G01X6161405Y2744633D01*
G01X6167501Y2747681D01*
G01X6173851Y2753777D01*
G01X6176899Y2760127D01*
G01X6179947Y2769271D01*
G01X6179947Y2784765D01*
G01X6176899Y2794163D01*
G01X6173851Y2800259D01*
G01X6167501Y2806609D01*
G01X6161405Y2809657D01*
G01X6148959Y2809657D01*
G01X6142863Y2806609D01*
G01X6136513Y2800259D01*
G01X6133465Y2794163D01*
G01X6100191Y2760127D02*
G01X6100191Y2757079D01*
G01X6097143Y2750729D01*
G01X6094095Y2747681D01*
G01X6087999Y2744633D01*
G01X6075553Y2744633D01*
G01X6069203Y2747681D01*
G01X6066155Y2750729D01*
G01X6063107Y2757079D01*
G01X6063107Y2763175D01*
G01X6066155Y2769271D01*
G01X6072505Y2778669D01*
G01X6103239Y2809657D01*
G01X6060059Y2809657D01*
G01X6011291Y2744633D02*
G01X6020689Y2747681D01*
G01X6026785Y2757079D01*
G01X6029833Y2772319D01*
G01X6029833Y2781717D01*
G01X6026785Y2797211D01*
G01X6020689Y2806609D01*
G01X6011291Y2809657D01*
G01X6005195Y2809657D01*
G01X5995797Y2806609D01*
G01X5989701Y2797211D01*
G01X5986653Y2781717D01*
G01X5986653Y2772319D01*
G01X5989701Y2757079D01*
G01X5995797Y2747681D01*
G01X6005195Y2744633D01*
G01X6011291Y2744633D01*
G01X6605905Y7960551D02*
G01X6602857Y7966901D01*
G01X6596507Y7972997D01*
G01X6590411Y7976045D01*
G01X6577965Y7976045D01*
G01X6571869Y7972997D01*
G01X6565519Y7966901D01*
G01X6562471Y7960551D01*
G01X6559423Y7951407D01*
G01X6559423Y7935913D01*
G01X6562471Y7926515D01*
G01X6565519Y7920419D01*
G01X6571869Y7914069D01*
G01X6577965Y7911021D01*
G01X6590411Y7911021D01*
G01X6596507Y7914069D01*
G01X6602857Y7920419D01*
G01X6605905Y7926515D01*
G01X6639179Y7960551D02*
G01X6639179Y7963599D01*
G01X6642227Y7969949D01*
G01X6645275Y7972997D01*
G01X6651371Y7976045D01*
G01X6663817Y7976045D01*
G01X6670167Y7972997D01*
G01X6673215Y7969949D01*
G01X6676263Y7963599D01*
G01X6676263Y7957503D01*
G01X6673215Y7951407D01*
G01X6666865Y7942009D01*
G01X6636131Y7911021D01*
G01X6679311Y7911021D01*
G01X6709537Y7963599D02*
G01X6715633Y7966901D01*
G01X6724777Y7976045D01*
G01X6724777Y7911021D01*
G01X5320665Y8439214D02*
G01X5323713Y8432864D01*
G01X5330063Y8426768D01*
G01X5336159Y8423720D01*
G01X5348605Y8423720D01*
G01X5354701Y8426768D01*
G01X5361051Y8432864D01*
G01X5364099Y8439214D01*
G01X5367147Y8448358D01*
G01X5367147Y8463852D01*
G01X5364099Y8473250D01*
G01X5361051Y8479346D01*
G01X5354701Y8485696D01*
G01X5348605Y8488744D01*
G01X5336159Y8488744D01*
G01X5330063Y8485696D01*
G01X5323713Y8479346D01*
G01X5320665Y8473250D01*
G01X5287391Y8439214D02*
G01X5287391Y8436166D01*
G01X5284343Y8429816D01*
G01X5281295Y8426768D01*
G01X5275199Y8423720D01*
G01X5262753Y8423720D01*
G01X5256403Y8426768D01*
G01X5253355Y8429816D01*
G01X5250307Y8436166D01*
G01X5250307Y8442262D01*
G01X5253355Y8448358D01*
G01X5259705Y8457756D01*
G01X5290439Y8488744D01*
G01X5247259Y8488744D01*
G01X5213985Y8439214D02*
G01X5213985Y8436166D01*
G01X5210937Y8429816D01*
G01X5207889Y8426768D01*
G01X5201793Y8423720D01*
G01X5189347Y8423720D01*
G01X5182997Y8426768D01*
G01X5179949Y8429816D01*
G01X5176901Y8436166D01*
G01X5176901Y8442262D01*
G01X5179949Y8448358D01*
G01X5186299Y8457756D01*
G01X5217033Y8488744D01*
G01X5173853Y8488744D01*
G01X6087618Y3466742D02*
G01X6093968Y3469790D01*
G01X6100064Y3476140D01*
G01X6103112Y3482236D01*
G01X6103112Y3494682D01*
G01X6100064Y3500778D01*
G01X6093968Y3507128D01*
G01X6087618Y3510176D01*
G01X6078474Y3513224D01*
G01X6062980Y3513224D01*
G01X6053582Y3510176D01*
G01X6047486Y3507128D01*
G01X6041136Y3500778D01*
G01X6038088Y3494682D01*
G01X6038088Y3482236D01*
G01X6041136Y3476140D01*
G01X6047486Y3469790D01*
G01X6053582Y3466742D01*
G01X6087618Y3433468D02*
G01X6090666Y3433468D01*
G01X6097016Y3430420D01*
G01X6100064Y3427372D01*
G01X6103112Y3421276D01*
G01X6103112Y3408830D01*
G01X6100064Y3402480D01*
G01X6097016Y3399432D01*
G01X6090666Y3396384D01*
G01X6084570Y3396384D01*
G01X6078474Y3399432D01*
G01X6069076Y3405782D01*
G01X6038088Y3436516D01*
G01X6038088Y3393336D01*
G01X6103112Y3357014D02*
G01X6103112Y3322978D01*
G01X6078474Y3341520D01*
G01X6078474Y3332376D01*
G01X6075426Y3326026D01*
G01X6072124Y3322978D01*
G01X6062980Y3319930D01*
G01X6056630Y3319930D01*
G01X6047486Y3322978D01*
G01X6041136Y3329074D01*
G01X6038088Y3338472D01*
G01X6038088Y3347870D01*
G01X6041136Y3357014D01*
G01X6044438Y3360062D01*
G01X6050534Y3363110D01*
G01X5690489Y5405415D02*
G01X5693537Y5399065D01*
G01X5699887Y5392969D01*
G01X5705983Y5389921D01*
G01X5718429Y5389921D01*
G01X5724525Y5392969D01*
G01X5730875Y5399065D01*
G01X5733923Y5405415D01*
G01X5736971Y5414559D01*
G01X5736971Y5430053D01*
G01X5733923Y5439451D01*
G01X5730875Y5445547D01*
G01X5724525Y5451897D01*
G01X5718429Y5454945D01*
G01X5705983Y5454945D01*
G01X5699887Y5451897D01*
G01X5693537Y5445547D01*
G01X5690489Y5439451D01*
G01X5657215Y5405415D02*
G01X5657215Y5402367D01*
G01X5654167Y5396017D01*
G01X5651119Y5392969D01*
G01X5645023Y5389921D01*
G01X5632577Y5389921D01*
G01X5626227Y5392969D01*
G01X5623179Y5396017D01*
G01X5620131Y5402367D01*
G01X5620131Y5408463D01*
G01X5623179Y5414559D01*
G01X5629529Y5423957D01*
G01X5660263Y5454945D01*
G01X5617083Y5454945D01*
G01X5556123Y5389921D02*
G01X5586857Y5433101D01*
G01X5540629Y5433101D01*
G01X5556123Y5389921D02*
G01X5556123Y5454945D01*
G01X6621076Y2554174D02*
G01X6627426Y2557222D01*
G01X6633522Y2563572D01*
G01X6636570Y2569668D01*
G01X6636570Y2582114D01*
G01X6633522Y2588210D01*
G01X6627426Y2594560D01*
G01X6621076Y2597608D01*
G01X6611932Y2600656D01*
G01X6596438Y2600656D01*
G01X6587040Y2597608D01*
G01X6580944Y2594560D01*
G01X6574594Y2588210D01*
G01X6571546Y2582114D01*
G01X6571546Y2569668D01*
G01X6574594Y2563572D01*
G01X6580944Y2557222D01*
G01X6587040Y2554174D01*
G01X6621076Y2520900D02*
G01X6624124Y2520900D01*
G01X6630474Y2517852D01*
G01X6633522Y2514804D01*
G01X6636570Y2508708D01*
G01X6636570Y2496262D01*
G01X6633522Y2489912D01*
G01X6630474Y2486864D01*
G01X6624124Y2483816D01*
G01X6618028Y2483816D01*
G01X6611932Y2486864D01*
G01X6602534Y2493214D01*
G01X6571546Y2523948D01*
G01X6571546Y2480768D01*
G01X6627426Y2413458D02*
G01X6633522Y2416506D01*
G01X6636570Y2425904D01*
G01X6636570Y2432000D01*
G01X6633522Y2441398D01*
G01X6624124Y2447494D01*
G01X6608884Y2450542D01*
G01X6593390Y2450542D01*
G01X6580944Y2447494D01*
G01X6574594Y2441398D01*
G01X6571546Y2432000D01*
G01X6571546Y2428952D01*
G01X6574594Y2419808D01*
G01X6580944Y2413458D01*
G01X6590088Y2410410D01*
G01X6593390Y2410410D01*
G01X6602534Y2413458D01*
G01X6608884Y2419808D01*
G01X6611932Y2428952D01*
G01X6611932Y2432000D01*
G01X6608884Y2441398D01*
G01X6602534Y2447494D01*
G01X6593390Y2450542D01*
G01X6637782Y5276132D02*
G01X6631432Y5273084D01*
G01X6625336Y5266734D01*
G01X6622288Y5260638D01*
G01X6622288Y5248192D01*
G01X6625336Y5242096D01*
G01X6631432Y5235746D01*
G01X6637782Y5232698D01*
G01X6646926Y5229650D01*
G01X6662420Y5229650D01*
G01X6671818Y5232698D01*
G01X6677914Y5235746D01*
G01X6684264Y5242096D01*
G01X6687312Y5248192D01*
G01X6687312Y5260638D01*
G01X6684264Y5266734D01*
G01X6677914Y5273084D01*
G01X6671818Y5276132D01*
G01X6637782Y5309406D02*
G01X6634734Y5309406D01*
G01X6628384Y5312454D01*
G01X6625336Y5315502D01*
G01X6622288Y5321598D01*
G01X6622288Y5334044D01*
G01X6625336Y5340394D01*
G01X6628384Y5343442D01*
G01X6634734Y5346490D01*
G01X6640830Y5346490D01*
G01X6646926Y5343442D01*
G01X6656324Y5337092D01*
G01X6687312Y5306358D01*
G01X6687312Y5349538D01*
G01X6622288Y5422944D02*
G01X6687312Y5391956D01*
G01X6622288Y5379764D02*
G01X6622288Y5422944D01*
G01X6053582Y3709312D02*
G01X6047232Y3706264D01*
G01X6041136Y3699914D01*
G01X6038088Y3693818D01*
G01X6038088Y3681372D01*
G01X6041136Y3675276D01*
G01X6047232Y3668926D01*
G01X6053582Y3665878D01*
G01X6062726Y3662830D01*
G01X6078220Y3662830D01*
G01X6087618Y3665878D01*
G01X6093714Y3668926D01*
G01X6100064Y3675276D01*
G01X6103112Y3681372D01*
G01X6103112Y3693818D01*
G01X6100064Y3699914D01*
G01X6093714Y3706264D01*
G01X6087618Y3709312D01*
G01X6053582Y3742586D02*
G01X6050534Y3742586D01*
G01X6044184Y3745634D01*
G01X6041136Y3748682D01*
G01X6038088Y3754778D01*
G01X6038088Y3767224D01*
G01X6041136Y3773574D01*
G01X6044184Y3776622D01*
G01X6050534Y3779670D01*
G01X6056630Y3779670D01*
G01X6062726Y3776622D01*
G01X6072124Y3770272D01*
G01X6103112Y3739538D01*
G01X6103112Y3782718D01*
G01X6059678Y3853076D02*
G01X6069076Y3850028D01*
G01X6075172Y3843678D01*
G01X6078220Y3834534D01*
G01X6078220Y3831486D01*
G01X6075172Y3822088D01*
G01X6069076Y3815992D01*
G01X6059678Y3812944D01*
G01X6056630Y3812944D01*
G01X6047232Y3815992D01*
G01X6041136Y3822088D01*
G01X6038088Y3831486D01*
G01X6038088Y3834534D01*
G01X6041136Y3843678D01*
G01X6047232Y3850028D01*
G01X6059678Y3853076D01*
G01X6075172Y3853076D01*
G01X6090666Y3850028D01*
G01X6100064Y3843678D01*
G01X6103112Y3834534D01*
G01X6103112Y3828184D01*
G01X6100064Y3819040D01*
G01X6093714Y3815992D01*
G54D11*
G01X3694938Y4808728D02*
G01X3694938Y4712970D01*
G01X3647186Y4760976D02*
G01X3742944Y4760976D01*
G01X4459986Y4748276D02*
G01X4555744Y4748276D01*
G54D10*
G01X4115435Y5491048D02*
G01X4112387Y5497398D01*
G01X4106037Y5503494D01*
G01X4099941Y5506542D01*
G01X4087495Y5506542D01*
G01X4081399Y5503494D01*
G01X4075049Y5497398D01*
G01X4072001Y5491048D01*
G01X4068953Y5481904D01*
G01X4068953Y5466410D01*
G01X4072001Y5457012D01*
G01X4075049Y5450916D01*
G01X4081399Y5444566D01*
G01X4087495Y5441518D01*
G01X4099941Y5441518D01*
G01X4106037Y5444566D01*
G01X4112387Y5450916D01*
G01X4115435Y5457012D01*
G01X4151757Y5506542D02*
G01X4185793Y5506542D01*
G01X4167251Y5481904D01*
G01X4176395Y5481904D01*
G01X4182745Y5478856D01*
G01X4185793Y5475554D01*
G01X4188841Y5466410D01*
G01X4188841Y5460060D01*
G01X4185793Y5450916D01*
G01X4179697Y5444566D01*
G01X4170299Y5441518D01*
G01X4160901Y5441518D01*
G01X4151757Y5444566D01*
G01X4148709Y5447868D01*
G01X4145661Y5453964D01*
G01X4237609Y5506542D02*
G01X4228211Y5503494D01*
G01X4222115Y5494096D01*
G01X4219067Y5478856D01*
G01X4219067Y5469458D01*
G01X4222115Y5453964D01*
G01X4228211Y5444566D01*
G01X4237609Y5441518D01*
G01X4243705Y5441518D01*
G01X4253103Y5444566D01*
G01X4259199Y5453964D01*
G01X4262247Y5469458D01*
G01X4262247Y5478856D01*
G01X4259199Y5494096D01*
G01X4253103Y5503494D01*
G01X4243705Y5506542D01*
G01X4237609Y5506542D01*
G01X893318Y6569192D02*
G01X899668Y6572240D01*
G01X905764Y6578590D01*
G01X908812Y6584686D01*
G01X908812Y6597132D01*
G01X905764Y6603228D01*
G01X899668Y6609578D01*
G01X893318Y6612626D01*
G01X884174Y6615674D01*
G01X868680Y6615674D01*
G01X859282Y6612626D01*
G01X853186Y6609578D01*
G01X846836Y6603228D01*
G01X843788Y6597132D01*
G01X843788Y6584686D01*
G01X846836Y6578590D01*
G01X853186Y6572240D01*
G01X859282Y6569192D01*
G01X908812Y6532870D02*
G01X908812Y6498834D01*
G01X884174Y6517376D01*
G01X884174Y6508232D01*
G01X881126Y6501882D01*
G01X877824Y6498834D01*
G01X868680Y6495786D01*
G01X862330Y6495786D01*
G01X853186Y6498834D01*
G01X846836Y6504930D01*
G01X843788Y6514328D01*
G01X843788Y6523726D01*
G01X846836Y6532870D01*
G01X850138Y6535918D01*
G01X856234Y6538966D01*
G01X896366Y6465560D02*
G01X899668Y6459464D01*
G01X908812Y6450320D01*
G01X843788Y6450320D01*
G01X8974582Y3382355D02*
G01X8968232Y3379307D01*
G01X8962136Y3372957D01*
G01X8959088Y3366861D01*
G01X8959088Y3354415D01*
G01X8962136Y3348319D01*
G01X8968232Y3341969D01*
G01X8974582Y3338921D01*
G01X8983726Y3335873D01*
G01X8999220Y3335873D01*
G01X9008618Y3338921D01*
G01X9014714Y3341969D01*
G01X9021064Y3348319D01*
G01X9024112Y3354415D01*
G01X9024112Y3366861D01*
G01X9021064Y3372957D01*
G01X9014714Y3379307D01*
G01X9008618Y3382355D01*
G01X8959088Y3418677D02*
G01X8959088Y3452713D01*
G01X8983726Y3434171D01*
G01X8983726Y3443315D01*
G01X8986774Y3449665D01*
G01X8990076Y3452713D01*
G01X8999220Y3455761D01*
G01X9005570Y3455761D01*
G01X9014714Y3452713D01*
G01X9021064Y3446617D01*
G01X9024112Y3437219D01*
G01X9024112Y3427821D01*
G01X9021064Y3418677D01*
G01X9017762Y3415629D01*
G01X9011666Y3412581D01*
G01X8974582Y3489035D02*
G01X8971534Y3489035D01*
G01X8965184Y3492083D01*
G01X8962136Y3495131D01*
G01X8959088Y3501227D01*
G01X8959088Y3513673D01*
G01X8962136Y3520023D01*
G01X8965184Y3523071D01*
G01X8971534Y3526119D01*
G01X8977630Y3526119D01*
G01X8983726Y3523071D01*
G01X8993124Y3516721D01*
G01X9024112Y3485987D01*
G01X9024112Y3529167D01*
G01X5675930Y2817150D02*
G01X5672882Y2823500D01*
G01X5666532Y2829596D01*
G01X5660436Y2832644D01*
G01X5647990Y2832644D01*
G01X5641894Y2829596D01*
G01X5635544Y2823500D01*
G01X5632496Y2817150D01*
G01X5629448Y2808006D01*
G01X5629448Y2792512D01*
G01X5632496Y2783114D01*
G01X5635544Y2777018D01*
G01X5641894Y2770668D01*
G01X5647990Y2767620D01*
G01X5660436Y2767620D01*
G01X5666532Y2770668D01*
G01X5672882Y2777018D01*
G01X5675930Y2783114D01*
G01X5712252Y2832644D02*
G01X5746288Y2832644D01*
G01X5727746Y2808006D01*
G01X5736890Y2808006D01*
G01X5743240Y2804958D01*
G01X5746288Y2801656D01*
G01X5749336Y2792512D01*
G01X5749336Y2786162D01*
G01X5746288Y2777018D01*
G01X5740192Y2770668D01*
G01X5730794Y2767620D01*
G01X5721396Y2767620D01*
G01X5712252Y2770668D01*
G01X5709204Y2773970D01*
G01X5706156Y2780066D01*
G01X5785658Y2832644D02*
G01X5819694Y2832644D01*
G01X5801152Y2808006D01*
G01X5810296Y2808006D01*
G01X5816646Y2804958D01*
G01X5819694Y2801656D01*
G01X5822742Y2792512D01*
G01X5822742Y2786162D01*
G01X5819694Y2777018D01*
G01X5813598Y2770668D01*
G01X5804200Y2767620D01*
G01X5794802Y2767620D01*
G01X5785658Y2770668D01*
G01X5782610Y2773970D01*
G01X5779562Y2780066D01*
G01X11656145Y4918984D02*
G01X11662495Y4922032D01*
G01X11668591Y4928382D01*
G01X11671639Y4934478D01*
G01X11671639Y4946924D01*
G01X11668591Y4953020D01*
G01X11662495Y4959370D01*
G01X11656145Y4962418D01*
G01X11647001Y4965466D01*
G01X11631507Y4965466D01*
G01X11622109Y4962418D01*
G01X11616013Y4959370D01*
G01X11609663Y4953020D01*
G01X11606615Y4946924D01*
G01X11606615Y4934478D01*
G01X11609663Y4928382D01*
G01X11616013Y4922032D01*
G01X11622109Y4918984D01*
G01X11671639Y4882662D02*
G01X11671639Y4848626D01*
G01X11647001Y4867168D01*
G01X11647001Y4858024D01*
G01X11643953Y4851674D01*
G01X11640651Y4848626D01*
G01X11631507Y4845578D01*
G01X11625157Y4845578D01*
G01X11616013Y4848626D01*
G01X11609663Y4854722D01*
G01X11606615Y4864120D01*
G01X11606615Y4873518D01*
G01X11609663Y4882662D01*
G01X11612965Y4885710D01*
G01X11619061Y4888758D01*
G01X11671639Y4784618D02*
G01X11628459Y4815352D01*
G01X11628459Y4769124D01*
G01X11671639Y4784618D02*
G01X11606615Y4784618D01*
G01X12266534Y5333002D02*
G01X12260184Y5329954D01*
G01X12254088Y5323604D01*
G01X12251040Y5317508D01*
G01X12251040Y5305062D01*
G01X12254088Y5298966D01*
G01X12260184Y5292616D01*
G01X12266534Y5289568D01*
G01X12275678Y5286520D01*
G01X12291172Y5286520D01*
G01X12300570Y5289568D01*
G01X12306666Y5292616D01*
G01X12313016Y5298966D01*
G01X12316064Y5305062D01*
G01X12316064Y5317508D01*
G01X12313016Y5323604D01*
G01X12306666Y5329954D01*
G01X12300570Y5333002D01*
G01X12251040Y5369324D02*
G01X12251040Y5403360D01*
G01X12275678Y5384818D01*
G01X12275678Y5393962D01*
G01X12278726Y5400312D01*
G01X12282028Y5403360D01*
G01X12291172Y5406408D01*
G01X12297522Y5406408D01*
G01X12306666Y5403360D01*
G01X12313016Y5397264D01*
G01X12316064Y5387866D01*
G01X12316064Y5378468D01*
G01X12313016Y5369324D01*
G01X12309714Y5366276D01*
G01X12303618Y5363228D01*
G01X12260184Y5473718D02*
G01X12254088Y5470670D01*
G01X12251040Y5461272D01*
G01X12251040Y5455176D01*
G01X12254088Y5445778D01*
G01X12263486Y5439682D01*
G01X12278726Y5436634D01*
G01X12294220Y5436634D01*
G01X12306666Y5439682D01*
G01X12313016Y5445778D01*
G01X12316064Y5455176D01*
G01X12316064Y5458224D01*
G01X12313016Y5467368D01*
G01X12306666Y5473718D01*
G01X12297522Y5476766D01*
G01X12294220Y5476766D01*
G01X12285076Y5473718D01*
G01X12278726Y5467368D01*
G01X12275678Y5458224D01*
G01X12275678Y5455176D01*
G01X12278726Y5445778D01*
G01X12285076Y5439682D01*
G01X12294220Y5436634D01*
G01X6430518Y3809642D02*
G01X6436868Y3812690D01*
G01X6442964Y3819040D01*
G01X6446012Y3825136D01*
G01X6446012Y3837582D01*
G01X6442964Y3843678D01*
G01X6436868Y3850028D01*
G01X6430518Y3853076D01*
G01X6421374Y3856124D01*
G01X6405880Y3856124D01*
G01X6396482Y3853076D01*
G01X6390386Y3850028D01*
G01X6384036Y3843678D01*
G01X6380988Y3837582D01*
G01X6380988Y3825136D01*
G01X6384036Y3819040D01*
G01X6390386Y3812690D01*
G01X6396482Y3809642D01*
G01X6446012Y3773320D02*
G01X6446012Y3739284D01*
G01X6421374Y3757826D01*
G01X6421374Y3748682D01*
G01X6418326Y3742332D01*
G01X6415024Y3739284D01*
G01X6405880Y3736236D01*
G01X6399530Y3736236D01*
G01X6390386Y3739284D01*
G01X6384036Y3745380D01*
G01X6380988Y3754778D01*
G01X6380988Y3764176D01*
G01X6384036Y3773320D01*
G01X6387338Y3776368D01*
G01X6393434Y3779416D01*
G01X6446012Y3662830D02*
G01X6380988Y3693818D01*
G01X6446012Y3706010D02*
G01X6446012Y3662830D01*
G01X6838592Y3798212D02*
G01X6832242Y3795164D01*
G01X6826146Y3788814D01*
G01X6823098Y3782718D01*
G01X6823098Y3770272D01*
G01X6826146Y3764176D01*
G01X6832242Y3757826D01*
G01X6838592Y3754778D01*
G01X6847736Y3751730D01*
G01X6863230Y3751730D01*
G01X6872628Y3754778D01*
G01X6878724Y3757826D01*
G01X6885074Y3764176D01*
G01X6888122Y3770272D01*
G01X6888122Y3782718D01*
G01X6885074Y3788814D01*
G01X6878724Y3795164D01*
G01X6872628Y3798212D01*
G01X6823098Y3834534D02*
G01X6823098Y3868570D01*
G01X6847736Y3850028D01*
G01X6847736Y3859172D01*
G01X6850784Y3865522D01*
G01X6854086Y3868570D01*
G01X6863230Y3871618D01*
G01X6869580Y3871618D01*
G01X6878724Y3868570D01*
G01X6885074Y3862474D01*
G01X6888122Y3853076D01*
G01X6888122Y3843678D01*
G01X6885074Y3834534D01*
G01X6881772Y3831486D01*
G01X6875676Y3828438D01*
G01X6823098Y3917084D02*
G01X6826146Y3907940D01*
G01X6832242Y3904892D01*
G01X6838592Y3904892D01*
G01X6844688Y3907940D01*
G01X6847736Y3914036D01*
G01X6850784Y3926482D01*
G01X6854086Y3935880D01*
G01X6860182Y3941976D01*
G01X6866278Y3945024D01*
G01X6875676Y3945024D01*
G01X6881772Y3941976D01*
G01X6885074Y3938928D01*
G01X6888122Y3929530D01*
G01X6888122Y3917084D01*
G01X6885074Y3907940D01*
G01X6881772Y3904892D01*
G01X6875676Y3901844D01*
G01X6866278Y3901844D01*
G01X6860182Y3904892D01*
G01X6854086Y3910988D01*
G01X6850784Y3920386D01*
G01X6847736Y3932578D01*
G01X6844688Y3938928D01*
G01X6838592Y3941976D01*
G01X6832242Y3941976D01*
G01X6826146Y3938928D01*
G01X6823098Y3929530D01*
G01X6823098Y3917084D01*
G01X6240018Y3463694D02*
G01X6246368Y3466742D01*
G01X6252464Y3473092D01*
G01X6255512Y3479188D01*
G01X6255512Y3491634D01*
G01X6252464Y3497730D01*
G01X6246368Y3504080D01*
G01X6240018Y3507128D01*
G01X6230874Y3510176D01*
G01X6215380Y3510176D01*
G01X6205982Y3507128D01*
G01X6199886Y3504080D01*
G01X6193536Y3497730D01*
G01X6190488Y3491634D01*
G01X6190488Y3479188D01*
G01X6193536Y3473092D01*
G01X6199886Y3466742D01*
G01X6205982Y3463694D01*
G01X6255512Y3427372D02*
G01X6255512Y3393336D01*
G01X6230874Y3411878D01*
G01X6230874Y3402734D01*
G01X6227826Y3396384D01*
G01X6224524Y3393336D01*
G01X6215380Y3390288D01*
G01X6209030Y3390288D01*
G01X6199886Y3393336D01*
G01X6193536Y3399432D01*
G01X6190488Y3408830D01*
G01X6190488Y3418228D01*
G01X6193536Y3427372D01*
G01X6196838Y3430420D01*
G01X6202934Y3433468D01*
G01X6233922Y3319930D02*
G01X6224524Y3322978D01*
G01X6218428Y3329328D01*
G01X6215380Y3338472D01*
G01X6215380Y3341520D01*
G01X6218428Y3350918D01*
G01X6224524Y3357014D01*
G01X6233922Y3360062D01*
G01X6236970Y3360062D01*
G01X6246368Y3357014D01*
G01X6252464Y3350918D01*
G01X6255512Y3341520D01*
G01X6255512Y3338472D01*
G01X6252464Y3329328D01*
G01X6246368Y3322978D01*
G01X6233922Y3319930D01*
G01X6218428Y3319930D01*
G01X6202934Y3322978D01*
G01X6193536Y3329328D01*
G01X6190488Y3338472D01*
G01X6190488Y3344822D01*
G01X6193536Y3353966D01*
G01X6199886Y3357014D01*
G01X7319518Y5641490D02*
G01X7325868Y5644538D01*
G01X7331964Y5650888D01*
G01X7335012Y5656984D01*
G01X7335012Y5669430D01*
G01X7331964Y5675526D01*
G01X7325868Y5681876D01*
G01X7319518Y5684924D01*
G01X7310374Y5687972D01*
G01X7294880Y5687972D01*
G01X7285482Y5684924D01*
G01X7279386Y5681876D01*
G01X7273036Y5675526D01*
G01X7269988Y5669430D01*
G01X7269988Y5656984D01*
G01X7273036Y5650888D01*
G01X7279386Y5644538D01*
G01X7285482Y5641490D01*
G01X7335012Y5580530D02*
G01X7291832Y5611264D01*
G01X7291832Y5565036D01*
G01X7335012Y5580530D02*
G01X7269988Y5580530D01*
G01X7335012Y5516268D02*
G01X7331964Y5525666D01*
G01X7322566Y5531762D01*
G01X7307326Y5534810D01*
G01X7297928Y5534810D01*
G01X7282434Y5531762D01*
G01X7273036Y5525666D01*
G01X7269988Y5516268D01*
G01X7269988Y5510172D01*
G01X7273036Y5500774D01*
G01X7282434Y5494678D01*
G01X7297928Y5491630D01*
G01X7307326Y5491630D01*
G01X7322566Y5494678D01*
G01X7331964Y5500774D01*
G01X7335012Y5510172D01*
G01X7335012Y5516268D01*
G01X12300570Y5865640D02*
G01X12306920Y5868688D01*
G01X12313016Y5875038D01*
G01X12316064Y5881134D01*
G01X12316064Y5893580D01*
G01X12313016Y5899676D01*
G01X12306920Y5906026D01*
G01X12300570Y5909074D01*
G01X12291426Y5912122D01*
G01X12275932Y5912122D01*
G01X12266534Y5909074D01*
G01X12260438Y5906026D01*
G01X12254088Y5899676D01*
G01X12251040Y5893580D01*
G01X12251040Y5881134D01*
G01X12254088Y5875038D01*
G01X12260438Y5868688D01*
G01X12266534Y5865640D01*
G01X12316064Y5804680D02*
G01X12272884Y5835414D01*
G01X12272884Y5789186D01*
G01X12316064Y5804680D02*
G01X12251040Y5804680D01*
G01X12303618Y5758960D02*
G01X12306920Y5752864D01*
G01X12316064Y5743720D01*
G01X12251040Y5743720D01*
G01X12368136Y8116994D02*
G01X12365088Y8123344D01*
G01X12358738Y8129440D01*
G01X12352642Y8132488D01*
G01X12340196Y8132488D01*
G01X12334100Y8129440D01*
G01X12327750Y8123344D01*
G01X12324702Y8116994D01*
G01X12321654Y8107850D01*
G01X12321654Y8092356D01*
G01X12324702Y8082958D01*
G01X12327750Y8076862D01*
G01X12334100Y8070512D01*
G01X12340196Y8067464D01*
G01X12352642Y8067464D01*
G01X12358738Y8070512D01*
G01X12365088Y8076862D01*
G01X12368136Y8082958D01*
G01X12429096Y8132488D02*
G01X12398362Y8089308D01*
G01X12444590Y8089308D01*
G01X12429096Y8132488D02*
G01X12429096Y8067464D01*
G01X12477864Y8116994D02*
G01X12477864Y8120042D01*
G01X12480912Y8126392D01*
G01X12483960Y8129440D01*
G01X12490056Y8132488D01*
G01X12502502Y8132488D01*
G01X12508852Y8129440D01*
G01X12511900Y8126392D01*
G01X12514948Y8120042D01*
G01X12514948Y8113946D01*
G01X12511900Y8107850D01*
G01X12505550Y8098452D01*
G01X12474816Y8067464D01*
G01X12517996Y8067464D01*
G01X6988810Y8929243D02*
G01X6991858Y8922893D01*
G01X6998208Y8916797D01*
G01X7004304Y8913749D01*
G01X7016750Y8913749D01*
G01X7022846Y8916797D01*
G01X7029196Y8922893D01*
G01X7032244Y8929243D01*
G01X7035292Y8938387D01*
G01X7035292Y8953881D01*
G01X7032244Y8963279D01*
G01X7029196Y8969375D01*
G01X7022846Y8975725D01*
G01X7016750Y8978773D01*
G01X7004304Y8978773D01*
G01X6998208Y8975725D01*
G01X6991858Y8969375D01*
G01X6988810Y8963279D01*
G01X6958584Y8913749D02*
G01X6958584Y8978773D01*
G01X6958584Y8913749D02*
G01X6915404Y8978773D01*
G01X6915404Y8913749D02*
G01X6915404Y8978773D01*
G01X6885178Y8926195D02*
G01X6879082Y8922893D01*
G01X6869938Y8913749D01*
G01X6869938Y8978773D01*
G01X9693415Y8775954D02*
G01X9696463Y8769604D01*
G01X9702813Y8763508D01*
G01X9708909Y8760460D01*
G01X9721355Y8760460D01*
G01X9727451Y8763508D01*
G01X9733801Y8769604D01*
G01X9736849Y8775954D01*
G01X9739897Y8785098D01*
G01X9739897Y8800592D01*
G01X9736849Y8809990D01*
G01X9733801Y8816086D01*
G01X9727451Y8822436D01*
G01X9721355Y8825484D01*
G01X9708909Y8825484D01*
G01X9702813Y8822436D01*
G01X9696463Y8816086D01*
G01X9693415Y8809990D01*
G01X9663189Y8760460D02*
G01X9663189Y8825484D01*
G01X9663189Y8760460D02*
G01X9620009Y8825484D01*
G01X9620009Y8760460D02*
G01X9620009Y8825484D01*
G01X9586735Y8775954D02*
G01X9586735Y8772906D01*
G01X9583687Y8766556D01*
G01X9580639Y8763508D01*
G01X9574543Y8760460D01*
G01X9562097Y8760460D01*
G01X9555747Y8763508D01*
G01X9552699Y8766556D01*
G01X9549651Y8772906D01*
G01X9549651Y8779002D01*
G01X9552699Y8785098D01*
G01X9559049Y8794496D01*
G01X9589783Y8825484D01*
G01X9546603Y8825484D01*
G01X5887720Y1649730D02*
G01X5884672Y1656080D01*
G01X5878322Y1662176D01*
G01X5872226Y1665224D01*
G01X5859780Y1665224D01*
G01X5853684Y1662176D01*
G01X5847334Y1656080D01*
G01X5844286Y1649730D01*
G01X5841238Y1640586D01*
G01X5841238Y1625092D01*
G01X5844286Y1615694D01*
G01X5847334Y1609598D01*
G01X5853684Y1603248D01*
G01X5859780Y1600200D01*
G01X5872226Y1600200D01*
G01X5878322Y1603248D01*
G01X5884672Y1609598D01*
G01X5887720Y1615694D01*
G01X5917946Y1665224D02*
G01X5917946Y1600200D01*
G01X5917946Y1665224D02*
G01X5961126Y1600200D01*
G01X5961126Y1665224D02*
G01X5961126Y1600200D01*
G01X6028436Y1665224D02*
G01X5997448Y1665224D01*
G01X5994400Y1637538D01*
G01X5997448Y1640586D01*
G01X6006592Y1643634D01*
G01X6015990Y1643634D01*
G01X6025388Y1640586D01*
G01X6031484Y1634236D01*
G01X6034532Y1625092D01*
G01X6034532Y1618742D01*
G01X6031484Y1609598D01*
G01X6025388Y1603248D01*
G01X6015990Y1600200D01*
G01X6006592Y1600200D01*
G01X5997448Y1603248D01*
G01X5994400Y1606550D01*
G01X5991352Y1612646D01*
G01X12525756Y8713343D02*
G01X12528804Y8706993D01*
G01X12535154Y8700897D01*
G01X12541250Y8697849D01*
G01X12553696Y8697849D01*
G01X12559792Y8700897D01*
G01X12566142Y8706993D01*
G01X12569190Y8713343D01*
G01X12572238Y8722487D01*
G01X12572238Y8737981D01*
G01X12569190Y8747379D01*
G01X12566142Y8753475D01*
G01X12559792Y8759825D01*
G01X12553696Y8762873D01*
G01X12541250Y8762873D01*
G01X12535154Y8759825D01*
G01X12528804Y8753475D01*
G01X12525756Y8747379D01*
G01X12495530Y8697849D02*
G01X12495530Y8762873D01*
G01X12495530Y8697849D02*
G01X12452350Y8762873D01*
G01X12452350Y8697849D02*
G01X12452350Y8762873D01*
G01X12385040Y8706993D02*
G01X12388088Y8700897D01*
G01X12397486Y8697849D01*
G01X12403582Y8697849D01*
G01X12412980Y8700897D01*
G01X12419076Y8710295D01*
G01X12422124Y8725535D01*
G01X12422124Y8741029D01*
G01X12419076Y8753475D01*
G01X12412980Y8759825D01*
G01X12403582Y8762873D01*
G01X12400534Y8762873D01*
G01X12391390Y8759825D01*
G01X12385040Y8753475D01*
G01X12381992Y8744331D01*
G01X12381992Y8741029D01*
G01X12385040Y8731885D01*
G01X12391390Y8725535D01*
G01X12400534Y8722487D01*
G01X12403582Y8722487D01*
G01X12412980Y8725535D01*
G01X12419076Y8731885D01*
G01X12422124Y8741029D01*
G01X5797550Y5127904D02*
G01X5797550Y5062880D01*
G01X5797550Y5127904D02*
G01X5819140Y5127904D01*
G01X5828538Y5124856D01*
G01X5834634Y5118760D01*
G01X5837682Y5112410D01*
G01X5840984Y5103266D01*
G01X5840984Y5087772D01*
G01X5837682Y5078374D01*
G01X5834634Y5072278D01*
G01X5828538Y5065928D01*
G01X5819140Y5062880D01*
G01X5797550Y5062880D01*
G01X5871210Y5115458D02*
G01X5877306Y5118760D01*
G01X5886450Y5127904D01*
G01X5886450Y5062880D01*
G01X5735320Y2299884D02*
G01X5735320Y2364908D01*
G01X5735320Y2299884D02*
G01X5713730Y2299884D01*
G01X5704332Y2302932D01*
G01X5698236Y2309028D01*
G01X5695188Y2315378D01*
G01X5691886Y2324522D01*
G01X5691886Y2340016D01*
G01X5695188Y2349414D01*
G01X5698236Y2355510D01*
G01X5704332Y2361860D01*
G01X5713730Y2364908D01*
G01X5735320Y2364908D01*
G01X5658612Y2315378D02*
G01X5658612Y2312330D01*
G01X5655564Y2305980D01*
G01X5652516Y2302932D01*
G01X5646420Y2299884D01*
G01X5633974Y2299884D01*
G01X5627624Y2302932D01*
G01X5624576Y2305980D01*
G01X5621528Y2312330D01*
G01X5621528Y2318426D01*
G01X5624576Y2324522D01*
G01X5630926Y2333920D01*
G01X5661660Y2364908D01*
G01X5618480Y2364908D01*
G01X6077712Y2374567D02*
G01X6012688Y2374567D01*
G01X6077712Y2374567D02*
G01X6077712Y2352977D01*
G01X6074664Y2343579D01*
G01X6068568Y2337483D01*
G01X6062218Y2334435D01*
G01X6053074Y2331133D01*
G01X6037580Y2331133D01*
G01X6028182Y2334435D01*
G01X6022086Y2337483D01*
G01X6015736Y2343579D01*
G01X6012688Y2352977D01*
G01X6012688Y2374567D01*
G01X6077712Y2294811D02*
G01X6077712Y2260775D01*
G01X6053074Y2279317D01*
G01X6053074Y2270173D01*
G01X6050026Y2263823D01*
G01X6046724Y2260775D01*
G01X6037580Y2257727D01*
G01X6031230Y2257727D01*
G01X6022086Y2260775D01*
G01X6015736Y2266871D01*
G01X6012688Y2276269D01*
G01X6012688Y2285667D01*
G01X6015736Y2294811D01*
G01X6019038Y2297859D01*
G01X6025134Y2300907D01*
G01X5491988Y6817312D02*
G01X5557012Y6817312D01*
G01X5491988Y6817312D02*
G01X5491988Y6838902D01*
G01X5495036Y6848300D01*
G01X5501132Y6854396D01*
G01X5507482Y6857444D01*
G01X5516626Y6860746D01*
G01X5532120Y6860746D01*
G01X5541518Y6857444D01*
G01X5547614Y6854396D01*
G01X5553964Y6848300D01*
G01X5557012Y6838902D01*
G01X5557012Y6817312D01*
G01X5491988Y6921706D02*
G01X5535168Y6890972D01*
G01X5535168Y6937200D01*
G01X5491988Y6921706D02*
G01X5557012Y6921706D01*
G01X6101588Y6817312D02*
G01X6166612Y6817312D01*
G01X6101588Y6817312D02*
G01X6101588Y6838902D01*
G01X6104636Y6848300D01*
G01X6110732Y6854396D01*
G01X6117082Y6857444D01*
G01X6126226Y6860746D01*
G01X6141720Y6860746D01*
G01X6151118Y6857444D01*
G01X6157214Y6854396D01*
G01X6163564Y6848300D01*
G01X6166612Y6838902D01*
G01X6166612Y6817312D01*
G01X6101588Y6928056D02*
G01X6101588Y6897068D01*
G01X6129274Y6894020D01*
G01X6126226Y6897068D01*
G01X6123178Y6906212D01*
G01X6123178Y6915610D01*
G01X6126226Y6925008D01*
G01X6132576Y6931104D01*
G01X6141720Y6934152D01*
G01X6148070Y6934152D01*
G01X6157214Y6931104D01*
G01X6163564Y6925008D01*
G01X6166612Y6915610D01*
G01X6166612Y6906212D01*
G01X6163564Y6897068D01*
G01X6160262Y6894020D01*
G01X6154166Y6890972D01*
G01X9428988Y2688227D02*
G01X9494012Y2688227D01*
G01X9428988Y2688227D02*
G01X9428988Y2709817D01*
G01X9432036Y2719215D01*
G01X9438132Y2725311D01*
G01X9444482Y2728359D01*
G01X9453626Y2731661D01*
G01X9469120Y2731661D01*
G01X9478518Y2728359D01*
G01X9484614Y2725311D01*
G01X9490964Y2719215D01*
G01X9494012Y2709817D01*
G01X9494012Y2688227D01*
G01X9438132Y2798971D02*
G01X9432036Y2795923D01*
G01X9428988Y2786525D01*
G01X9428988Y2780429D01*
G01X9432036Y2771031D01*
G01X9441434Y2764935D01*
G01X9456674Y2761887D01*
G01X9472168Y2761887D01*
G01X9484614Y2764935D01*
G01X9490964Y2771031D01*
G01X9494012Y2780429D01*
G01X9494012Y2783477D01*
G01X9490964Y2792621D01*
G01X9484614Y2798971D01*
G01X9475470Y2802019D01*
G01X9472168Y2802019D01*
G01X9463024Y2798971D01*
G01X9456674Y2792621D01*
G01X9453626Y2783477D01*
G01X9453626Y2780429D01*
G01X9456674Y2771031D01*
G01X9463024Y2764935D01*
G01X9472168Y2761887D01*
G01X5735320Y2566584D02*
G01X5735320Y2631608D01*
G01X5735320Y2566584D02*
G01X5713730Y2566584D01*
G01X5704332Y2569632D01*
G01X5698236Y2575728D01*
G01X5695188Y2582078D01*
G01X5691886Y2591222D01*
G01X5691886Y2606716D01*
G01X5695188Y2616114D01*
G01X5698236Y2622210D01*
G01X5704332Y2628560D01*
G01X5713730Y2631608D01*
G01X5735320Y2631608D01*
G01X5618480Y2566584D02*
G01X5649468Y2631608D01*
G01X5661660Y2566584D02*
G01X5618480Y2566584D01*
G01X8871712Y5883617D02*
G01X8806688Y5883617D01*
G01X8871712Y5883617D02*
G01X8871712Y5862027D01*
G01X8868664Y5852629D01*
G01X8862568Y5846533D01*
G01X8856218Y5843485D01*
G01X8847074Y5840183D01*
G01X8831580Y5840183D01*
G01X8822182Y5843485D01*
G01X8816086Y5846533D01*
G01X8809736Y5852629D01*
G01X8806688Y5862027D01*
G01X8806688Y5883617D01*
G01X8850122Y5769825D02*
G01X8840724Y5772873D01*
G01X8834628Y5779223D01*
G01X8831580Y5788367D01*
G01X8831580Y5791415D01*
G01X8834628Y5800813D01*
G01X8840724Y5806909D01*
G01X8850122Y5809957D01*
G01X8853170Y5809957D01*
G01X8862568Y5806909D01*
G01X8868664Y5800813D01*
G01X8871712Y5791415D01*
G01X8871712Y5788367D01*
G01X8868664Y5779223D01*
G01X8862568Y5772873D01*
G01X8850122Y5769825D01*
G01X8834628Y5769825D01*
G01X8819134Y5772873D01*
G01X8809736Y5779223D01*
G01X8806688Y5788367D01*
G01X8806688Y5794717D01*
G01X8809736Y5803861D01*
G01X8816086Y5806909D01*
G01X5482714Y7881102D02*
G01X5482714Y7816078D01*
G01X5482714Y7881102D02*
G01X5504304Y7881102D01*
G01X5513702Y7878054D01*
G01X5519798Y7871958D01*
G01X5522846Y7865608D01*
G01X5526148Y7856464D01*
G01X5526148Y7840970D01*
G01X5522846Y7831572D01*
G01X5519798Y7825476D01*
G01X5513702Y7819126D01*
G01X5504304Y7816078D01*
G01X5482714Y7816078D01*
G01X5556374Y7868656D02*
G01X5562470Y7871958D01*
G01X5571614Y7881102D01*
G01X5571614Y7816078D01*
G01X5601840Y7868656D02*
G01X5607936Y7871958D01*
G01X5617080Y7881102D01*
G01X5617080Y7816078D01*
G01X5262753Y3988984D02*
G01X5262753Y4054008D01*
G01X5262753Y3988984D02*
G01X5241163Y3988984D01*
G01X5231765Y3992032D01*
G01X5225669Y3998128D01*
G01X5222621Y4004478D01*
G01X5219319Y4013622D01*
G01X5219319Y4029116D01*
G01X5222621Y4038514D01*
G01X5225669Y4044610D01*
G01X5231765Y4050960D01*
G01X5241163Y4054008D01*
G01X5262753Y4054008D01*
G01X5189093Y4001430D02*
G01X5182997Y3998128D01*
G01X5173853Y3988984D01*
G01X5173853Y4054008D01*
G01X5140579Y4004478D02*
G01X5140579Y4001430D01*
G01X5137531Y3995080D01*
G01X5134483Y3992032D01*
G01X5128387Y3988984D01*
G01X5115941Y3988984D01*
G01X5109591Y3992032D01*
G01X5106543Y3995080D01*
G01X5103495Y4001430D01*
G01X5103495Y4007526D01*
G01X5106543Y4013622D01*
G01X5112893Y4023020D01*
G01X5143627Y4054008D01*
G01X5100447Y4054008D01*
G01X6916547Y5013203D02*
G01X6916547Y4948179D01*
G01X6916547Y5013203D02*
G01X6938137Y5013203D01*
G01X6947535Y5010155D01*
G01X6953631Y5004059D01*
G01X6956679Y4997709D01*
G01X6959981Y4988565D01*
G01X6959981Y4973071D01*
G01X6956679Y4963673D01*
G01X6953631Y4957577D01*
G01X6947535Y4951227D01*
G01X6938137Y4948179D01*
G01X6916547Y4948179D01*
G01X6990207Y5000757D02*
G01X6996303Y5004059D01*
G01X7005447Y5013203D01*
G01X7005447Y4948179D01*
G01X7041769Y5013203D02*
G01X7075805Y5013203D01*
G01X7057263Y4988565D01*
G01X7066407Y4988565D01*
G01X7072757Y4985517D01*
G01X7075805Y4982215D01*
G01X7078853Y4973071D01*
G01X7078853Y4966721D01*
G01X7075805Y4957577D01*
G01X7069709Y4951227D01*
G01X7060311Y4948179D01*
G01X7050913Y4948179D01*
G01X7041769Y4951227D01*
G01X7038721Y4954529D01*
G01X7035673Y4960625D01*
G01X6560482Y8239648D02*
G01X6560482Y8174624D01*
G01X6560482Y8239648D02*
G01X6582072Y8239648D01*
G01X6591470Y8236600D01*
G01X6597566Y8230504D01*
G01X6600614Y8224154D01*
G01X6603916Y8215010D01*
G01X6603916Y8199516D01*
G01X6600614Y8190118D01*
G01X6597566Y8184022D01*
G01X6591470Y8177672D01*
G01X6582072Y8174624D01*
G01X6560482Y8174624D01*
G01X6634142Y8227202D02*
G01X6640238Y8230504D01*
G01X6649382Y8239648D01*
G01X6649382Y8174624D01*
G01X6710342Y8239648D02*
G01X6679608Y8196468D01*
G01X6725836Y8196468D01*
G01X6710342Y8239648D02*
G01X6710342Y8174624D01*
G01X4373499Y3411804D02*
G01X4373499Y3476828D01*
G01X4373499Y3411804D02*
G01X4333367Y3411804D01*
G01X4373499Y3442792D02*
G01X4348607Y3442792D01*
G01X4303141Y3424250D02*
G01X4297045Y3420948D01*
G01X4287901Y3411804D01*
G01X4287901Y3476828D01*
G01X1796669Y3411804D02*
G01X1796669Y3476828D01*
G01X1796669Y3411804D02*
G01X1756537Y3411804D01*
G01X1796669Y3442792D02*
G01X1771777Y3442792D01*
G01X1723263Y3427298D02*
G01X1723263Y3424250D01*
G01X1720215Y3417900D01*
G01X1717167Y3414852D01*
G01X1711071Y3411804D01*
G01X1698625Y3411804D01*
G01X1692275Y3414852D01*
G01X1689227Y3417900D01*
G01X1686179Y3424250D01*
G01X1686179Y3430346D01*
G01X1689227Y3436442D01*
G01X1695577Y3445840D01*
G01X1726311Y3476828D01*
G01X1683131Y3476828D01*
G01X1819402Y3469119D02*
G01X1819402Y3534143D01*
G01X1819402Y3469119D02*
G01X1779270Y3469119D01*
G01X1819402Y3500107D02*
G01X1794510Y3500107D01*
G01X1749044Y3469119D02*
G01X1749044Y3534143D01*
G01X1705864Y3469119D02*
G01X1705864Y3534143D01*
G01X1749044Y3500107D02*
G01X1705864Y3500107D01*
G01X1675638Y3481565D02*
G01X1669542Y3478263D01*
G01X1660398Y3469119D01*
G01X1660398Y3534143D01*
G01X4423570Y3469119D02*
G01X4423570Y3534143D01*
G01X4423570Y3469119D02*
G01X4383438Y3469119D01*
G01X4423570Y3500107D02*
G01X4398678Y3500107D01*
G01X4353212Y3469119D02*
G01X4353212Y3534143D01*
G01X4310032Y3469119D02*
G01X4310032Y3534143D01*
G01X4353212Y3500107D02*
G01X4310032Y3500107D01*
G01X4276758Y3484613D02*
G01X4276758Y3481565D01*
G01X4273710Y3475215D01*
G01X4270662Y3472167D01*
G01X4264566Y3469119D01*
G01X4252120Y3469119D01*
G01X4245770Y3472167D01*
G01X4242722Y3475215D01*
G01X4239674Y3481565D01*
G01X4239674Y3487661D01*
G01X4242722Y3493757D01*
G01X4249072Y3503155D01*
G01X4279806Y3534143D01*
G01X4236626Y3534143D01*
G01X10786176Y8814448D02*
G01X10786176Y8749424D01*
G01X10829610Y8814448D02*
G01X10829610Y8749424D01*
G01X10786176Y8783460D02*
G01X10829610Y8783460D01*
G01X10859836Y8802002D02*
G01X10865932Y8805304D01*
G01X10875076Y8814448D01*
G01X10875076Y8749424D01*
G01X9530080Y2178842D02*
G01X9530080Y2113818D01*
G01X9573514Y2178842D02*
G01X9573514Y2113818D01*
G01X9530080Y2147854D02*
G01X9573514Y2147854D01*
G01X9606788Y2163348D02*
G01X9606788Y2166396D01*
G01X9609836Y2172746D01*
G01X9612884Y2175794D01*
G01X9618980Y2178842D01*
G01X9631426Y2178842D01*
G01X9637776Y2175794D01*
G01X9640824Y2172746D01*
G01X9643872Y2166396D01*
G01X9643872Y2160300D01*
G01X9640824Y2154204D01*
G01X9634474Y2144806D01*
G01X9603740Y2113818D01*
G01X9646920Y2113818D01*
G01X11628120Y1326421D02*
G01X11628120Y1391445D01*
G01X11584686Y1326421D02*
G01X11584686Y1391445D01*
G01X11628120Y1357409D02*
G01X11584686Y1357409D01*
G01X11548364Y1326421D02*
G01X11514328Y1326421D01*
G01X11532870Y1351059D01*
G01X11523726Y1351059D01*
G01X11517376Y1354107D01*
G01X11514328Y1357409D01*
G01X11511280Y1366553D01*
G01X11511280Y1372903D01*
G01X11514328Y1382047D01*
G01X11520424Y1388397D01*
G01X11529822Y1391445D01*
G01X11539220Y1391445D01*
G01X11548364Y1388397D01*
G01X11551412Y1385095D01*
G01X11554460Y1378999D01*
G01X12301096Y1509944D02*
G01X12301096Y1444920D01*
G01X12344530Y1509944D02*
G01X12301096Y1466764D01*
G01X12316590Y1482258D02*
G01X12344530Y1444920D01*
G01X12374756Y1509944D02*
G01X12374756Y1444920D01*
G01X12374756Y1509944D02*
G01X12414888Y1509944D01*
G01X12374756Y1478956D02*
G01X12399394Y1478956D01*
G01X12374756Y1444920D02*
G01X12414888Y1444920D01*
G01X12445114Y1509944D02*
G01X12469752Y1478956D01*
G01X12469752Y1444920D01*
G01X12494644Y1509944D02*
G01X12469752Y1478956D01*
G01X12524870Y1497498D02*
G01X12530966Y1500800D01*
G01X12540110Y1509944D01*
G01X12540110Y1444920D01*
G01X12629389Y7061606D02*
G01X12694413Y7061606D01*
G01X12629389Y7105040D02*
G01X12672569Y7061606D01*
G01X12657075Y7077100D02*
G01X12694413Y7105040D01*
G01X12629389Y7135266D02*
G01X12694413Y7135266D01*
G01X12629389Y7135266D02*
G01X12629389Y7175398D01*
G01X12660377Y7135266D02*
G01X12660377Y7159904D01*
G01X12694413Y7135266D02*
G01X12694413Y7175398D01*
G01X12629389Y7205624D02*
G01X12660377Y7230262D01*
G01X12694413Y7230262D01*
G01X12629389Y7255154D02*
G01X12660377Y7230262D01*
G01X12644883Y7288428D02*
G01X12641835Y7288428D01*
G01X12635485Y7291476D01*
G01X12632437Y7294524D01*
G01X12629389Y7300620D01*
G01X12629389Y7313066D01*
G01X12632437Y7319416D01*
G01X12635485Y7322464D01*
G01X12641835Y7325512D01*
G01X12647931Y7325512D01*
G01X12654027Y7322464D01*
G01X12663425Y7316114D01*
G01X12694413Y7285380D01*
G01X12694413Y7328560D01*
G01X5915028Y4777943D02*
G01X5915028Y4712919D01*
G01X5915028Y4712919D02*
G01X5952112Y4712919D01*
G01X5982338Y4765497D02*
G01X5988434Y4768799D01*
G01X5997578Y4777943D01*
G01X5997578Y4712919D01*
G01X3361042Y7044446D02*
G01X3361042Y6979422D01*
G01X3361042Y6979422D02*
G01X3398126Y6979422D01*
G01X3434448Y7044446D02*
G01X3468484Y7044446D01*
G01X3449942Y7019808D01*
G01X3459086Y7019808D01*
G01X3465436Y7016760D01*
G01X3468484Y7013458D01*
G01X3471532Y7004314D01*
G01X3471532Y6997964D01*
G01X3468484Y6988820D01*
G01X3462388Y6982470D01*
G01X3452990Y6979422D01*
G01X3443592Y6979422D01*
G01X3434448Y6982470D01*
G01X3431400Y6985772D01*
G01X3428352Y6991868D01*
G01X7828788Y5923219D02*
G01X7893812Y5923219D01*
G01X7893812Y5923219D02*
G01X7893812Y5960303D01*
G01X7828788Y6021263D02*
G01X7871968Y5990529D01*
G01X7871968Y6036757D01*
G01X7828788Y6021263D02*
G01X7893812Y6021263D01*
G01X932981Y7108680D02*
G01X932981Y7173704D01*
G01X932981Y7173704D02*
G01X895897Y7173704D01*
G01X865671Y7108680D02*
G01X865671Y7173704D01*
G01X865671Y7108680D02*
G01X825539Y7108680D01*
G01X865671Y7139668D02*
G01X841033Y7139668D01*
G01X865671Y7173704D02*
G01X825539Y7173704D01*
G01X795313Y7108680D02*
G01X795313Y7173704D01*
G01X795313Y7108680D02*
G01X773723Y7108680D01*
G01X764579Y7111728D01*
G01X758229Y7117824D01*
G01X755181Y7124174D01*
G01X752133Y7133318D01*
G01X752133Y7148812D01*
G01X755181Y7158210D01*
G01X758229Y7164306D01*
G01X764579Y7170656D01*
G01X773723Y7173704D01*
G01X795313Y7173704D01*
G01X718859Y7124174D02*
G01X718859Y7121126D01*
G01X715811Y7114776D01*
G01X712763Y7111728D01*
G01X706667Y7108680D01*
G01X694221Y7108680D01*
G01X687871Y7111728D01*
G01X684823Y7114776D01*
G01X681775Y7121126D01*
G01X681775Y7127222D01*
G01X684823Y7133318D01*
G01X691173Y7142716D01*
G01X721907Y7173704D01*
G01X678727Y7173704D01*
G01X11118723Y8279343D02*
G01X11118723Y8214319D01*
G01X11118723Y8214319D02*
G01X11155807Y8214319D01*
G01X11186033Y8279343D02*
G01X11186033Y8214319D01*
G01X11186033Y8279343D02*
G01X11226165Y8279343D01*
G01X11186033Y8248355D02*
G01X11210671Y8248355D01*
G01X11186033Y8214319D02*
G01X11226165Y8214319D01*
G01X11256391Y8279343D02*
G01X11256391Y8214319D01*
G01X11256391Y8279343D02*
G01X11277981Y8279343D01*
G01X11287125Y8276295D01*
G01X11293475Y8270199D01*
G01X11296523Y8263849D01*
G01X11299571Y8254705D01*
G01X11299571Y8239211D01*
G01X11296523Y8229813D01*
G01X11293475Y8223717D01*
G01X11287125Y8217367D01*
G01X11277981Y8214319D01*
G01X11256391Y8214319D01*
G01X11335893Y8279343D02*
G01X11369929Y8279343D01*
G01X11351387Y8254705D01*
G01X11360531Y8254705D01*
G01X11366881Y8251657D01*
G01X11369929Y8248355D01*
G01X11372977Y8239211D01*
G01X11372977Y8232861D01*
G01X11369929Y8223717D01*
G01X11363833Y8217367D01*
G01X11354435Y8214319D01*
G01X11345037Y8214319D01*
G01X11335893Y8217367D01*
G01X11332845Y8220669D01*
G01X11329797Y8226765D01*
G01X10891549Y4327784D02*
G01X10826525Y4327784D01*
G01X10826525Y4327784D02*
G01X10826525Y4290700D01*
G01X10891549Y4260474D02*
G01X10826525Y4260474D01*
G01X10891549Y4260474D02*
G01X10891549Y4220342D01*
G01X10860561Y4260474D02*
G01X10860561Y4235836D01*
G01X10826525Y4260474D02*
G01X10826525Y4220342D01*
G01X10891549Y4190116D02*
G01X10826525Y4190116D01*
G01X10891549Y4190116D02*
G01X10891549Y4168526D01*
G01X10888501Y4159382D01*
G01X10882405Y4153032D01*
G01X10876055Y4149984D01*
G01X10866911Y4146936D01*
G01X10851417Y4146936D01*
G01X10842019Y4149984D01*
G01X10835923Y4153032D01*
G01X10829573Y4159382D01*
G01X10826525Y4168526D01*
G01X10826525Y4190116D01*
G01X10891549Y4085976D02*
G01X10848369Y4116710D01*
G01X10848369Y4070482D01*
G01X10891549Y4085976D02*
G01X10826525Y4085976D01*
G01X10888951Y6778368D02*
G01X10953975Y6778368D01*
G01X10953975Y6778368D02*
G01X10953975Y6815452D01*
G01X10888951Y6845678D02*
G01X10953975Y6845678D01*
G01X10888951Y6845678D02*
G01X10888951Y6885810D01*
G01X10919939Y6845678D02*
G01X10919939Y6870316D01*
G01X10953975Y6845678D02*
G01X10953975Y6885810D01*
G01X10888951Y6916036D02*
G01X10953975Y6916036D01*
G01X10888951Y6916036D02*
G01X10888951Y6937626D01*
G01X10891999Y6946770D01*
G01X10898095Y6953120D01*
G01X10904445Y6956168D01*
G01X10913589Y6959216D01*
G01X10929083Y6959216D01*
G01X10938481Y6956168D01*
G01X10944577Y6953120D01*
G01X10950927Y6946770D01*
G01X10953975Y6937626D01*
G01X10953975Y6916036D01*
G01X10888951Y7032622D02*
G01X10953975Y7001634D01*
G01X10888951Y6989442D02*
G01X10888951Y7032622D01*
G01X1238237Y9036842D02*
G01X1232141Y9033794D01*
G01X1225791Y9027698D01*
G01X1222743Y9021348D01*
G01X1219695Y9012204D01*
G01X1219695Y8996710D01*
G01X1222743Y8987312D01*
G01X1225791Y8981216D01*
G01X1232141Y8974866D01*
G01X1238237Y8971818D01*
G01X1250683Y8971818D01*
G01X1256779Y8974866D01*
G01X1263129Y8981216D01*
G01X1266177Y8987312D01*
G01X1269225Y8996710D01*
G01X1269225Y9012204D01*
G01X1266177Y9021348D01*
G01X1263129Y9027698D01*
G01X1256779Y9033794D01*
G01X1250683Y9036842D01*
G01X1238237Y9036842D01*
G01X1247635Y8984264D02*
G01X1266177Y8965722D01*
G01X1330185Y9036842D02*
G01X1299451Y8993662D01*
G01X1345679Y8993662D01*
G01X1330185Y9036842D02*
G01X1330185Y8971818D01*
G01X3259061Y9036842D02*
G01X3252965Y9033794D01*
G01X3246615Y9027698D01*
G01X3243567Y9021348D01*
G01X3240519Y9012204D01*
G01X3240519Y8996710D01*
G01X3243567Y8987312D01*
G01X3246615Y8981216D01*
G01X3252965Y8974866D01*
G01X3259061Y8971818D01*
G01X3271507Y8971818D01*
G01X3277603Y8974866D01*
G01X3283953Y8981216D01*
G01X3287001Y8987312D01*
G01X3290049Y8996710D01*
G01X3290049Y9012204D01*
G01X3287001Y9021348D01*
G01X3283953Y9027698D01*
G01X3277603Y9033794D01*
G01X3271507Y9036842D01*
G01X3259061Y9036842D01*
G01X3268459Y8984264D02*
G01X3287001Y8965722D01*
G01X3357359Y9036842D02*
G01X3326371Y9036842D01*
G01X3323323Y9009156D01*
G01X3326371Y9012204D01*
G01X3335515Y9015252D01*
G01X3344913Y9015252D01*
G01X3354311Y9012204D01*
G01X3360407Y9005854D01*
G01X3363455Y8996710D01*
G01X3363455Y8990360D01*
G01X3360407Y8981216D01*
G01X3354311Y8974866D01*
G01X3344913Y8971818D01*
G01X3335515Y8971818D01*
G01X3326371Y8974866D01*
G01X3323323Y8978168D01*
G01X3320275Y8984264D01*
G01X5279885Y9036842D02*
G01X5273789Y9033794D01*
G01X5267439Y9027698D01*
G01X5264391Y9021348D01*
G01X5261343Y9012204D01*
G01X5261343Y8996710D01*
G01X5264391Y8987312D01*
G01X5267439Y8981216D01*
G01X5273789Y8974866D01*
G01X5279885Y8971818D01*
G01X5292331Y8971818D01*
G01X5298427Y8974866D01*
G01X5304777Y8981216D01*
G01X5307825Y8987312D01*
G01X5310873Y8996710D01*
G01X5310873Y9012204D01*
G01X5307825Y9021348D01*
G01X5304777Y9027698D01*
G01X5298427Y9033794D01*
G01X5292331Y9036842D01*
G01X5279885Y9036842D01*
G01X5289283Y8984264D02*
G01X5307825Y8965722D01*
G01X5378183Y9027698D02*
G01X5375135Y9033794D01*
G01X5365737Y9036842D01*
G01X5359641Y9036842D01*
G01X5350243Y9033794D01*
G01X5344147Y9024396D01*
G01X5341099Y9009156D01*
G01X5341099Y8993662D01*
G01X5344147Y8981216D01*
G01X5350243Y8974866D01*
G01X5359641Y8971818D01*
G01X5362689Y8971818D01*
G01X5371833Y8974866D01*
G01X5378183Y8981216D01*
G01X5381231Y8990360D01*
G01X5381231Y8993662D01*
G01X5378183Y9002806D01*
G01X5371833Y9009156D01*
G01X5362689Y9012204D01*
G01X5359641Y9012204D01*
G01X5350243Y9009156D01*
G01X5344147Y9002806D01*
G01X5341099Y8993662D01*
G01X7160260Y8236923D02*
G01X7157212Y8243019D01*
G01X7151116Y8249369D01*
G01X7144766Y8252417D01*
G01X7135622Y8255465D01*
G01X7120128Y8255465D01*
G01X7110730Y8252417D01*
G01X7104634Y8249369D01*
G01X7098284Y8243019D01*
G01X7095236Y8236923D01*
G01X7095236Y8224477D01*
G01X7098284Y8218381D01*
G01X7104634Y8212031D01*
G01X7110730Y8208983D01*
G01X7120128Y8205935D01*
G01X7135622Y8205935D01*
G01X7144766Y8208983D01*
G01X7151116Y8212031D01*
G01X7157212Y8218381D01*
G01X7160260Y8224477D01*
G01X7160260Y8236923D01*
G01X7107682Y8227525D02*
G01X7089140Y8208983D01*
G01X7160260Y8132529D02*
G01X7095236Y8163517D01*
G01X7160260Y8175709D02*
G01X7160260Y8132529D01*
G01X661806Y5998345D02*
G01X655710Y5995297D01*
G01X649360Y5989201D01*
G01X646312Y5982851D01*
G01X643264Y5973707D01*
G01X643264Y5958213D01*
G01X646312Y5948815D01*
G01X649360Y5942719D01*
G01X655710Y5936369D01*
G01X661806Y5933321D01*
G01X674252Y5933321D01*
G01X680348Y5936369D01*
G01X686698Y5942719D01*
G01X689746Y5948815D01*
G01X692794Y5958213D01*
G01X692794Y5973707D01*
G01X689746Y5982851D01*
G01X686698Y5989201D01*
G01X680348Y5995297D01*
G01X674252Y5998345D01*
G01X661806Y5998345D01*
G01X671204Y5945767D02*
G01X689746Y5927225D01*
G01X738260Y5998345D02*
G01X729116Y5995297D01*
G01X726068Y5989201D01*
G01X726068Y5982851D01*
G01X729116Y5976755D01*
G01X735212Y5973707D01*
G01X747658Y5970659D01*
G01X757056Y5967357D01*
G01X763152Y5961261D01*
G01X766200Y5955165D01*
G01X766200Y5945767D01*
G01X763152Y5939671D01*
G01X760104Y5936369D01*
G01X750706Y5933321D01*
G01X738260Y5933321D01*
G01X729116Y5936369D01*
G01X726068Y5939671D01*
G01X723020Y5945767D01*
G01X723020Y5955165D01*
G01X726068Y5961261D01*
G01X732164Y5967357D01*
G01X741562Y5970659D01*
G01X753754Y5973707D01*
G01X760104Y5976755D01*
G01X763152Y5982851D01*
G01X763152Y5989201D01*
G01X760104Y5995297D01*
G01X750706Y5998345D01*
G01X738260Y5998345D01*
G01X10713212Y4479369D02*
G01X10648188Y4479369D01*
G01X10713212Y4479369D02*
G01X10713212Y4451429D01*
G01X10710164Y4442285D01*
G01X10707116Y4439237D01*
G01X10700766Y4435935D01*
G01X10694670Y4435935D01*
G01X10688574Y4439237D01*
G01X10685526Y4442285D01*
G01X10682224Y4451429D01*
G01X10682224Y4479369D01*
G01X10682224Y4457779D02*
G01X10648188Y4435935D01*
G01X10700766Y4405709D02*
G01X10704068Y4399613D01*
G01X10713212Y4390469D01*
G01X10648188Y4390469D01*
G01X11003788Y4390469D02*
G01X11068812Y4390469D01*
G01X11003788Y4390469D02*
G01X11003788Y4418409D01*
G01X11006836Y4427553D01*
G01X11009884Y4430601D01*
G01X11016234Y4433903D01*
G01X11022330Y4433903D01*
G01X11028426Y4430601D01*
G01X11031474Y4427553D01*
G01X11034776Y4418409D01*
G01X11034776Y4390469D01*
G01X11034776Y4412059D02*
G01X11068812Y4433903D01*
G01X11019282Y4467177D02*
G01X11016234Y4467177D01*
G01X11009884Y4470225D01*
G01X11006836Y4473273D01*
G01X11003788Y4479369D01*
G01X11003788Y4491815D01*
G01X11006836Y4498165D01*
G01X11009884Y4501213D01*
G01X11016234Y4504261D01*
G01X11022330Y4504261D01*
G01X11028426Y4501213D01*
G01X11037824Y4494863D01*
G01X11068812Y4464129D01*
G01X11068812Y4507309D01*
G01X12158980Y6389644D02*
G01X12158980Y6324620D01*
G01X12158980Y6389644D02*
G01X12186920Y6389644D01*
G01X12196064Y6386596D01*
G01X12199112Y6383548D01*
G01X12202414Y6377198D01*
G01X12202414Y6371102D01*
G01X12199112Y6365006D01*
G01X12196064Y6361958D01*
G01X12186920Y6358656D01*
G01X12158980Y6358656D01*
G01X12180570Y6358656D02*
G01X12202414Y6324620D01*
G01X12269724Y6389644D02*
G01X12238736Y6389644D01*
G01X12235688Y6361958D01*
G01X12238736Y6365006D01*
G01X12247880Y6368054D01*
G01X12257278Y6368054D01*
G01X12266676Y6365006D01*
G01X12272772Y6358656D01*
G01X12275820Y6349512D01*
G01X12275820Y6343162D01*
G01X12272772Y6334018D01*
G01X12266676Y6327668D01*
G01X12257278Y6324620D01*
G01X12247880Y6324620D01*
G01X12238736Y6327668D01*
G01X12235688Y6330970D01*
G01X12232640Y6337066D01*
G01X9404096Y1739920D02*
G01X9404096Y1804944D01*
G01X9404096Y1739920D02*
G01X9376156Y1739920D01*
G01X9367012Y1742968D01*
G01X9363964Y1746016D01*
G01X9360662Y1752366D01*
G01X9360662Y1758462D01*
G01X9363964Y1764558D01*
G01X9367012Y1767606D01*
G01X9376156Y1770908D01*
G01X9404096Y1770908D01*
G01X9382506Y1770908D02*
G01X9360662Y1804944D01*
G01X9293352Y1749064D02*
G01X9296400Y1742968D01*
G01X9305798Y1739920D01*
G01X9311894Y1739920D01*
G01X9321292Y1742968D01*
G01X9327388Y1752366D01*
G01X9330436Y1767606D01*
G01X9330436Y1783100D01*
G01X9327388Y1795546D01*
G01X9321292Y1801896D01*
G01X9311894Y1804944D01*
G01X9308846Y1804944D01*
G01X9299702Y1801896D01*
G01X9293352Y1795546D01*
G01X9290304Y1786402D01*
G01X9290304Y1783100D01*
G01X9293352Y1773956D01*
G01X9299702Y1767606D01*
G01X9308846Y1764558D01*
G01X9311894Y1764558D01*
G01X9321292Y1767606D01*
G01X9327388Y1773956D01*
G01X9330436Y1783100D01*
G01X9733788Y3335873D02*
G01X9798812Y3335873D01*
G01X9733788Y3335873D02*
G01X9733788Y3363813D01*
G01X9736836Y3372957D01*
G01X9739884Y3376005D01*
G01X9746234Y3379307D01*
G01X9752330Y3379307D01*
G01X9758426Y3376005D01*
G01X9761474Y3372957D01*
G01X9764776Y3363813D01*
G01X9764776Y3335873D01*
G01X9764776Y3357463D02*
G01X9798812Y3379307D01*
G01X9733788Y3452713D02*
G01X9798812Y3421725D01*
G01X9733788Y3409533D02*
G01X9733788Y3452713D01*
G01X11501247Y8281944D02*
G01X11501247Y8216920D01*
G01X11501247Y8281944D02*
G01X11529187Y8281944D01*
G01X11538331Y8278896D01*
G01X11541379Y8275848D01*
G01X11544681Y8269498D01*
G01X11544681Y8263402D01*
G01X11541379Y8257306D01*
G01X11538331Y8254258D01*
G01X11529187Y8250956D01*
G01X11501247Y8250956D01*
G01X11522837Y8250956D02*
G01X11544681Y8216920D01*
G01X11574907Y8269498D02*
G01X11581003Y8272800D01*
G01X11590147Y8281944D01*
G01X11590147Y8216920D01*
G01X11623421Y8266450D02*
G01X11623421Y8269498D01*
G01X11626469Y8275848D01*
G01X11629517Y8278896D01*
G01X11635613Y8281944D01*
G01X11648059Y8281944D01*
G01X11654409Y8278896D01*
G01X11657457Y8275848D01*
G01X11660505Y8269498D01*
G01X11660505Y8263402D01*
G01X11657457Y8257306D01*
G01X11651107Y8247908D01*
G01X11620373Y8216920D01*
G01X11663553Y8216920D01*
G01X12337923Y7939044D02*
G01X12337923Y7874020D01*
G01X12337923Y7939044D02*
G01X12365863Y7939044D01*
G01X12375007Y7935996D01*
G01X12378055Y7932948D01*
G01X12381357Y7926598D01*
G01X12381357Y7920502D01*
G01X12378055Y7914406D01*
G01X12375007Y7911358D01*
G01X12365863Y7908056D01*
G01X12337923Y7908056D01*
G01X12359513Y7908056D02*
G01X12381357Y7874020D01*
G01X12411583Y7926598D02*
G01X12417679Y7929900D01*
G01X12426823Y7939044D01*
G01X12426823Y7874020D01*
G01X12487783Y7939044D02*
G01X12457049Y7895864D01*
G01X12503277Y7895864D01*
G01X12487783Y7939044D02*
G01X12487783Y7874020D01*
G01X10927588Y8352869D02*
G01X10992612Y8352869D01*
G01X10927588Y8352869D02*
G01X10927588Y8380809D01*
G01X10930636Y8389953D01*
G01X10933684Y8393001D01*
G01X10940034Y8396303D01*
G01X10946130Y8396303D01*
G01X10952226Y8393001D01*
G01X10955274Y8389953D01*
G01X10958576Y8380809D01*
G01X10958576Y8352869D01*
G01X10958576Y8374459D02*
G01X10992612Y8396303D01*
G01X10940034Y8426529D02*
G01X10936732Y8432625D01*
G01X10927588Y8441769D01*
G01X10992612Y8441769D01*
G01X10927588Y8509079D02*
G01X10927588Y8478091D01*
G01X10955274Y8475043D01*
G01X10952226Y8478091D01*
G01X10949178Y8487235D01*
G01X10949178Y8496633D01*
G01X10952226Y8506031D01*
G01X10958576Y8512127D01*
G01X10967720Y8515175D01*
G01X10974070Y8515175D01*
G01X10983214Y8512127D01*
G01X10989564Y8506031D01*
G01X10992612Y8496633D01*
G01X10992612Y8487235D01*
G01X10989564Y8478091D01*
G01X10986262Y8475043D01*
G01X10980166Y8471995D01*
G01X10673588Y8352869D02*
G01X10738612Y8352869D01*
G01X10673588Y8352869D02*
G01X10673588Y8380809D01*
G01X10676636Y8389953D01*
G01X10679684Y8393001D01*
G01X10686034Y8396303D01*
G01X10692130Y8396303D01*
G01X10698226Y8393001D01*
G01X10701274Y8389953D01*
G01X10704576Y8380809D01*
G01X10704576Y8352869D01*
G01X10704576Y8374459D02*
G01X10738612Y8396303D01*
G01X10686034Y8426529D02*
G01X10682732Y8432625D01*
G01X10673588Y8441769D01*
G01X10738612Y8441769D01*
G01X10682732Y8509079D02*
G01X10676636Y8506031D01*
G01X10673588Y8496633D01*
G01X10673588Y8490537D01*
G01X10676636Y8481139D01*
G01X10686034Y8475043D01*
G01X10701274Y8471995D01*
G01X10716768Y8471995D01*
G01X10729214Y8475043D01*
G01X10735564Y8481139D01*
G01X10738612Y8490537D01*
G01X10738612Y8493585D01*
G01X10735564Y8502729D01*
G01X10729214Y8509079D01*
G01X10720070Y8512127D01*
G01X10716768Y8512127D01*
G01X10707624Y8509079D01*
G01X10701274Y8502729D01*
G01X10698226Y8493585D01*
G01X10698226Y8490537D01*
G01X10701274Y8481139D01*
G01X10707624Y8475043D01*
G01X10716768Y8471995D01*
G01X6520688Y3662830D02*
G01X6585712Y3662830D01*
G01X6520688Y3662830D02*
G01X6520688Y3690770D01*
G01X6523736Y3699914D01*
G01X6526784Y3702962D01*
G01X6533134Y3706264D01*
G01X6539230Y3706264D01*
G01X6545326Y3702962D01*
G01X6548374Y3699914D01*
G01X6551676Y3690770D01*
G01X6551676Y3662830D01*
G01X6551676Y3684420D02*
G01X6585712Y3706264D01*
G01X6533134Y3736490D02*
G01X6529832Y3742586D01*
G01X6520688Y3751730D01*
G01X6585712Y3751730D01*
G01X6520688Y3797196D02*
G01X6523736Y3788052D01*
G01X6529832Y3785004D01*
G01X6536182Y3785004D01*
G01X6542278Y3788052D01*
G01X6545326Y3794148D01*
G01X6548374Y3806594D01*
G01X6551676Y3815992D01*
G01X6557772Y3822088D01*
G01X6563868Y3825136D01*
G01X6573266Y3825136D01*
G01X6579362Y3822088D01*
G01X6582664Y3819040D01*
G01X6585712Y3809642D01*
G01X6585712Y3797196D01*
G01X6582664Y3788052D01*
G01X6579362Y3785004D01*
G01X6573266Y3781956D01*
G01X6563868Y3781956D01*
G01X6557772Y3785004D01*
G01X6551676Y3791100D01*
G01X6548374Y3800498D01*
G01X6545326Y3812690D01*
G01X6542278Y3819040D01*
G01X6536182Y3822088D01*
G01X6529832Y3822088D01*
G01X6523736Y3819040D01*
G01X6520688Y3809642D01*
G01X6520688Y3797196D01*
G01X6446012Y3479188D02*
G01X6380988Y3479188D01*
G01X6446012Y3479188D02*
G01X6446012Y3451248D01*
G01X6442964Y3442104D01*
G01X6439916Y3439056D01*
G01X6433566Y3435754D01*
G01X6427470Y3435754D01*
G01X6421374Y3439056D01*
G01X6418326Y3442104D01*
G01X6415024Y3451248D01*
G01X6415024Y3479188D01*
G01X6415024Y3457598D02*
G01X6380988Y3435754D01*
G01X6433566Y3405528D02*
G01X6436868Y3399432D01*
G01X6446012Y3390288D01*
G01X6380988Y3390288D01*
G01X6424422Y3319930D02*
G01X6415024Y3322978D01*
G01X6408928Y3329328D01*
G01X6405880Y3338472D01*
G01X6405880Y3341520D01*
G01X6408928Y3350918D01*
G01X6415024Y3357014D01*
G01X6424422Y3360062D01*
G01X6427470Y3360062D01*
G01X6436868Y3357014D01*
G01X6442964Y3350918D01*
G01X6446012Y3341520D01*
G01X6446012Y3338472D01*
G01X6442964Y3329328D01*
G01X6436868Y3322978D01*
G01X6424422Y3319930D01*
G01X6408928Y3319930D01*
G01X6393434Y3322978D01*
G01X6384036Y3329328D01*
G01X6380988Y3338472D01*
G01X6380988Y3344822D01*
G01X6384036Y3353966D01*
G01X6390386Y3357014D01*
G01X10825988Y4390469D02*
G01X10891012Y4390469D01*
G01X10825988Y4390469D02*
G01X10825988Y4418409D01*
G01X10829036Y4427553D01*
G01X10832084Y4430601D01*
G01X10838434Y4433903D01*
G01X10844530Y4433903D01*
G01X10850626Y4430601D01*
G01X10853674Y4427553D01*
G01X10856976Y4418409D01*
G01X10856976Y4390469D01*
G01X10856976Y4412059D02*
G01X10891012Y4433903D01*
G01X10841482Y4467177D02*
G01X10838434Y4467177D01*
G01X10832084Y4470225D01*
G01X10829036Y4473273D01*
G01X10825988Y4479369D01*
G01X10825988Y4491815D01*
G01X10829036Y4498165D01*
G01X10832084Y4501213D01*
G01X10838434Y4504261D01*
G01X10844530Y4504261D01*
G01X10850626Y4501213D01*
G01X10860024Y4494863D01*
G01X10891012Y4464129D01*
G01X10891012Y4507309D01*
G01X10825988Y4556077D02*
G01X10829036Y4546679D01*
G01X10838434Y4540583D01*
G01X10853674Y4537535D01*
G01X10863072Y4537535D01*
G01X10878566Y4540583D01*
G01X10887964Y4546679D01*
G01X10891012Y4556077D01*
G01X10891012Y4562173D01*
G01X10887964Y4571571D01*
G01X10878566Y4577667D01*
G01X10863072Y4580715D01*
G01X10853674Y4580715D01*
G01X10838434Y4577667D01*
G01X10829036Y4571571D01*
G01X10825988Y4562173D01*
G01X10825988Y4556077D01*
G01X779653Y5537220D02*
G01X779653Y5602244D01*
G01X779653Y5537220D02*
G01X751713Y5537220D01*
G01X742569Y5540268D01*
G01X739521Y5543316D01*
G01X736219Y5549666D01*
G01X736219Y5555762D01*
G01X739521Y5561858D01*
G01X742569Y5564906D01*
G01X751713Y5568208D01*
G01X779653Y5568208D01*
G01X758063Y5568208D02*
G01X736219Y5602244D01*
G01X702945Y5552714D02*
G01X702945Y5549666D01*
G01X699897Y5543316D01*
G01X696849Y5540268D01*
G01X690753Y5537220D01*
G01X678307Y5537220D01*
G01X671957Y5540268D01*
G01X668909Y5543316D01*
G01X665861Y5549666D01*
G01X665861Y5555762D01*
G01X668909Y5561858D01*
G01X675259Y5571256D01*
G01X705993Y5602244D01*
G01X662813Y5602244D01*
G01X632587Y5549666D02*
G01X626491Y5546364D01*
G01X617347Y5537220D01*
G01X617347Y5602244D01*
G01X895721Y6963545D02*
G01X895721Y7028569D01*
G01X895721Y6963545D02*
G01X867781Y6963545D01*
G01X858637Y6966593D01*
G01X855589Y6969641D01*
G01X852287Y6975991D01*
G01X852287Y6982087D01*
G01X855589Y6988183D01*
G01X858637Y6991231D01*
G01X867781Y6994533D01*
G01X895721Y6994533D01*
G01X874131Y6994533D02*
G01X852287Y7028569D01*
G01X819013Y6979039D02*
G01X819013Y6975991D01*
G01X815965Y6969641D01*
G01X812917Y6966593D01*
G01X806821Y6963545D01*
G01X794375Y6963545D01*
G01X788025Y6966593D01*
G01X784977Y6969641D01*
G01X781929Y6975991D01*
G01X781929Y6982087D01*
G01X784977Y6988183D01*
G01X791327Y6997581D01*
G01X822061Y7028569D01*
G01X778881Y7028569D01*
G01X745607Y6979039D02*
G01X745607Y6975991D01*
G01X742559Y6969641D01*
G01X739511Y6966593D01*
G01X733415Y6963545D01*
G01X720969Y6963545D01*
G01X714619Y6966593D01*
G01X711571Y6969641D01*
G01X708523Y6975991D01*
G01X708523Y6982087D01*
G01X711571Y6988183D01*
G01X717921Y6997581D01*
G01X748655Y7028569D01*
G01X705475Y7028569D01*
G01X895721Y6836054D02*
G01X895721Y6901078D01*
G01X895721Y6836054D02*
G01X867781Y6836054D01*
G01X858637Y6839102D01*
G01X855589Y6842150D01*
G01X852287Y6848500D01*
G01X852287Y6854596D01*
G01X855589Y6860692D01*
G01X858637Y6863740D01*
G01X867781Y6867042D01*
G01X895721Y6867042D01*
G01X874131Y6867042D02*
G01X852287Y6901078D01*
G01X819013Y6851548D02*
G01X819013Y6848500D01*
G01X815965Y6842150D01*
G01X812917Y6839102D01*
G01X806821Y6836054D01*
G01X794375Y6836054D01*
G01X788025Y6839102D01*
G01X784977Y6842150D01*
G01X781929Y6848500D01*
G01X781929Y6854596D01*
G01X784977Y6860692D01*
G01X791327Y6870090D01*
G01X822061Y6901078D01*
G01X778881Y6901078D01*
G01X742559Y6836054D02*
G01X708523Y6836054D01*
G01X727065Y6860692D01*
G01X717921Y6860692D01*
G01X711571Y6863740D01*
G01X708523Y6867042D01*
G01X705475Y6876186D01*
G01X705475Y6882536D01*
G01X708523Y6891680D01*
G01X714619Y6898030D01*
G01X724017Y6901078D01*
G01X733415Y6901078D01*
G01X742559Y6898030D01*
G01X745607Y6894728D01*
G01X748655Y6888632D01*
G01X5212588Y6612969D02*
G01X5277612Y6612969D01*
G01X5212588Y6612969D02*
G01X5212588Y6640909D01*
G01X5215636Y6650053D01*
G01X5218684Y6653101D01*
G01X5225034Y6656403D01*
G01X5231130Y6656403D01*
G01X5237226Y6653101D01*
G01X5240274Y6650053D01*
G01X5243576Y6640909D01*
G01X5243576Y6612969D01*
G01X5243576Y6634559D02*
G01X5277612Y6656403D01*
G01X5228082Y6689677D02*
G01X5225034Y6689677D01*
G01X5218684Y6692725D01*
G01X5215636Y6695773D01*
G01X5212588Y6701869D01*
G01X5212588Y6714315D01*
G01X5215636Y6720665D01*
G01X5218684Y6723713D01*
G01X5225034Y6726761D01*
G01X5231130Y6726761D01*
G01X5237226Y6723713D01*
G01X5246624Y6717363D01*
G01X5277612Y6686629D01*
G01X5277612Y6729809D01*
G01X5212588Y6790769D02*
G01X5255768Y6760035D01*
G01X5255768Y6806263D01*
G01X5212588Y6790769D02*
G01X5277612Y6790769D01*
G01X5872988Y6612969D02*
G01X5938012Y6612969D01*
G01X5872988Y6612969D02*
G01X5872988Y6640909D01*
G01X5876036Y6650053D01*
G01X5879084Y6653101D01*
G01X5885434Y6656403D01*
G01X5891530Y6656403D01*
G01X5897626Y6653101D01*
G01X5900674Y6650053D01*
G01X5903976Y6640909D01*
G01X5903976Y6612969D01*
G01X5903976Y6634559D02*
G01X5938012Y6656403D01*
G01X5888482Y6689677D02*
G01X5885434Y6689677D01*
G01X5879084Y6692725D01*
G01X5876036Y6695773D01*
G01X5872988Y6701869D01*
G01X5872988Y6714315D01*
G01X5876036Y6720665D01*
G01X5879084Y6723713D01*
G01X5885434Y6726761D01*
G01X5891530Y6726761D01*
G01X5897626Y6723713D01*
G01X5907024Y6717363D01*
G01X5938012Y6686629D01*
G01X5938012Y6729809D01*
G01X5872988Y6797119D02*
G01X5872988Y6766131D01*
G01X5900674Y6763083D01*
G01X5897626Y6766131D01*
G01X5894578Y6775275D01*
G01X5894578Y6784673D01*
G01X5897626Y6794071D01*
G01X5903976Y6800167D01*
G01X5913120Y6803215D01*
G01X5919470Y6803215D01*
G01X5928614Y6800167D01*
G01X5934964Y6794071D01*
G01X5938012Y6784673D01*
G01X5938012Y6775275D01*
G01X5934964Y6766131D01*
G01X5931662Y6763083D01*
G01X5925566Y6760035D01*
G01X5277612Y7117667D02*
G01X5212588Y7117667D01*
G01X5277612Y7117667D02*
G01X5277612Y7089727D01*
G01X5274564Y7080583D01*
G01X5271516Y7077535D01*
G01X5265166Y7074233D01*
G01X5259070Y7074233D01*
G01X5252974Y7077535D01*
G01X5249926Y7080583D01*
G01X5246624Y7089727D01*
G01X5246624Y7117667D01*
G01X5246624Y7096077D02*
G01X5212588Y7074233D01*
G01X5262118Y7040959D02*
G01X5265166Y7040959D01*
G01X5271516Y7037911D01*
G01X5274564Y7034863D01*
G01X5277612Y7028767D01*
G01X5277612Y7016321D01*
G01X5274564Y7009971D01*
G01X5271516Y7006923D01*
G01X5265166Y7003875D01*
G01X5259070Y7003875D01*
G01X5252974Y7006923D01*
G01X5243576Y7013273D01*
G01X5212588Y7044007D01*
G01X5212588Y7000827D01*
G01X5268468Y6933517D02*
G01X5274564Y6936565D01*
G01X5277612Y6945963D01*
G01X5277612Y6952059D01*
G01X5274564Y6961457D01*
G01X5265166Y6967553D01*
G01X5249926Y6970601D01*
G01X5234432Y6970601D01*
G01X5221986Y6967553D01*
G01X5215636Y6961457D01*
G01X5212588Y6952059D01*
G01X5212588Y6949011D01*
G01X5215636Y6939867D01*
G01X5221986Y6933517D01*
G01X5231130Y6930469D01*
G01X5234432Y6930469D01*
G01X5243576Y6933517D01*
G01X5249926Y6939867D01*
G01X5252974Y6949011D01*
G01X5252974Y6952059D01*
G01X5249926Y6961457D01*
G01X5243576Y6967553D01*
G01X5234432Y6970601D01*
G01X5938012Y7120715D02*
G01X5872988Y7120715D01*
G01X5938012Y7120715D02*
G01X5938012Y7092775D01*
G01X5934964Y7083631D01*
G01X5931916Y7080583D01*
G01X5925566Y7077281D01*
G01X5919470Y7077281D01*
G01X5913374Y7080583D01*
G01X5910326Y7083631D01*
G01X5907024Y7092775D01*
G01X5907024Y7120715D01*
G01X5907024Y7099125D02*
G01X5872988Y7077281D01*
G01X5922518Y7044007D02*
G01X5925566Y7044007D01*
G01X5931916Y7040959D01*
G01X5934964Y7037911D01*
G01X5938012Y7031815D01*
G01X5938012Y7019369D01*
G01X5934964Y7013019D01*
G01X5931916Y7009971D01*
G01X5925566Y7006923D01*
G01X5919470Y7006923D01*
G01X5913374Y7009971D01*
G01X5903976Y7016321D01*
G01X5872988Y7047055D01*
G01X5872988Y7003875D01*
G01X5938012Y6930469D02*
G01X5872988Y6961457D01*
G01X5938012Y6973649D02*
G01X5938012Y6930469D01*
G01X6496421Y5867420D02*
G01X6496421Y5932444D01*
G01X6496421Y5867420D02*
G01X6468481Y5867420D01*
G01X6459337Y5870468D01*
G01X6456289Y5873516D01*
G01X6452987Y5879866D01*
G01X6452987Y5885962D01*
G01X6456289Y5892058D01*
G01X6459337Y5895106D01*
G01X6468481Y5898408D01*
G01X6496421Y5898408D01*
G01X6474831Y5898408D02*
G01X6452987Y5932444D01*
G01X6419713Y5882914D02*
G01X6419713Y5879866D01*
G01X6416665Y5873516D01*
G01X6413617Y5870468D01*
G01X6407521Y5867420D01*
G01X6395075Y5867420D01*
G01X6388725Y5870468D01*
G01X6385677Y5873516D01*
G01X6382629Y5879866D01*
G01X6382629Y5885962D01*
G01X6385677Y5892058D01*
G01X6392027Y5901456D01*
G01X6422761Y5932444D01*
G01X6379581Y5932444D01*
G01X6334115Y5867420D02*
G01X6343259Y5870468D01*
G01X6346307Y5876564D01*
G01X6346307Y5882914D01*
G01X6343259Y5889010D01*
G01X6337163Y5892058D01*
G01X6324717Y5895106D01*
G01X6315319Y5898408D01*
G01X6309223Y5904504D01*
G01X6306175Y5910600D01*
G01X6306175Y5919998D01*
G01X6309223Y5926094D01*
G01X6312271Y5929396D01*
G01X6321669Y5932444D01*
G01X6334115Y5932444D01*
G01X6343259Y5929396D01*
G01X6346307Y5926094D01*
G01X6349355Y5919998D01*
G01X6349355Y5910600D01*
G01X6346307Y5904504D01*
G01X6340211Y5898408D01*
G01X6330813Y5895106D01*
G01X6318621Y5892058D01*
G01X6312271Y5889010D01*
G01X6309223Y5882914D01*
G01X6309223Y5876564D01*
G01X6312271Y5870468D01*
G01X6321669Y5867420D01*
G01X6334115Y5867420D01*
G01X6494897Y5703792D02*
G01X6494897Y5768816D01*
G01X6494897Y5703792D02*
G01X6466957Y5703792D01*
G01X6457813Y5706840D01*
G01X6454765Y5709888D01*
G01X6451463Y5716238D01*
G01X6451463Y5722334D01*
G01X6454765Y5728430D01*
G01X6457813Y5731478D01*
G01X6466957Y5734780D01*
G01X6494897Y5734780D01*
G01X6473307Y5734780D02*
G01X6451463Y5768816D01*
G01X6418189Y5719286D02*
G01X6418189Y5716238D01*
G01X6415141Y5709888D01*
G01X6412093Y5706840D01*
G01X6405997Y5703792D01*
G01X6393551Y5703792D01*
G01X6387201Y5706840D01*
G01X6384153Y5709888D01*
G01X6381105Y5716238D01*
G01X6381105Y5722334D01*
G01X6384153Y5728430D01*
G01X6390503Y5737828D01*
G01X6421237Y5768816D01*
G01X6378057Y5768816D01*
G01X6307699Y5725382D02*
G01X6310747Y5734780D01*
G01X6317097Y5740876D01*
G01X6326241Y5743924D01*
G01X6329289Y5743924D01*
G01X6338687Y5740876D01*
G01X6344783Y5734780D01*
G01X6347831Y5725382D01*
G01X6347831Y5722334D01*
G01X6344783Y5712936D01*
G01X6338687Y5706840D01*
G01X6329289Y5703792D01*
G01X6326241Y5703792D01*
G01X6317097Y5706840D01*
G01X6310747Y5712936D01*
G01X6307699Y5725382D01*
G01X6307699Y5740876D01*
G01X6310747Y5756370D01*
G01X6317097Y5765768D01*
G01X6326241Y5768816D01*
G01X6332591Y5768816D01*
G01X6341735Y5765768D01*
G01X6344783Y5759418D01*
G01X9671177Y5018044D02*
G01X9671177Y4953020D01*
G01X9671177Y5018044D02*
G01X9699117Y5018044D01*
G01X9708261Y5014996D01*
G01X9711309Y5011948D01*
G01X9714611Y5005598D01*
G01X9714611Y4999502D01*
G01X9711309Y4993406D01*
G01X9708261Y4990358D01*
G01X9699117Y4987056D01*
G01X9671177Y4987056D01*
G01X9692767Y4987056D02*
G01X9714611Y4953020D01*
G01X9750933Y5018044D02*
G01X9784969Y5018044D01*
G01X9766427Y4993406D01*
G01X9775571Y4993406D01*
G01X9781921Y4990358D01*
G01X9784969Y4987056D01*
G01X9788017Y4977912D01*
G01X9788017Y4971562D01*
G01X9784969Y4962418D01*
G01X9778873Y4956068D01*
G01X9769475Y4953020D01*
G01X9760077Y4953020D01*
G01X9750933Y4956068D01*
G01X9747885Y4959370D01*
G01X9744837Y4965466D01*
G01X9821291Y5002550D02*
G01X9821291Y5005598D01*
G01X9824339Y5011948D01*
G01X9827387Y5014996D01*
G01X9833483Y5018044D01*
G01X9845929Y5018044D01*
G01X9852279Y5014996D01*
G01X9855327Y5011948D01*
G01X9858375Y5005598D01*
G01X9858375Y4999502D01*
G01X9855327Y4993406D01*
G01X9848977Y4984008D01*
G01X9818243Y4953020D01*
G01X9861423Y4953020D01*
G01X9671177Y5716544D02*
G01X9671177Y5651520D01*
G01X9671177Y5716544D02*
G01X9699117Y5716544D01*
G01X9708261Y5713496D01*
G01X9711309Y5710448D01*
G01X9714611Y5704098D01*
G01X9714611Y5698002D01*
G01X9711309Y5691906D01*
G01X9708261Y5688858D01*
G01X9699117Y5685556D01*
G01X9671177Y5685556D01*
G01X9692767Y5685556D02*
G01X9714611Y5651520D01*
G01X9750933Y5716544D02*
G01X9784969Y5716544D01*
G01X9766427Y5691906D01*
G01X9775571Y5691906D01*
G01X9781921Y5688858D01*
G01X9784969Y5685556D01*
G01X9788017Y5676412D01*
G01X9788017Y5670062D01*
G01X9784969Y5660918D01*
G01X9778873Y5654568D01*
G01X9769475Y5651520D01*
G01X9760077Y5651520D01*
G01X9750933Y5654568D01*
G01X9747885Y5657870D01*
G01X9744837Y5663966D01*
G01X9824339Y5716544D02*
G01X9858375Y5716544D01*
G01X9839833Y5691906D01*
G01X9848977Y5691906D01*
G01X9855327Y5688858D01*
G01X9858375Y5685556D01*
G01X9861423Y5676412D01*
G01X9861423Y5670062D01*
G01X9858375Y5660918D01*
G01X9852279Y5654568D01*
G01X9842881Y5651520D01*
G01X9833483Y5651520D01*
G01X9824339Y5654568D01*
G01X9821291Y5657870D01*
G01X9818243Y5663966D01*
G01X7004177Y7786644D02*
G01X7004177Y7721620D01*
G01X7004177Y7786644D02*
G01X7032117Y7786644D01*
G01X7041261Y7783596D01*
G01X7044309Y7780548D01*
G01X7047611Y7774198D01*
G01X7047611Y7768102D01*
G01X7044309Y7762006D01*
G01X7041261Y7758958D01*
G01X7032117Y7755656D01*
G01X7004177Y7755656D01*
G01X7025767Y7755656D02*
G01X7047611Y7721620D01*
G01X7083933Y7786644D02*
G01X7117969Y7786644D01*
G01X7099427Y7762006D01*
G01X7108571Y7762006D01*
G01X7114921Y7758958D01*
G01X7117969Y7755656D01*
G01X7121017Y7746512D01*
G01X7121017Y7740162D01*
G01X7117969Y7731018D01*
G01X7111873Y7724668D01*
G01X7102475Y7721620D01*
G01X7093077Y7721620D01*
G01X7083933Y7724668D01*
G01X7080885Y7727970D01*
G01X7077837Y7734066D01*
G01X7166483Y7786644D02*
G01X7157339Y7783596D01*
G01X7154291Y7777500D01*
G01X7154291Y7771150D01*
G01X7157339Y7765054D01*
G01X7163435Y7762006D01*
G01X7175881Y7758958D01*
G01X7185279Y7755656D01*
G01X7191375Y7749560D01*
G01X7194423Y7743464D01*
G01X7194423Y7734066D01*
G01X7191375Y7727970D01*
G01X7188327Y7724668D01*
G01X7178929Y7721620D01*
G01X7166483Y7721620D01*
G01X7157339Y7724668D01*
G01X7154291Y7727970D01*
G01X7151243Y7734066D01*
G01X7151243Y7743464D01*
G01X7154291Y7749560D01*
G01X7160387Y7755656D01*
G01X7169785Y7758958D01*
G01X7181977Y7762006D01*
G01X7188327Y7765054D01*
G01X7191375Y7771150D01*
G01X7191375Y7777500D01*
G01X7188327Y7783596D01*
G01X7178929Y7786644D01*
G01X7166483Y7786644D01*
G01X7019671Y5130820D02*
G01X7019671Y5195844D01*
G01X7019671Y5130820D02*
G01X6991731Y5130820D01*
G01X6982587Y5133868D01*
G01X6979539Y5136916D01*
G01X6976237Y5143266D01*
G01X6976237Y5149362D01*
G01X6979539Y5155458D01*
G01X6982587Y5158506D01*
G01X6991731Y5161808D01*
G01X7019671Y5161808D01*
G01X6998081Y5161808D02*
G01X6976237Y5195844D01*
G01X6915277Y5130820D02*
G01X6946011Y5174000D01*
G01X6899783Y5174000D01*
G01X6915277Y5130820D02*
G01X6915277Y5195844D01*
G01X6838823Y5130820D02*
G01X6869557Y5174000D01*
G01X6823329Y5174000D01*
G01X6838823Y5130820D02*
G01X6838823Y5195844D01*
G01X6255512Y3856124D02*
G01X6190488Y3856124D01*
G01X6255512Y3856124D02*
G01X6255512Y3828184D01*
G01X6252464Y3819040D01*
G01X6249416Y3815992D01*
G01X6243066Y3812690D01*
G01X6236970Y3812690D01*
G01X6230874Y3815992D01*
G01X6227826Y3819040D01*
G01X6224524Y3828184D01*
G01X6224524Y3856124D01*
G01X6224524Y3834534D02*
G01X6190488Y3812690D01*
G01X6255512Y3751730D02*
G01X6212332Y3782464D01*
G01X6212332Y3736236D01*
G01X6255512Y3751730D02*
G01X6190488Y3751730D01*
G01X6255512Y3662830D02*
G01X6190488Y3693818D01*
G01X6255512Y3706010D02*
G01X6255512Y3662830D01*
G01X6776847Y2566833D02*
G01X6776847Y2631857D01*
G01X6776847Y2566833D02*
G01X6748907Y2566833D01*
G01X6739763Y2569881D01*
G01X6736715Y2572929D01*
G01X6733413Y2579279D01*
G01X6733413Y2585375D01*
G01X6736715Y2591471D01*
G01X6739763Y2594519D01*
G01X6748907Y2597821D01*
G01X6776847Y2597821D01*
G01X6755257Y2597821D02*
G01X6733413Y2631857D01*
G01X6672453Y2566833D02*
G01X6703187Y2610013D01*
G01X6656959Y2610013D01*
G01X6672453Y2566833D02*
G01X6672453Y2631857D01*
G01X6611493Y2566833D02*
G01X6620637Y2569881D01*
G01X6623685Y2575977D01*
G01X6623685Y2582327D01*
G01X6620637Y2588423D01*
G01X6614541Y2591471D01*
G01X6602095Y2594519D01*
G01X6592697Y2597821D01*
G01X6586601Y2603917D01*
G01X6583553Y2610013D01*
G01X6583553Y2619411D01*
G01X6586601Y2625507D01*
G01X6589649Y2628809D01*
G01X6599047Y2631857D01*
G01X6611493Y2631857D01*
G01X6620637Y2628809D01*
G01X6623685Y2625507D01*
G01X6626733Y2619411D01*
G01X6626733Y2610013D01*
G01X6623685Y2603917D01*
G01X6617589Y2597821D01*
G01X6608191Y2594519D01*
G01X6595999Y2591471D01*
G01X6589649Y2588423D01*
G01X6586601Y2582327D01*
G01X6586601Y2575977D01*
G01X6589649Y2569881D01*
G01X6599047Y2566833D01*
G01X6611493Y2566833D01*
G01X6775323Y2871633D02*
G01X6775323Y2936657D01*
G01X6775323Y2871633D02*
G01X6747383Y2871633D01*
G01X6738239Y2874681D01*
G01X6735191Y2877729D01*
G01X6731889Y2884079D01*
G01X6731889Y2890175D01*
G01X6735191Y2896271D01*
G01X6738239Y2899319D01*
G01X6747383Y2902621D01*
G01X6775323Y2902621D01*
G01X6753733Y2902621D02*
G01X6731889Y2936657D01*
G01X6670929Y2871633D02*
G01X6701663Y2914813D01*
G01X6655435Y2914813D01*
G01X6670929Y2871633D02*
G01X6670929Y2936657D01*
G01X6585077Y2893223D02*
G01X6588125Y2902621D01*
G01X6594475Y2908717D01*
G01X6603619Y2911765D01*
G01X6606667Y2911765D01*
G01X6616065Y2908717D01*
G01X6622161Y2902621D01*
G01X6625209Y2893223D01*
G01X6625209Y2890175D01*
G01X6622161Y2880777D01*
G01X6616065Y2874681D01*
G01X6606667Y2871633D01*
G01X6603619Y2871633D01*
G01X6594475Y2874681D01*
G01X6588125Y2880777D01*
G01X6585077Y2893223D01*
G01X6585077Y2908717D01*
G01X6588125Y2924211D01*
G01X6594475Y2933609D01*
G01X6603619Y2936657D01*
G01X6609969Y2936657D01*
G01X6619113Y2933609D01*
G01X6622161Y2927259D01*
G01X6775323Y2719233D02*
G01X6775323Y2784257D01*
G01X6775323Y2719233D02*
G01X6747383Y2719233D01*
G01X6738239Y2722281D01*
G01X6735191Y2725329D01*
G01X6731889Y2731679D01*
G01X6731889Y2737775D01*
G01X6735191Y2743871D01*
G01X6738239Y2746919D01*
G01X6747383Y2750221D01*
G01X6775323Y2750221D01*
G01X6753733Y2750221D02*
G01X6731889Y2784257D01*
G01X6664579Y2719233D02*
G01X6695567Y2719233D01*
G01X6698615Y2746919D01*
G01X6695567Y2743871D01*
G01X6686423Y2740823D01*
G01X6677025Y2740823D01*
G01X6667627Y2743871D01*
G01X6661531Y2750221D01*
G01X6658483Y2759365D01*
G01X6658483Y2765715D01*
G01X6661531Y2774859D01*
G01X6667627Y2781209D01*
G01X6677025Y2784257D01*
G01X6686423Y2784257D01*
G01X6695567Y2781209D01*
G01X6698615Y2777907D01*
G01X6701663Y2771811D01*
G01X6609715Y2719233D02*
G01X6619113Y2722281D01*
G01X6625209Y2731679D01*
G01X6628257Y2746919D01*
G01X6628257Y2756317D01*
G01X6625209Y2771811D01*
G01X6619113Y2781209D01*
G01X6609715Y2784257D01*
G01X6603619Y2784257D01*
G01X6594221Y2781209D01*
G01X6588125Y2771811D01*
G01X6585077Y2756317D01*
G01X6585077Y2746919D01*
G01X6588125Y2731679D01*
G01X6594221Y2722281D01*
G01X6603619Y2719233D01*
G01X6609715Y2719233D01*
G01X6888353Y5740420D02*
G01X6888353Y5805444D01*
G01X6888353Y5740420D02*
G01X6860413Y5740420D01*
G01X6851269Y5743468D01*
G01X6848221Y5746516D01*
G01X6844919Y5752866D01*
G01X6844919Y5758962D01*
G01X6848221Y5765058D01*
G01X6851269Y5768106D01*
G01X6860413Y5771408D01*
G01X6888353Y5771408D01*
G01X6866763Y5771408D02*
G01X6844919Y5805444D01*
G01X6777609Y5740420D02*
G01X6808597Y5740420D01*
G01X6811645Y5768106D01*
G01X6808597Y5765058D01*
G01X6799453Y5762010D01*
G01X6790055Y5762010D01*
G01X6780657Y5765058D01*
G01X6774561Y5771408D01*
G01X6771513Y5780552D01*
G01X6771513Y5786902D01*
G01X6774561Y5796046D01*
G01X6780657Y5802396D01*
G01X6790055Y5805444D01*
G01X6799453Y5805444D01*
G01X6808597Y5802396D01*
G01X6811645Y5799094D01*
G01X6814693Y5792998D01*
G01X6741287Y5752866D02*
G01X6735191Y5749564D01*
G01X6726047Y5740420D01*
G01X6726047Y5805444D01*
G01X7029577Y5805444D02*
G01X7029577Y5740420D01*
G01X7029577Y5805444D02*
G01X7057517Y5805444D01*
G01X7066661Y5802396D01*
G01X7069709Y5799348D01*
G01X7073011Y5792998D01*
G01X7073011Y5786902D01*
G01X7069709Y5780806D01*
G01X7066661Y5777758D01*
G01X7057517Y5774456D01*
G01X7029577Y5774456D01*
G01X7051167Y5774456D02*
G01X7073011Y5740420D01*
G01X7140321Y5805444D02*
G01X7109333Y5805444D01*
G01X7106285Y5777758D01*
G01X7109333Y5780806D01*
G01X7118477Y5783854D01*
G01X7127875Y5783854D01*
G01X7137273Y5780806D01*
G01X7143369Y5774456D01*
G01X7146417Y5765312D01*
G01X7146417Y5758962D01*
G01X7143369Y5749818D01*
G01X7137273Y5743468D01*
G01X7127875Y5740420D01*
G01X7118477Y5740420D01*
G01X7109333Y5743468D01*
G01X7106285Y5746770D01*
G01X7103237Y5752866D01*
G01X7179691Y5789950D02*
G01X7179691Y5792998D01*
G01X7182739Y5799348D01*
G01X7185787Y5802396D01*
G01X7191883Y5805444D01*
G01X7204329Y5805444D01*
G01X7210679Y5802396D01*
G01X7213727Y5799348D01*
G01X7216775Y5792998D01*
G01X7216775Y5786902D01*
G01X7213727Y5780806D01*
G01X7207377Y5771408D01*
G01X7176643Y5740420D01*
G01X7219823Y5740420D01*
G01X12120753Y6567444D02*
G01X12120753Y6502420D01*
G01X12120753Y6567444D02*
G01X12148693Y6567444D01*
G01X12157837Y6564396D01*
G01X12160885Y6561348D01*
G01X12164187Y6554998D01*
G01X12164187Y6548902D01*
G01X12160885Y6542806D01*
G01X12157837Y6539758D01*
G01X12148693Y6536456D01*
G01X12120753Y6536456D01*
G01X12142343Y6536456D02*
G01X12164187Y6502420D01*
G01X12231497Y6567444D02*
G01X12200509Y6567444D01*
G01X12197461Y6539758D01*
G01X12200509Y6542806D01*
G01X12209653Y6545854D01*
G01X12219051Y6545854D01*
G01X12228449Y6542806D01*
G01X12234545Y6536456D01*
G01X12237593Y6527312D01*
G01X12237593Y6520962D01*
G01X12234545Y6511818D01*
G01X12228449Y6505468D01*
G01X12219051Y6502420D01*
G01X12209653Y6502420D01*
G01X12200509Y6505468D01*
G01X12197461Y6508770D01*
G01X12194413Y6514866D01*
G01X12298553Y6567444D02*
G01X12267819Y6524264D01*
G01X12314047Y6524264D01*
G01X12298553Y6567444D02*
G01X12298553Y6502420D01*
G01X9671177Y5208544D02*
G01X9671177Y5143520D01*
G01X9671177Y5208544D02*
G01X9699117Y5208544D01*
G01X9708261Y5205496D01*
G01X9711309Y5202448D01*
G01X9714611Y5196098D01*
G01X9714611Y5190002D01*
G01X9711309Y5183906D01*
G01X9708261Y5180858D01*
G01X9699117Y5177556D01*
G01X9671177Y5177556D01*
G01X9692767Y5177556D02*
G01X9714611Y5143520D01*
G01X9781921Y5208544D02*
G01X9750933Y5208544D01*
G01X9747885Y5180858D01*
G01X9750933Y5183906D01*
G01X9760077Y5186954D01*
G01X9769475Y5186954D01*
G01X9778873Y5183906D01*
G01X9784969Y5177556D01*
G01X9788017Y5168412D01*
G01X9788017Y5162062D01*
G01X9784969Y5152918D01*
G01X9778873Y5146568D01*
G01X9769475Y5143520D01*
G01X9760077Y5143520D01*
G01X9750933Y5146568D01*
G01X9747885Y5149870D01*
G01X9744837Y5155966D01*
G01X9855327Y5208544D02*
G01X9824339Y5208544D01*
G01X9821291Y5180858D01*
G01X9824339Y5183906D01*
G01X9833483Y5186954D01*
G01X9842881Y5186954D01*
G01X9852279Y5183906D01*
G01X9858375Y5177556D01*
G01X9861423Y5168412D01*
G01X9861423Y5162062D01*
G01X9858375Y5152918D01*
G01X9852279Y5146568D01*
G01X9842881Y5143520D01*
G01X9833483Y5143520D01*
G01X9824339Y5146568D01*
G01X9821291Y5149870D01*
G01X9818243Y5155966D01*
G01X9672701Y5399044D02*
G01X9672701Y5334020D01*
G01X9672701Y5399044D02*
G01X9700641Y5399044D01*
G01X9709785Y5395996D01*
G01X9712833Y5392948D01*
G01X9716135Y5386598D01*
G01X9716135Y5380502D01*
G01X9712833Y5374406D01*
G01X9709785Y5371358D01*
G01X9700641Y5368056D01*
G01X9672701Y5368056D01*
G01X9694291Y5368056D02*
G01X9716135Y5334020D01*
G01X9783445Y5399044D02*
G01X9752457Y5399044D01*
G01X9749409Y5371358D01*
G01X9752457Y5374406D01*
G01X9761601Y5377454D01*
G01X9770999Y5377454D01*
G01X9780397Y5374406D01*
G01X9786493Y5368056D01*
G01X9789541Y5358912D01*
G01X9789541Y5352562D01*
G01X9786493Y5343418D01*
G01X9780397Y5337068D01*
G01X9770999Y5334020D01*
G01X9761601Y5334020D01*
G01X9752457Y5337068D01*
G01X9749409Y5340370D01*
G01X9746361Y5346466D01*
G01X9856851Y5389900D02*
G01X9853803Y5395996D01*
G01X9844405Y5399044D01*
G01X9838309Y5399044D01*
G01X9828911Y5395996D01*
G01X9822815Y5386598D01*
G01X9819767Y5371358D01*
G01X9819767Y5355864D01*
G01X9822815Y5343418D01*
G01X9828911Y5337068D01*
G01X9838309Y5334020D01*
G01X9841357Y5334020D01*
G01X9850501Y5337068D01*
G01X9856851Y5343418D01*
G01X9859899Y5352562D01*
G01X9859899Y5355864D01*
G01X9856851Y5365008D01*
G01X9850501Y5371358D01*
G01X9841357Y5374406D01*
G01X9838309Y5374406D01*
G01X9828911Y5371358D01*
G01X9822815Y5365008D01*
G01X9819767Y5355864D01*
G01X11283188Y4492069D02*
G01X11348212Y4492069D01*
G01X11283188Y4492069D02*
G01X11283188Y4520009D01*
G01X11286236Y4529153D01*
G01X11289284Y4532201D01*
G01X11295634Y4535503D01*
G01X11301730Y4535503D01*
G01X11307826Y4532201D01*
G01X11310874Y4529153D01*
G01X11314176Y4520009D01*
G01X11314176Y4492069D01*
G01X11314176Y4513659D02*
G01X11348212Y4535503D01*
G01X11283188Y4602813D02*
G01X11283188Y4571825D01*
G01X11310874Y4568777D01*
G01X11307826Y4571825D01*
G01X11304778Y4580969D01*
G01X11304778Y4590367D01*
G01X11307826Y4599765D01*
G01X11314176Y4605861D01*
G01X11323320Y4608909D01*
G01X11329670Y4608909D01*
G01X11338814Y4605861D01*
G01X11345164Y4599765D01*
G01X11348212Y4590367D01*
G01X11348212Y4580969D01*
G01X11345164Y4571825D01*
G01X11341862Y4568777D01*
G01X11335766Y4565729D01*
G01X11283188Y4682315D02*
G01X11348212Y4651327D01*
G01X11283188Y4639135D02*
G01X11283188Y4682315D01*
G01X10954512Y6625415D02*
G01X10889488Y6625415D01*
G01X10954512Y6625415D02*
G01X10954512Y6597475D01*
G01X10951464Y6588331D01*
G01X10948416Y6585283D01*
G01X10942066Y6581981D01*
G01X10935970Y6581981D01*
G01X10929874Y6585283D01*
G01X10926826Y6588331D01*
G01X10923524Y6597475D01*
G01X10923524Y6625415D01*
G01X10923524Y6603825D02*
G01X10889488Y6581981D01*
G01X10954512Y6514671D02*
G01X10954512Y6545659D01*
G01X10926826Y6548707D01*
G01X10929874Y6545659D01*
G01X10932922Y6536515D01*
G01X10932922Y6527117D01*
G01X10929874Y6517719D01*
G01X10923524Y6511623D01*
G01X10914380Y6508575D01*
G01X10908030Y6508575D01*
G01X10898886Y6511623D01*
G01X10892536Y6517719D01*
G01X10889488Y6527117D01*
G01X10889488Y6536515D01*
G01X10892536Y6545659D01*
G01X10895838Y6548707D01*
G01X10901934Y6551755D01*
G01X10954512Y6463109D02*
G01X10951464Y6472253D01*
G01X10945368Y6475301D01*
G01X10939018Y6475301D01*
G01X10932922Y6472253D01*
G01X10929874Y6466157D01*
G01X10926826Y6453711D01*
G01X10923524Y6444313D01*
G01X10917428Y6438217D01*
G01X10911332Y6435169D01*
G01X10901934Y6435169D01*
G01X10895838Y6438217D01*
G01X10892536Y6441265D01*
G01X10889488Y6450663D01*
G01X10889488Y6463109D01*
G01X10892536Y6472253D01*
G01X10895838Y6475301D01*
G01X10901934Y6478349D01*
G01X10911332Y6478349D01*
G01X10917428Y6475301D01*
G01X10923524Y6469205D01*
G01X10926826Y6459807D01*
G01X10929874Y6447615D01*
G01X10932922Y6441265D01*
G01X10939018Y6438217D01*
G01X10945368Y6438217D01*
G01X10951464Y6441265D01*
G01X10954512Y6450663D01*
G01X10954512Y6463109D01*
G01X5628546Y3799604D02*
G01X5628546Y3753122D01*
G01X5631594Y3743978D01*
G01X5637944Y3737628D01*
G01X5647088Y3734580D01*
G01X5653438Y3734580D01*
G01X5662582Y3737628D01*
G01X5668678Y3743978D01*
G01X5671980Y3753122D01*
G01X5671980Y3799604D01*
G01X5705254Y3784110D02*
G01X5705254Y3787158D01*
G01X5708302Y3793508D01*
G01X5711350Y3796556D01*
G01X5717446Y3799604D01*
G01X5729892Y3799604D01*
G01X5736242Y3796556D01*
G01X5739290Y3793508D01*
G01X5742338Y3787158D01*
G01X5742338Y3781062D01*
G01X5739290Y3774966D01*
G01X5732940Y3765568D01*
G01X5702206Y3734580D01*
G01X5745386Y3734580D01*
G01X7069966Y5516926D02*
G01X7069966Y5563408D01*
G01X7066918Y5572552D01*
G01X7060568Y5578902D01*
G01X7051424Y5581950D01*
G01X7045074Y5581950D01*
G01X7035930Y5578902D01*
G01X7029834Y5572552D01*
G01X7026532Y5563408D01*
G01X7026532Y5516926D01*
G01X6990210Y5516926D02*
G01X6956174Y5516926D01*
G01X6974716Y5541564D01*
G01X6965572Y5541564D01*
G01X6959222Y5544612D01*
G01X6956174Y5547914D01*
G01X6953126Y5557058D01*
G01X6953126Y5563408D01*
G01X6956174Y5572552D01*
G01X6962270Y5578902D01*
G01X6971668Y5581950D01*
G01X6981066Y5581950D01*
G01X6990210Y5578902D01*
G01X6993258Y5575600D01*
G01X6996306Y5569504D01*
G01X4296156Y2716246D02*
G01X4296156Y2669764D01*
G01X4299204Y2660620D01*
G01X4305554Y2654270D01*
G01X4314698Y2651222D01*
G01X4321048Y2651222D01*
G01X4330192Y2654270D01*
G01X4336288Y2660620D01*
G01X4339590Y2669764D01*
G01X4339590Y2716246D01*
G01X4400550Y2716246D02*
G01X4369816Y2673066D01*
G01X4416044Y2673066D01*
G01X4400550Y2716246D02*
G01X4400550Y2651222D01*
G01X1706880Y2716246D02*
G01X1706880Y2669764D01*
G01X1709928Y2660620D01*
G01X1716278Y2654270D01*
G01X1725422Y2651222D01*
G01X1731772Y2651222D01*
G01X1740916Y2654270D01*
G01X1747012Y2660620D01*
G01X1750314Y2669764D01*
G01X1750314Y2716246D01*
G01X1817624Y2716246D02*
G01X1786636Y2716246D01*
G01X1783588Y2688560D01*
G01X1786636Y2691608D01*
G01X1795780Y2694656D01*
G01X1805178Y2694656D01*
G01X1814576Y2691608D01*
G01X1820672Y2685258D01*
G01X1823720Y2676114D01*
G01X1823720Y2669764D01*
G01X1820672Y2660620D01*
G01X1814576Y2654270D01*
G01X1805178Y2651222D01*
G01X1795780Y2651222D01*
G01X1786636Y2654270D01*
G01X1783588Y2657572D01*
G01X1780540Y2663668D01*
G01X5696198Y5972620D02*
G01X5742680Y5972620D01*
G01X5751824Y5975668D01*
G01X5758174Y5982018D01*
G01X5761222Y5991162D01*
G01X5761222Y5997512D01*
G01X5758174Y6006656D01*
G01X5751824Y6012752D01*
G01X5742680Y6016054D01*
G01X5696198Y6016054D01*
G01X5708644Y6046280D02*
G01X5705342Y6052376D01*
G01X5696198Y6061520D01*
G01X5761222Y6061520D01*
G01X5708644Y6091746D02*
G01X5705342Y6097842D01*
G01X5696198Y6106986D01*
G01X5761222Y6106986D01*
G01X1266985Y6912216D02*
G01X1313467Y6912216D01*
G01X1322611Y6915264D01*
G01X1328961Y6921614D01*
G01X1332009Y6930758D01*
G01X1332009Y6937108D01*
G01X1328961Y6946252D01*
G01X1322611Y6952348D01*
G01X1313467Y6955650D01*
G01X1266985Y6955650D01*
G01X1279431Y6985876D02*
G01X1276129Y6991972D01*
G01X1266985Y7001116D01*
G01X1332009Y7001116D01*
G01X1282479Y7034390D02*
G01X1279431Y7034390D01*
G01X1273081Y7037438D01*
G01X1270033Y7040486D01*
G01X1266985Y7046582D01*
G01X1266985Y7059028D01*
G01X1270033Y7065378D01*
G01X1273081Y7068426D01*
G01X1279431Y7071474D01*
G01X1285527Y7071474D01*
G01X1291623Y7068426D01*
G01X1301021Y7062076D01*
G01X1332009Y7031342D01*
G01X1332009Y7074522D01*
G01X10923394Y5808821D02*
G01X10969876Y5808821D01*
G01X10979020Y5811869D01*
G01X10985370Y5818219D01*
G01X10988418Y5827363D01*
G01X10988418Y5833713D01*
G01X10985370Y5842857D01*
G01X10979020Y5848953D01*
G01X10969876Y5852255D01*
G01X10923394Y5852255D01*
G01X10938888Y5885529D02*
G01X10935840Y5885529D01*
G01X10929490Y5888577D01*
G01X10926442Y5891625D01*
G01X10923394Y5897721D01*
G01X10923394Y5910167D01*
G01X10926442Y5916517D01*
G01X10929490Y5919565D01*
G01X10935840Y5922613D01*
G01X10941936Y5922613D01*
G01X10948032Y5919565D01*
G01X10957430Y5913215D01*
G01X10988418Y5882481D01*
G01X10988418Y5925661D01*
G01X10923394Y5971127D02*
G01X10926442Y5961983D01*
G01X10932538Y5958935D01*
G01X10938888Y5958935D01*
G01X10944984Y5961983D01*
G01X10948032Y5968079D01*
G01X10951080Y5980525D01*
G01X10954382Y5989923D01*
G01X10960478Y5996019D01*
G01X10966574Y5999067D01*
G01X10975972Y5999067D01*
G01X10982068Y5996019D01*
G01X10985370Y5992971D01*
G01X10988418Y5983573D01*
G01X10988418Y5971127D01*
G01X10985370Y5961983D01*
G01X10982068Y5958935D01*
G01X10975972Y5955887D01*
G01X10966574Y5955887D01*
G01X10960478Y5958935D01*
G01X10954382Y5965031D01*
G01X10951080Y5974429D01*
G01X10948032Y5986621D01*
G01X10944984Y5992971D01*
G01X10938888Y5996019D01*
G01X10932538Y5996019D01*
G01X10926442Y5992971D01*
G01X10923394Y5983573D01*
G01X10923394Y5971127D01*
G01X9505313Y3870146D02*
G01X9505313Y3916628D01*
G01X9502265Y3925772D01*
G01X9495915Y3932122D01*
G01X9486771Y3935170D01*
G01X9480421Y3935170D01*
G01X9471277Y3932122D01*
G01X9465181Y3925772D01*
G01X9461879Y3916628D01*
G01X9461879Y3870146D01*
G01X9425557Y3870146D02*
G01X9391521Y3870146D01*
G01X9410063Y3894784D01*
G01X9400919Y3894784D01*
G01X9394569Y3897832D01*
G01X9391521Y3901134D01*
G01X9388473Y3910278D01*
G01X9388473Y3916628D01*
G01X9391521Y3925772D01*
G01X9397617Y3932122D01*
G01X9407015Y3935170D01*
G01X9416413Y3935170D01*
G01X9425557Y3932122D01*
G01X9428605Y3928820D01*
G01X9431653Y3922724D01*
G01X9355199Y3885640D02*
G01X9355199Y3882592D01*
G01X9352151Y3876242D01*
G01X9349103Y3873194D01*
G01X9343007Y3870146D01*
G01X9330561Y3870146D01*
G01X9324211Y3873194D01*
G01X9321163Y3876242D01*
G01X9318115Y3882592D01*
G01X9318115Y3888688D01*
G01X9321163Y3894784D01*
G01X9327513Y3904182D01*
G01X9358247Y3935170D01*
G01X9315067Y3935170D01*
G01X12629368Y6083306D02*
G01X12694392Y6126740D01*
G01X12629368Y6126740D02*
G01X12694392Y6083306D01*
G01X12641814Y6156966D02*
G01X12638512Y6163062D01*
G01X12629368Y6172206D01*
G01X12694392Y6172206D01*
G01X12629368Y4876806D02*
G01X12694392Y4920240D01*
G01X12629368Y4920240D02*
G01X12694392Y4876806D01*
G01X12629368Y4956562D02*
G01X12629368Y4990598D01*
G01X12654006Y4972056D01*
G01X12654006Y4981200D01*
G01X12657054Y4987550D01*
G01X12660356Y4990598D01*
G01X12669500Y4993646D01*
G01X12675850Y4993646D01*
G01X12684994Y4990598D01*
G01X12691344Y4984502D01*
G01X12694392Y4975104D01*
G01X12694392Y4965706D01*
G01X12691344Y4956562D01*
G01X12688042Y4953514D01*
G01X12681946Y4950466D01*
G01X11586989Y6025477D02*
G01X11593339Y6028525D01*
G01X11599435Y6034875D01*
G01X11602483Y6040971D01*
G01X11602483Y6053417D01*
G01X11599435Y6059513D01*
G01X11593339Y6065863D01*
G01X11586989Y6068911D01*
G01X11577845Y6071959D01*
G01X11562351Y6071959D01*
G01X11552953Y6068911D01*
G01X11546857Y6065863D01*
G01X11540507Y6059513D01*
G01X11537459Y6053417D01*
G01X11537459Y6040971D01*
G01X11540507Y6034875D01*
G01X11546857Y6028525D01*
G01X11552953Y6025477D01*
G01X11602483Y5989155D02*
G01X11602483Y5955119D01*
G01X11577845Y5973661D01*
G01X11577845Y5964517D01*
G01X11574797Y5958167D01*
G01X11571495Y5955119D01*
G01X11562351Y5952071D01*
G01X11556001Y5952071D01*
G01X11546857Y5955119D01*
G01X11540507Y5961215D01*
G01X11537459Y5970613D01*
G01X11537459Y5980011D01*
G01X11540507Y5989155D01*
G01X11543809Y5992203D01*
G01X11549905Y5995251D01*
G01X11527011Y4473004D02*
G01X11520661Y4469956D01*
G01X11514565Y4463606D01*
G01X11511517Y4457510D01*
G01X11511517Y4445064D01*
G01X11514565Y4438968D01*
G01X11520661Y4432618D01*
G01X11527011Y4429570D01*
G01X11536155Y4426522D01*
G01X11551649Y4426522D01*
G01X11561047Y4429570D01*
G01X11567143Y4432618D01*
G01X11573493Y4438968D01*
G01X11576541Y4445064D01*
G01X11576541Y4457510D01*
G01X11573493Y4463606D01*
G01X11567143Y4469956D01*
G01X11561047Y4473004D01*
G01X11511517Y4533964D02*
G01X11554697Y4503230D01*
G01X11554697Y4549458D01*
G01X11511517Y4533964D02*
G01X11576541Y4533964D01*
G01X10180811Y4790504D02*
G01X10174461Y4787456D01*
G01X10168365Y4781106D01*
G01X10165317Y4775010D01*
G01X10165317Y4762564D01*
G01X10168365Y4756468D01*
G01X10174461Y4750118D01*
G01X10180811Y4747070D01*
G01X10189955Y4744022D01*
G01X10205449Y4744022D01*
G01X10214847Y4747070D01*
G01X10220943Y4750118D01*
G01X10227293Y4756468D01*
G01X10230341Y4762564D01*
G01X10230341Y4775010D01*
G01X10227293Y4781106D01*
G01X10220943Y4787456D01*
G01X10214847Y4790504D01*
G01X10180811Y4823778D02*
G01X10177763Y4823778D01*
G01X10171413Y4826826D01*
G01X10168365Y4829874D01*
G01X10165317Y4835970D01*
G01X10165317Y4848416D01*
G01X10168365Y4854766D01*
G01X10171413Y4857814D01*
G01X10177763Y4860862D01*
G01X10183859Y4860862D01*
G01X10189955Y4857814D01*
G01X10199353Y4851464D01*
G01X10230341Y4820730D01*
G01X10230341Y4863910D01*
G01X10165317Y4931220D02*
G01X10165317Y4900232D01*
G01X10193003Y4897184D01*
G01X10189955Y4900232D01*
G01X10186907Y4909376D01*
G01X10186907Y4918774D01*
G01X10189955Y4928172D01*
G01X10196305Y4934268D01*
G01X10205449Y4937316D01*
G01X10211799Y4937316D01*
G01X10220943Y4934268D01*
G01X10227293Y4928172D01*
G01X10230341Y4918774D01*
G01X10230341Y4909376D01*
G01X10227293Y4900232D01*
G01X10223991Y4897184D01*
G01X10217895Y4894136D01*
G01X10439260Y6211994D02*
G01X10436212Y6218344D01*
G01X10429862Y6224440D01*
G01X10423766Y6227488D01*
G01X10411320Y6227488D01*
G01X10405224Y6224440D01*
G01X10398874Y6218344D01*
G01X10395826Y6211994D01*
G01X10392778Y6202850D01*
G01X10392778Y6187356D01*
G01X10395826Y6177958D01*
G01X10398874Y6171862D01*
G01X10405224Y6165512D01*
G01X10411320Y6162464D01*
G01X10423766Y6162464D01*
G01X10429862Y6165512D01*
G01X10436212Y6171862D01*
G01X10439260Y6177958D01*
G01X10475582Y6227488D02*
G01X10509618Y6227488D01*
G01X10491076Y6202850D01*
G01X10500220Y6202850D01*
G01X10506570Y6199802D01*
G01X10509618Y6196500D01*
G01X10512666Y6187356D01*
G01X10512666Y6181006D01*
G01X10509618Y6171862D01*
G01X10503522Y6165512D01*
G01X10494124Y6162464D01*
G01X10484726Y6162464D01*
G01X10475582Y6165512D01*
G01X10472534Y6168814D01*
G01X10469486Y6174910D01*
G01X10579976Y6227488D02*
G01X10548988Y6227488D01*
G01X10545940Y6199802D01*
G01X10548988Y6202850D01*
G01X10558132Y6205898D01*
G01X10567530Y6205898D01*
G01X10576928Y6202850D01*
G01X10583024Y6196500D01*
G01X10586072Y6187356D01*
G01X10586072Y6181006D01*
G01X10583024Y6171862D01*
G01X10576928Y6165512D01*
G01X10567530Y6162464D01*
G01X10558132Y6162464D01*
G01X10548988Y6165512D01*
G01X10545940Y6168814D01*
G01X10542892Y6174910D01*
G04 Text End*

G04 PolygonModel Start*
G54D12*
G01X8968207Y8483600D02*
G01X7948193Y8483600D01*
G01X7948193Y8737600D01*
G01X8968207Y8737600D01*
G01X8968207Y8483600D01*
G01X9844507Y1066800D02*
G01X8824493Y1066800D01*
G01X8824493Y1320800D01*
G01X9844507Y1320800D01*
G01X9844507Y1066800D01*
G01X10183393Y1308100D02*
G01X11203407Y1308100D01*
G01X11203407Y1054100D01*
G01X10183393Y1054100D01*
G01X10183393Y1308100D01*
G54D10*
G01X12193191Y4181620D02*
G01X12193191Y4040619D01*
G01X12373912Y4040619D02*
G01X12373912Y4181620D01*
G01X12358672Y4196860D02*
G01X12208431Y4196860D01*
G01X12193191Y3819380D02*
G01X12193191Y3960381D01*
G01X12373912Y3960381D02*
G01X12373912Y3819380D01*
G01X12358672Y3804140D02*
G01X12208431Y3804140D01*
G01X12373912Y4181620D02*
G03X12358672Y4196860I-15240J0D01*
G01X12208431Y4196860D02*
G03X12193191Y4181620I0J-15240D01*
G01X12373912Y3819380D02*
G02X12358672Y3804140I-15240J0D01*
G01X12208431Y3804140D02*
G02X12193191Y3819380I0J15240D01*
G01X12373912Y4276580D02*
G01X12373912Y4417581D01*
G01X12193191Y4417581D02*
G01X12193191Y4276580D01*
G01X12208431Y4261340D02*
G01X12358672Y4261340D01*
G01X12373912Y4638820D02*
G01X12373912Y4497819D01*
G01X12193191Y4497819D02*
G01X12193191Y4638820D01*
G01X12208431Y4654060D02*
G01X12358672Y4654060D01*
G01X12193191Y4276580D02*
G03X12208431Y4261340I15240J0D01*
G01X12358672Y4261340D02*
G03X12373912Y4276580I0J15240D01*
G01X12193191Y4638820D02*
G02X12208431Y4654060I15240J0D01*
G01X12358672Y4654060D02*
G02X12373912Y4638820I0J-15240D01*
G01X8520240Y5756420D02*
G01X8520240Y5615419D01*
G01X8700961Y5615419D02*
G01X8700961Y5756420D01*
G01X8685721Y5771660D02*
G01X8535480Y5771660D01*
G01X8520240Y5394180D02*
G01X8520240Y5535181D01*
G01X8700961Y5535181D02*
G01X8700961Y5394180D01*
G01X8685721Y5378940D02*
G01X8535480Y5378940D01*
G01X8700961Y5756420D02*
G03X8685721Y5771660I-15240J0D01*
G01X8535480Y5771660D02*
G03X8520240Y5756420I0J-15240D01*
G01X8700961Y5394180D02*
G02X8685721Y5378940I-15240J0D01*
G01X8535480Y5378940D02*
G02X8520240Y5394180I0J15240D01*
G54D12*
G01X8346552Y5761276D02*
G01X8426554Y5761276D01*
G01X8315566Y5650301D02*
G01X8315564Y5730298D01*
G01X8457532Y5650301D02*
G01X8457532Y5730298D01*
G01X8314985Y5592712D02*
G01X8314985Y5512709D01*
G01X8345968Y5481729D02*
G01X8425965Y5481729D01*
G01X8456945Y5592712D02*
G01X8456943Y5512712D01*
G01X8345968Y5481724D02*
G02X8314985Y5512707I0J30983D01*
G01X8456950Y5512707D02*
G02X8425962Y5481724I-30983J0D01*
G01X8315564Y5730293D02*
G02X8346552Y5761276I30983J0D01*
G01X8426549Y5761276D02*
G02X8457529Y5730293I-3J-30983D01*
G54D10*
G01X265240Y2454420D02*
G01X265240Y2313419D01*
G01X445961Y2313419D02*
G01X445961Y2454420D01*
G01X430721Y2469660D02*
G01X280480Y2469660D01*
G01X265240Y2092180D02*
G01X265240Y2233181D01*
G01X445961Y2233181D02*
G01X445961Y2092180D01*
G01X430721Y2076940D02*
G01X280480Y2076940D01*
G01X445961Y2454420D02*
G03X430721Y2469660I-15240J0D01*
G01X280480Y2469660D02*
G03X265240Y2454420I0J-15240D01*
G01X445961Y2092180D02*
G02X430721Y2076940I-15240J0D01*
G01X280480Y2076940D02*
G02X265240Y2092180I0J15240D01*
G01X481140Y2454420D02*
G01X481140Y2313419D01*
G01X661861Y2313419D02*
G01X661861Y2454420D01*
G01X646621Y2469660D02*
G01X496380Y2469660D01*
G01X481140Y2092180D02*
G01X481140Y2233181D01*
G01X661861Y2233181D02*
G01X661861Y2092180D01*
G01X646621Y2076940D02*
G01X496380Y2076940D01*
G01X661861Y2454420D02*
G03X646621Y2469660I-15240J0D01*
G01X496380Y2469660D02*
G03X481140Y2454420I0J-15240D01*
G01X661861Y2092180D02*
G02X646621Y2076940I-15240J0D01*
G01X496380Y2076940D02*
G02X481140Y2092180I0J15240D01*
G54D12*
G01X6942800Y4298300D02*
G01X6818340Y4298302D01*
G01X6880570Y4230990D02*
G01X6880570Y4365610D01*
G01X7163054Y4578350D02*
G03X7170166Y4578350I3556J-399984D01*
G36*
G01X7437801Y3878301D02*
G01X7437801Y4478299D01*
G01X7437801Y4478299D01*
G02X7437801Y3878301I-314998J-299999D01*
G37*
G54D13*
G01X7009450Y3464090D02*
G01X7009788Y3464090D01*
G01X7009450Y3578093D02*
G01X7009450Y3570862D01*
G01X7010126Y3724110D02*
G01X7011482Y3724110D01*
G01X7010126Y3612101D02*
G01X7010126Y3617338D01*
G54D14*
G01X7060400Y3543097D02*
G01X7060413Y3464090D01*
G01X6960387Y3464090D01*
G01X6960387Y3541103D01*
G01X6960387Y3542094D01*
G54D13*
G01X7061556Y3578093D02*
G01X6959557Y3578093D01*
G01X7061401Y3612101D02*
G01X6959402Y3612101D01*
G54D14*
G01X7060400Y3645098D02*
G01X7060413Y3724110D01*
G01X6960387Y3724110D01*
G01X6960387Y3644100D01*
G54D12*
G01X2972499Y3960523D02*
G01X2972499Y4040525D01*
G01X3083474Y3929537D02*
G01X3003476Y3929537D01*
G01X3083474Y4071503D02*
G01X3003476Y4071503D01*
G01X3141063Y3928956D02*
G01X3221063Y3928956D01*
G01X3252046Y3959939D02*
G01X3252046Y4039936D01*
G01X3141063Y4070916D02*
G01X3221063Y4070916D01*
G01X3252051Y3959939D02*
G02X3221068Y3928956I-30983J0D01*
G01X3221068Y4070922D02*
G02X3252051Y4039936I0J-30983D01*
G01X3003481Y3929537D02*
G02X2972499Y3960523I0J30983D01*
G01X2972499Y4040520D02*
G02X3003481Y4071503I30983J0D01*
G54D10*
G01X3084640Y1717820D02*
G01X3084640Y1576819D01*
G01X3265361Y1576819D02*
G01X3265361Y1717820D01*
G01X3250121Y1733060D02*
G01X3099880Y1733060D01*
G01X3084640Y1355580D02*
G01X3084640Y1496581D01*
G01X3265361Y1496581D02*
G01X3265361Y1355580D01*
G01X3250121Y1340340D02*
G01X3099880Y1340340D01*
G01X3265361Y1717820D02*
G03X3250121Y1733060I-15240J0D01*
G01X3099880Y1733060D02*
G03X3084640Y1717820I0J-15240D01*
G01X3265361Y1355580D02*
G02X3250121Y1340340I-15240J0D01*
G01X3099880Y1340340D02*
G02X3084640Y1355580I0J15240D01*
G01X2856040Y1717820D02*
G01X2856040Y1576819D01*
G01X3036761Y1576819D02*
G01X3036761Y1717820D01*
G01X3021521Y1733060D02*
G01X2871280Y1733060D01*
G01X2856040Y1355580D02*
G01X2856040Y1496581D01*
G01X3036761Y1496581D02*
G01X3036761Y1355580D01*
G01X3021521Y1340340D02*
G01X2871280Y1340340D01*
G01X3036761Y1717820D02*
G03X3021521Y1733060I-15240J0D01*
G01X2871280Y1733060D02*
G03X2856040Y1717820I0J-15240D01*
G01X3036761Y1355580D02*
G02X3021521Y1340340I-15240J0D01*
G01X2871280Y1340340D02*
G02X2856040Y1355580I0J15240D01*
G54D12*
G01X751177Y5956999D02*
G01X671175Y5956999D01*
G01X782163Y6067974D02*
G01X782163Y5987976D01*
G01X640197Y6067974D02*
G01X640197Y5987976D01*
G01X782744Y6125563D02*
G01X782744Y6205563D01*
G01X751761Y6236546D02*
G01X671764Y6236546D01*
G01X640784Y6125563D02*
G01X640784Y6205563D01*
G01X751761Y6236551D02*
G02X782744Y6205568I0J-30983D01*
G01X640779Y6205568D02*
G02X671764Y6236551I30983J0D01*
G01X782163Y5987981D02*
G02X751177Y5956999I-30983J0D01*
G01X671180Y5956999D02*
G02X640197Y5987981I0J30983D01*
G01X951802Y6643977D02*
G01X951802Y6563975D01*
G01X840826Y6674963D02*
G01X920824Y6674963D01*
G01X840826Y6532997D02*
G01X920824Y6532997D01*
G01X783237Y6675544D02*
G01X703237Y6675544D01*
G01X672254Y6644561D02*
G01X672254Y6564564D01*
G01X783237Y6533584D02*
G01X703237Y6533584D01*
G01X672249Y6644561D02*
G02X703232Y6675544I30983J0D01*
G01X703232Y6533579D02*
G02X672249Y6564564I0J30983D01*
G01X920819Y6674963D02*
G02X951802Y6643977I0J-30983D01*
G01X951802Y6563980D02*
G02X920819Y6532997I-30983J0D01*
G01X6552502Y5475577D02*
G01X6552502Y5395575D01*
G01X6441526Y5506563D02*
G01X6521524Y5506563D01*
G01X6441526Y5364597D02*
G01X6521524Y5364597D01*
G01X6383937Y5507144D02*
G01X6303937Y5507144D01*
G01X6272954Y5476161D02*
G01X6272954Y5396164D01*
G01X6383937Y5365184D02*
G01X6303937Y5365184D01*
G01X6272949Y5476161D02*
G02X6303932Y5507144I30983J0D01*
G01X6303932Y5365179D02*
G02X6272949Y5396164I0J30983D01*
G01X6521519Y5506563D02*
G02X6552502Y5475577I0J-30983D01*
G01X6552502Y5395580D02*
G02X6521519Y5364597I-30983J0D01*
G01X826199Y3935123D02*
G01X826199Y4015125D01*
G01X937174Y3904137D02*
G01X857176Y3904137D01*
G01X937174Y4046103D02*
G01X857176Y4046103D01*
G01X994763Y3903556D02*
G01X1074763Y3903556D01*
G01X1105746Y3934539D02*
G01X1105746Y4014536D01*
G01X994763Y4045516D02*
G01X1074763Y4045516D01*
G01X1105751Y3934539D02*
G02X1074768Y3903556I-30983J0D01*
G01X1074768Y4045522D02*
G02X1105751Y4014536I0J-30983D01*
G01X857181Y3904137D02*
G02X826199Y3935123I0J30983D01*
G01X826199Y4015120D02*
G02X857181Y4046103I30983J0D01*
G36*
G01X2654300Y3897401D02*
G01X2654211Y5170279D01*
G01X2654300Y5170190D01*
G02X2917904Y4533796I-636394J-636395D01*
G01X2917904Y4533796D01*
G02X2654300Y3897401I-899998J1D01*
G37*
G01X3660699Y7865301D02*
G01X2460701Y7865301D01*
G01X2460701Y8365300D02*
G01X3660699Y8365300D01*
G01X2460701Y7865301D02*
G01X2460701Y8069042D01*
G01X2460701Y8161558D02*
G01X2460701Y8365300D01*
G01X3660699Y8365300D02*
G01X3660699Y8161558D01*
G01X3660699Y8069042D02*
G01X3660699Y7865301D01*
G54D13*
G01X5953290Y2667950D02*
G01X5953290Y2667612D01*
G01X6067293Y2667950D02*
G01X6060062Y2667950D01*
G01X6213310Y2667274D02*
G01X6213310Y2665918D01*
G01X6101301Y2667274D02*
G01X6106538Y2667274D01*
G54D14*
G01X6032297Y2617000D02*
G01X5953290Y2616987D01*
G01X5953290Y2717013D01*
G01X6030303Y2717013D01*
G01X6031294Y2717013D01*
G54D13*
G01X6067293Y2615844D02*
G01X6067293Y2717843D01*
G01X6101301Y2615999D02*
G01X6101301Y2717998D01*
G54D14*
G01X6134298Y2617000D02*
G01X6213310Y2616987D01*
G01X6213310Y2717013D01*
G01X6133300Y2717013D01*
G54D10*
G01X6823220Y7888161D02*
G01X6682219Y7888161D01*
G01X6682219Y7707440D02*
G01X6823220Y7707440D01*
G01X6838460Y7722680D02*
G01X6838460Y7872921D01*
G01X6460980Y7888161D02*
G01X6601981Y7888161D01*
G01X6601981Y7707440D02*
G01X6460980Y7707440D01*
G01X6445740Y7722680D02*
G01X6445740Y7872921D01*
G01X6823220Y7707440D02*
G03X6838460Y7722680I0J15240D01*
G01X6838460Y7872921D02*
G03X6823220Y7888161I-15240J0D01*
G01X6460980Y7707440D02*
G02X6445740Y7722680I0J15240D01*
G01X6445740Y7872921D02*
G02X6460980Y7888161I15240J0D01*
G54D12*
G01X5870499Y7890701D02*
G01X4670501Y7890701D01*
G01X4670501Y8390700D02*
G01X5870499Y8390700D01*
G01X4670501Y7890701D02*
G01X4670501Y8094442D01*
G01X4670501Y8186958D02*
G01X4670501Y8390700D01*
G01X5870499Y8390700D02*
G01X5870499Y8186958D01*
G01X5870499Y8094442D02*
G01X5870499Y7890701D01*
G54D13*
G01X6069650Y3032290D02*
G01X6069988Y3032290D01*
G01X6069650Y3146293D02*
G01X6069650Y3139062D01*
G01X6070326Y3292310D02*
G01X6071682Y3292310D01*
G01X6070326Y3180301D02*
G01X6070326Y3185538D01*
G54D14*
G01X6120600Y3111297D02*
G01X6120613Y3032290D01*
G01X6020587Y3032290D01*
G01X6020587Y3109303D01*
G01X6020587Y3110294D01*
G54D13*
G01X6121756Y3146293D02*
G01X6019757Y3146293D01*
G01X6121601Y3180301D02*
G01X6019602Y3180301D01*
G54D14*
G01X6120600Y3213298D02*
G01X6120613Y3292310D01*
G01X6020587Y3292310D01*
G01X6020587Y3212300D01*
G54D10*
G01X5397680Y5148539D02*
G01X5546179Y5148539D01*
G01X5546179Y5367061D02*
G01X5397680Y5367061D01*
G01X5382440Y5351821D02*
G01X5382440Y5163779D01*
G01X5879920Y5148539D02*
G01X5731421Y5148539D01*
G01X5731421Y5367061D02*
G01X5879920Y5367061D01*
G01X5895160Y5351821D02*
G01X5895160Y5163779D01*
G01X5397680Y5367061D02*
G03X5382440Y5351821I0J-15240D01*
G01X5382440Y5163779D02*
G03X5397680Y5148539I15240J0D01*
G01X5879920Y5367061D02*
G02X5895160Y5351821I0J-15240D01*
G01X5895160Y5163779D02*
G02X5879920Y5148539I-15240J0D01*
G54D12*
G01X6724000Y2201200D02*
G01X6724002Y2325660D01*
G01X6656690Y2263430D02*
G01X6791310Y2263430D01*
G01X7004050Y1980946D02*
G03X7004050Y1973834I-399984J-3556D01*
G36*
G01X6304001Y1706199D02*
G01X6903999Y1706199D01*
G01X6903999Y1706199D01*
G02X6304001Y1706199I-299999J314998D01*
G37*
G54D10*
G01X6742422Y5146017D02*
G01X6742422Y4810783D01*
G01X6567178Y5146017D02*
G01X6567178Y4810783D01*
G01X6742425Y4917968D02*
G01X6567175Y4917968D01*
G36*
G01X6750040Y4818400D02*
G01X6750040Y4772680D01*
G01X6734840Y4772680D01*
G01X6734840Y4818400D01*
G01X6750040Y4818400D01*
G37*
G36*
G01X6559560Y4818400D02*
G01X6574760Y4818400D01*
G01X6574760Y4772680D01*
G01X6559560Y4772680D01*
G01X6559560Y4818400D01*
G37*
G54D13*
G01X6071550Y3635210D02*
G01X6071212Y3635210D01*
G01X6071550Y3521207D02*
G01X6071550Y3528438D01*
G01X6070874Y3375190D02*
G01X6069518Y3375190D01*
G01X6070874Y3487199D02*
G01X6070874Y3481962D01*
G54D14*
G01X6020600Y3556203D02*
G01X6020587Y3635210D01*
G01X6120613Y3635210D01*
G01X6120613Y3558197D01*
G01X6120613Y3557207D01*
G54D13*
G01X6019444Y3521207D02*
G01X6121443Y3521207D01*
G01X6019599Y3487199D02*
G01X6121598Y3487199D01*
G54D14*
G01X6020600Y3454202D02*
G01X6020587Y3375190D01*
G01X6120613Y3375190D01*
G01X6120613Y3455200D01*
G36*
G01X4800600Y3884701D02*
G01X4800511Y5157579D01*
G01X4800600Y5157490D01*
G02X5064204Y4521096I-636394J-636395D01*
G01X5064204Y4521096D01*
G02X4800600Y3884701I-899998J1D01*
G37*
G54D12*
G01X850900Y6289586D02*
G01X850900Y6235814D01*
G01X901700Y6289586D02*
G01X901700Y6235814D01*
G54D15*
G01X803300Y6191700D02*
G01X803300Y6102701D01*
G01X949300Y6102706D01*
G01X949300Y6188710D01*
G54D14*
G01X949300Y6422700D02*
G01X949300Y6337701D01*
G01X803300Y6338697D02*
G01X803300Y6422695D01*
G01X949300Y6422700D01*
G54D10*
G01X8901240Y3297773D02*
G01X8901240Y3156773D01*
G01X9081961Y3156773D02*
G01X9081961Y3297773D01*
G01X9066721Y3313013D02*
G01X8916480Y3313013D01*
G01X8901240Y2935534D02*
G01X8901240Y3076534D01*
G01X9081961Y3076534D02*
G01X9081961Y2935534D01*
G01X9066721Y2920294D02*
G01X8916480Y2920294D01*
G01X9081961Y3297773D02*
G03X9066721Y3313013I-15240J0D01*
G01X8916480Y3313013D02*
G03X8901240Y3297773I0J-15240D01*
G01X9081961Y2935534D02*
G02X9066721Y2920294I-15240J0D01*
G01X8916480Y2920294D02*
G02X8901240Y2935534I0J15240D01*
G54D12*
G01X5699214Y2641600D02*
G01X5752986Y2641600D01*
G01X5699214Y2692400D02*
G01X5752986Y2692400D01*
G54D15*
G01X5797100Y2594000D02*
G01X5886099Y2594000D01*
G01X5886094Y2740000D01*
G01X5800090Y2740000D01*
G54D14*
G01X5566100Y2740000D02*
G01X5651099Y2740000D01*
G01X5650103Y2594000D02*
G01X5566105Y2594000D01*
G01X5566100Y2740000D01*
G54D12*
G01X11678834Y4456552D02*
G01X11598831Y4456552D01*
G01X11709819Y4567527D02*
G01X11709819Y4487530D01*
G01X11567853Y4567527D02*
G01X11567853Y4487530D01*
G01X11710401Y4625116D02*
G01X11710401Y4705116D01*
G01X11679418Y4736099D02*
G01X11599421Y4736099D01*
G01X11568440Y4625116D02*
G01X11568440Y4705116D01*
G01X11679418Y4736104D02*
G02X11710401Y4705121I0J-30983D01*
G01X11568435Y4705121D02*
G02X11599421Y4736104I30983J0D01*
G01X11709819Y4487535D02*
G02X11678834Y4456552I-30983J0D01*
G01X11598836Y4456552D02*
G02X11567853Y4487535I0J30983D01*
G54D10*
G01X12193191Y5248420D02*
G01X12193191Y5107419D01*
G01X12373912Y5107419D02*
G01X12373912Y5248420D01*
G01X12358672Y5263660D02*
G01X12208431Y5263660D01*
G01X12193191Y4886180D02*
G01X12193191Y5027181D01*
G01X12373912Y5027181D02*
G01X12373912Y4886180D01*
G01X12358672Y4870940D02*
G01X12208431Y4870940D01*
G01X12373912Y5248420D02*
G03X12358672Y5263660I-15240J0D01*
G01X12208431Y5263660D02*
G03X12193191Y5248420I0J-15240D01*
G01X12373912Y4886180D02*
G02X12358672Y4870940I-15240J0D01*
G01X12208431Y4870940D02*
G02X12193191Y4886180I0J15240D01*
G54D13*
G01X6412550Y3375190D02*
G01X6412888Y3375190D01*
G01X6412550Y3489193D02*
G01X6412550Y3481962D01*
G01X6413226Y3635210D02*
G01X6414582Y3635210D01*
G01X6413226Y3523201D02*
G01X6413226Y3528438D01*
G54D14*
G01X6463500Y3454197D02*
G01X6463513Y3375190D01*
G01X6363487Y3375190D01*
G01X6363487Y3452203D01*
G01X6363487Y3453194D01*
G54D13*
G01X6464656Y3489193D02*
G01X6362657Y3489193D01*
G01X6464501Y3523201D02*
G01X6362502Y3523201D01*
G54D14*
G01X6463500Y3556198D02*
G01X6463513Y3635210D01*
G01X6363487Y3635210D01*
G01X6363487Y3555200D01*
G54D13*
G01X6856560Y3724110D02*
G01X6856222Y3724110D01*
G01X6856560Y3610107D02*
G01X6856560Y3617338D01*
G01X6855884Y3464090D02*
G01X6854528Y3464090D01*
G01X6855884Y3576099D02*
G01X6855884Y3570862D01*
G54D14*
G01X6805610Y3645103D02*
G01X6805597Y3724110D01*
G01X6905622Y3724110D01*
G01X6905622Y3647097D01*
G01X6905622Y3646107D01*
G54D13*
G01X6804454Y3610107D02*
G01X6906453Y3610107D01*
G01X6804609Y3576099D02*
G01X6906608Y3576099D01*
G54D14*
G01X6805610Y3543102D02*
G01X6805597Y3464090D01*
G01X6905622Y3464090D01*
G01X6905622Y3544100D01*
G54D13*
G01X6222050Y3032290D02*
G01X6222388Y3032290D01*
G01X6222050Y3146293D02*
G01X6222050Y3139062D01*
G01X6222726Y3292310D02*
G01X6224082Y3292310D01*
G01X6222726Y3180301D02*
G01X6222726Y3185538D01*
G54D14*
G01X6273000Y3111297D02*
G01X6273013Y3032290D01*
G01X6172987Y3032290D01*
G01X6172987Y3109303D01*
G01X6172987Y3110294D01*
G54D13*
G01X6274156Y3146293D02*
G01X6172157Y3146293D01*
G01X6274001Y3180301D02*
G01X6172002Y3180301D01*
G54D14*
G01X6273000Y3213298D02*
G01X6273013Y3292310D01*
G01X6172987Y3292310D01*
G01X6172987Y3212300D01*
G54D13*
G01X7301550Y5203990D02*
G01X7301888Y5203990D01*
G01X7301550Y5317993D02*
G01X7301550Y5310762D01*
G01X7302226Y5464010D02*
G01X7303582Y5464010D01*
G01X7302226Y5352001D02*
G01X7302226Y5357238D01*
G54D14*
G01X7352500Y5282997D02*
G01X7352513Y5203990D01*
G01X7252487Y5203990D01*
G01X7252487Y5281003D01*
G01X7252487Y5281994D01*
G54D13*
G01X7353656Y5317993D02*
G01X7251657Y5317993D01*
G01X7353501Y5352001D02*
G01X7251502Y5352001D01*
G54D14*
G01X7352500Y5384998D02*
G01X7352513Y5464010D01*
G01X7252487Y5464010D01*
G01X7252487Y5384000D01*
G54D10*
G01X12373912Y5343380D02*
G01X12373912Y5484381D01*
G01X12193191Y5484381D02*
G01X12193191Y5343380D01*
G01X12208431Y5328140D02*
G01X12358672Y5328140D01*
G01X12373912Y5705620D02*
G01X12373912Y5564619D01*
G01X12193191Y5564619D02*
G01X12193191Y5705620D01*
G01X12208431Y5720860D02*
G01X12358672Y5720860D01*
G01X12193191Y5343380D02*
G03X12208431Y5328140I15240J0D01*
G01X12358672Y5328140D02*
G03X12373912Y5343380I0J15240D01*
G01X12193191Y5705620D02*
G02X12208431Y5720860I15240J0D01*
G01X12358672Y5720860D02*
G02X12373912Y5705620I0J-15240D01*
G54D12*
G01X12559602Y8002877D02*
G01X12559602Y7922875D01*
G01X12448626Y8033863D02*
G01X12528624Y8033863D01*
G01X12448626Y7891897D02*
G01X12528624Y7891897D01*
G01X12391037Y8034444D02*
G01X12311037Y8034444D01*
G01X12280054Y8003461D02*
G01X12280054Y7923464D01*
G01X12391037Y7892484D02*
G01X12311037Y7892484D01*
G01X12280049Y8003461D02*
G02X12311032Y8034444I30983J0D01*
G01X12311032Y7892479D02*
G02X12280049Y7923464I0J30983D01*
G01X12528619Y8033863D02*
G02X12559602Y8002877I0J-30983D01*
G01X12559602Y7922880D02*
G02X12528619Y7891897I-30983J0D01*
G01X6576695Y8300720D02*
G01X6576695Y8879840D01*
G01X7326706Y8879840D02*
G01X6576695Y8879840D01*
G01X7328535Y8300720D02*
G01X7328535Y8880729D01*
G01X7328535Y8300720D02*
G01X6578524Y8300720D01*
G01X7267575Y8364220D02*
G01X6640195Y8364220D01*
G01X6640195Y8818880D01*
G01X6581775Y8303260D02*
G01X6581775Y8310880D01*
G01X6642735Y8371840D01*
G01X7325995Y8303260D02*
G01X7325995Y8310880D01*
G01X7265035Y8371840D01*
G01X7328535Y8732520D02*
G01X7270115Y8732520D01*
G01X6637655Y8750300D02*
G01X6579235Y8750300D01*
G01X7204075Y8877300D02*
G01X7204075Y8818880D01*
G01X6640195Y8818880D02*
G01X7267575Y8818880D01*
G01X7267575Y8818880D02*
G01X7267575Y8366760D01*
G01X7265035Y8366760D01*
G01X7126605Y8878570D02*
G01X7126605Y8820150D01*
G01X6779895Y8877300D02*
G01X6779895Y8818880D01*
G01X6702425Y8878570D02*
G01X6702425Y8820150D01*
G01X10143757Y8584065D02*
G01X10082139Y8584065D01*
G01X10082139Y8203601D01*
G01X9212141Y8203601D01*
G01X9212141Y8583600D01*
G01X9142743Y8583600D01*
G01X9302128Y8727440D02*
G01X9302128Y8673592D01*
G01X9265778Y8673592D01*
G01X9142743Y8673592D01*
G01X9870303Y8727440D02*
G01X9870303Y8673600D01*
G01X9422140Y8673600D01*
G01X9422140Y8727440D01*
G01X9980793Y8727440D02*
G01X9980793Y8673600D01*
G01X10143757Y8673600D01*
G01X10143757Y8146796D02*
G01X10143757Y8726805D01*
G01X10143503Y8145780D02*
G01X9143505Y8145780D01*
G01X9142743Y8145780D02*
G01X9142743Y8724903D01*
G01X10143503Y8727440D02*
G01X9143505Y8727440D01*
G01X6313805Y1567180D02*
G01X6313805Y988060D01*
G01X5563794Y988060D02*
G01X6313805Y988060D01*
G01X5561965Y1567180D02*
G01X5561965Y987171D01*
G01X5561965Y1567180D02*
G01X6311976Y1567180D01*
G01X5622925Y1503680D02*
G01X6250305Y1503680D01*
G01X6250305Y1049020D01*
G01X6308725Y1564640D02*
G01X6308725Y1557020D01*
G01X6247765Y1496060D01*
G01X5564505Y1564640D02*
G01X5564505Y1557020D01*
G01X5625465Y1496060D01*
G01X5561965Y1135380D02*
G01X5620385Y1135380D01*
G01X6252845Y1117600D02*
G01X6311265Y1117600D01*
G01X5686425Y990600D02*
G01X5686425Y1049020D01*
G01X6250305Y1049020D02*
G01X5622925Y1049020D01*
G01X5622925Y1049020D02*
G01X5622925Y1501140D01*
G01X5625465Y1501140D01*
G01X5763895Y989330D02*
G01X5763895Y1047750D01*
G01X6110605Y990600D02*
G01X6110605Y1049020D01*
G01X6188075Y989330D02*
G01X6188075Y1047750D01*
G01X12101195Y8084820D02*
G01X12101195Y8663940D01*
G01X12851206Y8663940D02*
G01X12101195Y8663940D01*
G01X12853035Y8084820D02*
G01X12853035Y8664829D01*
G01X12853035Y8084820D02*
G01X12103024Y8084820D01*
G01X12792075Y8148320D02*
G01X12164695Y8148320D01*
G01X12164695Y8602980D01*
G01X12106275Y8087360D02*
G01X12106275Y8094980D01*
G01X12167235Y8155940D01*
G01X12850495Y8087360D02*
G01X12850495Y8094980D01*
G01X12789535Y8155940D01*
G01X12853035Y8516620D02*
G01X12794615Y8516620D01*
G01X12162155Y8534400D02*
G01X12103735Y8534400D01*
G01X12728575Y8661400D02*
G01X12728575Y8602980D01*
G01X12164695Y8602980D02*
G01X12792075Y8602980D01*
G01X12792075Y8602980D02*
G01X12792075Y8150860D01*
G01X12789535Y8150860D01*
G01X12651105Y8662670D02*
G01X12651105Y8604250D01*
G01X12304395Y8661400D02*
G01X12304395Y8602980D01*
G01X12226925Y8662670D02*
G01X12226925Y8604250D01*
G54D16*
G01X5740400Y5040020D02*
G01X5740400Y4662780D01*
G54D10*
G01X5567629Y5040020D02*
G01X6116371Y5040020D01*
G01X5567629Y4662780D02*
G01X6116371Y4662780D01*
G01X6116371Y5040020D02*
G01X6116371Y4981339D01*
G01X6116371Y4662780D02*
G01X6116371Y4721461D01*
G36*
G01X5575249Y5047640D02*
G01X5575249Y4976259D01*
G01X5529529Y4976259D01*
G01X5529529Y5047640D01*
G01X5575249Y5047640D01*
G37*
G36*
G01X5575249Y4655160D02*
G01X5529529Y4655160D01*
G01X5529529Y4726541D01*
G01X5575249Y4726541D01*
G01X5575249Y4655160D01*
G37*
G01X5814522Y2277024D02*
G01X5539278Y2277024D01*
G01X5814522Y2091776D02*
G01X5539278Y2091776D01*
G01X5539278Y2091776D02*
G01X5539278Y2111080D01*
G01X5539278Y2277024D02*
G01X5539278Y2257720D01*
G01X5768579Y2096778D02*
G01X5768579Y2272022D01*
G36*
G01X5806900Y2084159D02*
G01X5806900Y2116158D01*
G01X5837380Y2116158D01*
G01X5837380Y2084159D01*
G01X5806900Y2084159D01*
G37*
G36*
G01X5806900Y2284641D02*
G01X5837380Y2284641D01*
G01X5837380Y2252642D01*
G01X5806900Y2252642D01*
G01X5806900Y2284641D01*
G37*
G01X5952576Y2144222D02*
G01X5952576Y1868978D01*
G01X6137824Y2144222D02*
G01X6137824Y1868978D01*
G01X6137824Y1868978D02*
G01X6118520Y1868978D01*
G01X5952576Y1868978D02*
G01X5971880Y1868978D01*
G01X6132822Y2098279D02*
G01X5957578Y2098279D01*
G36*
G01X6145441Y2136600D02*
G01X6113442Y2136600D01*
G01X6113442Y2167080D01*
G01X6145441Y2167080D01*
G01X6145441Y2136600D01*
G37*
G36*
G01X5944959Y2136600D02*
G01X5944959Y2167080D01*
G01X5976958Y2167080D01*
G01X5976958Y2136600D01*
G01X5944959Y2136600D01*
G37*
G01X5381879Y6401308D02*
G01X5667121Y6401308D01*
G01X5381879Y6230082D02*
G01X5381879Y6749318D01*
G01X5642061Y6749029D02*
G01X5665983Y6749697D01*
G01X5381879Y6749318D02*
G01X5405801Y6749987D01*
G01X5667121Y6230082D02*
G01X5667121Y6749318D01*
G36*
G01X5374259Y6237699D02*
G01X5414919Y6237567D01*
G01X5414467Y6191613D01*
G01X5374259Y6191979D01*
G01X5374259Y6237699D01*
G37*
G36*
G01X5634096Y6238522D02*
G01X5674756Y6238390D01*
G01X5674304Y6192436D01*
G01X5634096Y6192802D01*
G01X5634096Y6238522D01*
G37*
G01X5991479Y6401308D02*
G01X6276721Y6401308D01*
G01X5991479Y6230082D02*
G01X5991479Y6749318D01*
G01X6251661Y6749029D02*
G01X6275583Y6749697D01*
G01X5991479Y6749318D02*
G01X6015401Y6749987D01*
G01X6276721Y6230082D02*
G01X6276721Y6749318D01*
G36*
G01X5983859Y6237699D02*
G01X6024519Y6237567D01*
G01X6024067Y6191613D01*
G01X5983859Y6191979D01*
G01X5983859Y6237699D01*
G37*
G36*
G01X6243696Y6238522D02*
G01X6284356Y6238390D01*
G01X6283904Y6192436D01*
G01X6243696Y6192802D01*
G01X6243696Y6238522D01*
G37*
G01X9308879Y2587221D02*
G01X9308879Y2441979D01*
G01X9308879Y2441979D02*
G01X9412041Y2441979D01*
G01X9614121Y2587221D02*
G01X9614121Y2441979D01*
G01X9614121Y2441979D02*
G01X9510959Y2441979D01*
G01X9415960Y2587221D02*
G01X9507040Y2587221D01*
G01X5814522Y2543724D02*
G01X5539278Y2543724D01*
G01X5814522Y2358476D02*
G01X5539278Y2358476D01*
G01X5539278Y2358476D02*
G01X5539278Y2377780D01*
G01X5539278Y2543724D02*
G01X5539278Y2524420D01*
G01X5768579Y2363478D02*
G01X5768579Y2538722D01*
G36*
G01X5806900Y2350859D02*
G01X5806900Y2382858D01*
G01X5837380Y2382858D01*
G01X5837380Y2350859D01*
G01X5806900Y2350859D01*
G37*
G36*
G01X5806900Y2551341D02*
G01X5837380Y2551341D01*
G01X5837380Y2519342D01*
G01X5806900Y2519342D01*
G01X5806900Y2551341D01*
G37*
G54D12*
G01X8919200Y5627200D02*
G01X8919200Y5447200D01*
G01X8759200Y5625010D02*
G01X8759200Y5449390D01*
G54D14*
G01X8839200Y5549900D02*
G01X8887460Y5501640D01*
G01X8790940Y5501640D01*
G01X8836660Y5547360D01*
G01X8897620Y5560060D02*
G01X8785860Y5560060D01*
G01X8839200Y5598160D02*
G01X8839200Y5468620D01*
G54D10*
G01X5460710Y7793218D02*
G01X5460710Y7522982D01*
G54D16*
G01X5732506Y7555085D02*
G01X5732506Y7522982D01*
G01X5732506Y7793218D02*
G01X5732506Y7761115D01*
G54D10*
G01X5367269Y7793218D02*
G01X5732506Y7793218D01*
G01X5367269Y7522982D02*
G01X5732506Y7522982D01*
G36*
G01X5375900Y7800099D02*
G01X5376901Y7760099D01*
G01X5348900Y7760099D01*
G01X5348900Y7800099D01*
G01X5375900Y7800099D01*
G37*
G36*
G01X5348900Y7515103D02*
G01X5348900Y7555103D01*
G01X5376901Y7555103D01*
G01X5376901Y7515103D01*
G01X5348900Y7515103D01*
G37*
G01X5319222Y3966124D02*
G01X5043978Y3966124D01*
G01X5319222Y3780876D02*
G01X5043978Y3780876D01*
G01X5043978Y3780876D02*
G01X5043978Y3800180D01*
G01X5043978Y3966124D02*
G01X5043978Y3946820D01*
G01X5273279Y3785878D02*
G01X5273279Y3961122D01*
G36*
G01X5311600Y3773259D02*
G01X5311600Y3805258D01*
G01X5342080Y3805258D01*
G01X5342080Y3773259D01*
G01X5311600Y3773259D01*
G37*
G36*
G01X5311600Y3973741D02*
G01X5342080Y3973741D01*
G01X5342080Y3941742D01*
G01X5311600Y3941742D01*
G01X5311600Y3973741D01*
G37*
G54D16*
G01X6839699Y4763186D02*
G01X6857083Y4763186D01*
G01X6839699Y4914214D02*
G01X6857083Y4914214D01*
G01X6839699Y4914214D02*
G01X6839699Y4925319D01*
G01X6857083Y4925319D01*
G01X6857083Y4752081D02*
G01X6839699Y4752081D01*
G01X6839699Y4763186D01*
G01X6857083Y4763186D02*
G01X6857083Y4752081D01*
G01X6857083Y4925319D02*
G01X6857083Y4914214D01*
G01X6914987Y4925319D02*
G01X6914987Y4752081D01*
G54D10*
G01X6900700Y4925319D02*
G01X6900700Y4752081D01*
G01X6857083Y4925319D02*
G01X7138317Y4925319D01*
G01X7138317Y4925319D02*
G01X7138317Y4908520D01*
G01X6857083Y4752081D02*
G01X7138317Y4752081D01*
G01X7138317Y4752081D02*
G01X7138317Y4768880D01*
G54D16*
G01X6483022Y8129819D02*
G01X6452100Y8129819D01*
G01X6483022Y7973792D02*
G01X6452100Y7973792D01*
G01X6472997Y7973792D02*
G01X6472997Y7951805D01*
G01X6472997Y8151805D02*
G01X6472997Y8129819D01*
G01X6462969Y8129819D02*
G01X6462969Y8151805D01*
G01X6462969Y7951805D02*
G01X6462969Y7973792D01*
G01X6483022Y7973792D02*
G01X6483022Y7951805D01*
G01X6483022Y8151805D02*
G01X6483022Y8129819D01*
G01X6822100Y8129819D02*
G01X6822100Y8151805D01*
G01X6762100Y8151805D01*
G01X6452100Y7973792D02*
G01X6452100Y7951805D01*
G01X6802100Y7951805D01*
G01X6822100Y7951805D01*
G01X6822100Y7973792D01*
G01X6782100Y8151805D02*
G01X6452100Y8151805D01*
G01X6452100Y8129819D01*
G54D12*
G01X6591300Y8051805D02*
G01X6692900Y8092445D01*
G01X6692900Y8092445D02*
G01X6692900Y8011165D01*
G01X6692900Y8011165D02*
G01X6591300Y8051805D01*
G01X5330698Y2818790D02*
G01X3330702Y2818790D01*
G01X3330702Y3378784D01*
G01X5330698Y3378784D01*
G01X5330698Y2818790D01*
G01X2739898Y2818790D02*
G01X739902Y2818790D01*
G01X739902Y3378784D01*
G01X2739898Y3378784D01*
G01X2739898Y2818790D01*
G01X749902Y2736101D02*
G01X749902Y3436099D01*
G01X2729898Y3436099D01*
G01X2729898Y2736101D01*
G01X749902Y2736101D01*
G01X2254885Y2911094D02*
G01X1214882Y2911094D01*
G01X1214882Y3256102D01*
G01X2254885Y3256102D01*
G01X2254885Y2911094D01*
G01X3340100Y2736101D02*
G01X3340100Y3436099D01*
G01X5320096Y3436099D01*
G01X5320096Y2736101D01*
G01X3340100Y2736101D01*
G01X4845083Y2911094D02*
G01X3805080Y2911094D01*
G01X3805080Y3256102D01*
G01X4845083Y3256102D01*
G01X4845083Y2911094D01*
G01X11359627Y8716404D02*
G01X11359627Y8462404D01*
G01X10301625Y8716404D02*
G01X11359627Y8716404D01*
G01X10578978Y8716404D02*
G01X10578978Y8462404D01*
G01X10301625Y8462404D02*
G01X11359627Y8462404D01*
G01X10301625Y8716404D02*
G01X10301625Y8462404D01*
G01X9862500Y2080798D02*
G01X9862500Y1830799D01*
G01X9314500Y2080798D02*
G01X9862500Y2080798D01*
G01X9314500Y1830799D02*
G01X9314500Y2080798D01*
G01X9862500Y1830799D02*
G01X9314500Y1830799D01*
G01X11295700Y1043402D02*
G01X11295700Y1293401D01*
G01X11843700Y1043402D02*
G01X11295700Y1043402D01*
G01X11843700Y1293401D02*
G01X11843700Y1043402D01*
G01X11295700Y1293401D02*
G01X11843700Y1293401D01*
G01X12110598Y1411900D02*
G01X12730592Y1411900D01*
G01X12730592Y1051898D02*
G01X12110598Y1051898D01*
G01X12115795Y1104897D02*
G01X12166595Y1054097D01*
G01X12115795Y1358897D02*
G01X12166595Y1409697D01*
G01X12674595Y1409697D02*
G01X12725395Y1358897D01*
G01X12674595Y1054097D02*
G01X12725395Y1104897D01*
G01X12730592Y1411900D02*
G01X12730592Y1330013D01*
G01X12730592Y1133785D02*
G01X12730592Y1051898D01*
G01X12110598Y1411900D02*
G01X12110598Y1330013D01*
G01X12110598Y1133785D02*
G01X12110598Y1051898D01*
G01X12481900Y6293998D02*
G01X12481900Y6913992D01*
G01X12841902Y6913992D02*
G01X12841902Y6293998D01*
G01X12788903Y6299195D02*
G01X12839703Y6349995D01*
G01X12534903Y6299195D02*
G01X12484103Y6349995D01*
G01X12484103Y6857995D02*
G01X12534903Y6908795D01*
G01X12839703Y6857995D02*
G01X12788903Y6908795D01*
G01X12481900Y6913992D02*
G01X12563787Y6913992D01*
G01X12760015Y6913992D02*
G01X12841902Y6913992D01*
G01X12481900Y6293998D02*
G01X12563787Y6293998D01*
G01X12760015Y6293998D02*
G01X12841902Y6293998D01*
G01X5556301Y4679899D02*
G01X6356299Y4679899D01*
G01X6356299Y3879901D02*
G01X5556301Y3879901D01*
G01X5556301Y3879901D02*
G01X5556301Y3921785D01*
G01X5556301Y4638015D02*
G01X5556301Y4679899D01*
G01X6356299Y4679899D02*
G01X6356299Y4638015D01*
G01X6356299Y3921785D02*
G01X6356299Y3879901D01*
G01X1766291Y6697599D02*
G01X5066284Y6697599D01*
G01X5066284Y5697601D01*
G01X1766291Y5697601D01*
G01X1766291Y6697599D01*
G01X7461301Y5035601D02*
G01X7461301Y5835599D01*
G01X8261299Y5835599D02*
G01X8261299Y5035601D01*
G01X8261299Y5035601D02*
G01X8219415Y5035601D01*
G01X7503185Y5035601D02*
G01X7461301Y5035601D01*
G01X7461301Y5835599D02*
G01X7503185Y5835599D01*
G01X8219415Y5835599D02*
G01X8261299Y5835599D01*
G54D17*
G01X778855Y7043826D02*
G01X779851Y7043826D01*
G01X812856Y7010822D01*
G01X778855Y6975823D02*
G01X778855Y6976821D01*
G01X812856Y7010822D01*
G01X778855Y6975823D02*
G01X778855Y7043826D01*
G01X776851Y6935815D02*
G01X661850Y6935815D01*
G01X776851Y7085828D02*
G01X661850Y7085828D01*
G01X661850Y6935826D02*
G01X661850Y7083819D01*
G01X814852Y7086059D02*
G01X919864Y7086059D01*
G01X949858Y7046051D02*
G01X949858Y7056054D01*
G01X919864Y7086059D01*
G01X949858Y6976057D02*
G01X949858Y7046051D01*
G01X949858Y6976057D02*
G01X949858Y6966041D01*
G01X919864Y6936047D01*
G01X814852Y6936047D02*
G01X919864Y6936047D01*
G01X778855Y7010822D02*
G01X812856Y7010822D01*
G54D16*
G01X11137900Y8191500D02*
G01X11158220Y8191500D01*
G01X11201400Y8191500D01*
G01X11137900Y8191500D02*
G01X11112500Y8166100D01*
G01X11112500Y8089900D01*
G01X11137900Y8064500D01*
G01X11201400Y8064500D01*
G01X11303000Y8191500D02*
G01X11379200Y8191500D01*
G01X11379200Y8064500D01*
G01X11303000Y8064500D01*
G54D19*
G01X11259820Y8087360D02*
G01X11259820Y8166100D01*
G01X11259820Y8127205D02*
G01X11242284Y8127205D01*
G54D17*
G01X10826148Y3876858D02*
G01X10826148Y3877854D01*
G01X10859153Y3910858D01*
G01X10894151Y3876858D02*
G01X10893153Y3876858D01*
G01X10859153Y3910858D01*
G01X10894151Y3876858D02*
G01X10826148Y3876858D01*
G01X10934159Y3874854D02*
G01X10934159Y3759853D01*
G01X10784147Y3874854D02*
G01X10784147Y3759853D01*
G01X10934149Y3759853D02*
G01X10786156Y3759853D01*
G01X10783915Y3912855D02*
G01X10783915Y4017866D01*
G01X10823923Y4047861D02*
G01X10813920Y4047861D01*
G01X10783915Y4017866D01*
G01X10893918Y4047861D02*
G01X10823923Y4047861D01*
G01X10893918Y4047861D02*
G01X10903933Y4047861D01*
G01X10933928Y4017866D01*
G01X10933928Y3912855D02*
G01X10933928Y4017866D01*
G01X10859153Y3876858D02*
G01X10859153Y3910858D01*
G01X10954352Y6638742D02*
G01X10954352Y6637746D01*
G01X10921347Y6604742D01*
G01X10886349Y6638742D02*
G01X10887347Y6638742D01*
G01X10921347Y6604742D01*
G01X10886349Y6638742D02*
G01X10954352Y6638742D01*
G01X10846341Y6640746D02*
G01X10846341Y6755747D01*
G01X10996353Y6640746D02*
G01X10996353Y6755747D01*
G01X10846351Y6755747D02*
G01X10994344Y6755747D01*
G01X10996585Y6602745D02*
G01X10996585Y6497734D01*
G01X10956577Y6467739D02*
G01X10966580Y6467739D01*
G01X10996585Y6497734D01*
G01X10886582Y6467739D02*
G01X10956577Y6467739D01*
G01X10886582Y6467739D02*
G01X10876567Y6467739D01*
G01X10846572Y6497734D01*
G01X10846572Y6602745D02*
G01X10846572Y6497734D01*
G01X10921347Y6638742D02*
G01X10921347Y6604742D01*
G54D12*
G01X752587Y8932702D02*
G01X1812788Y8932702D01*
G01X1812788Y8452894D01*
G01X752587Y8452894D01*
G01X752587Y8932194D01*
G01X752587Y8932702D01*
G01X1812684Y8872786D02*
G01X752691Y8872786D01*
G54D20*
G01X1005690Y8390296D02*
G03X1005817Y8350296I127J-20000D01*
G03X1005944Y8390296I0J20000D01*
G54D12*
G01X2771887Y8932702D02*
G01X3832088Y8932702D01*
G01X3832088Y8452894D01*
G01X2771887Y8452894D01*
G01X2771887Y8932194D01*
G01X2771887Y8932702D01*
G01X3831984Y8872786D02*
G01X2771991Y8872786D01*
G54D20*
G01X3024990Y8390296D02*
G03X3025117Y8350296I127J-20000D01*
G03X3025244Y8390296I0J20000D01*
G54D12*
G01X4791187Y8932702D02*
G01X5851388Y8932702D01*
G01X5851388Y8452894D01*
G01X4791187Y8452894D01*
G01X4791187Y8932194D01*
G01X4791187Y8932702D01*
G01X5851284Y8872786D02*
G01X4791291Y8872786D01*
G54D20*
G01X5044290Y8390296D02*
G03X5044417Y8350296I127J-20000D01*
G03X5044544Y8390296I0J20000D01*
G54D10*
G01X7277321Y7877030D02*
G01X7277321Y8048770D01*
G01X7174159Y8048770D01*
G01X6972079Y7877030D02*
G01X6972079Y8048770D01*
G01X7075241Y8048770D01*
G01X7170240Y7877030D02*
G01X7079160Y7877030D01*
G54D21*
G01X565201Y5835099D02*
G01X565201Y5675099D01*
G01X857199Y5675099D01*
G01X857199Y5835099D01*
G01X765200Y5835099D01*
G01X565201Y5835099D02*
G01X655925Y5835099D01*
G54D10*
G01X10614640Y4186479D02*
G01X10614640Y4090591D01*
G01X10746760Y4090591D01*
G01X10746760Y4186479D01*
G01X10614640Y4271721D02*
G01X10614640Y4367609D01*
G01X10746760Y4367609D01*
G01X10746760Y4271721D01*
G01X11102360Y4271721D02*
G01X11102360Y4367609D01*
G01X10970240Y4367609D01*
G01X10970240Y4271721D01*
G01X11102360Y4186479D02*
G01X11102360Y4090591D01*
G01X10970240Y4090591D01*
G01X10970240Y4186479D01*
G01X12260021Y6169640D02*
G01X12355909Y6169640D01*
G01X12355909Y6301760D01*
G01X12260021Y6301760D01*
G01X12174779Y6169640D02*
G01X12078891Y6169640D01*
G01X12078891Y6301760D01*
G01X12174779Y6301760D01*
G01X9304579Y1717060D02*
G01X9208691Y1717060D01*
G01X9208691Y1717060D02*
G01X9208691Y1584940D01*
G01X9208691Y1584940D02*
G01X9304579Y1584940D01*
G01X9389821Y1717060D02*
G01X9485709Y1717060D01*
G01X9485709Y1717060D02*
G01X9485709Y1584940D01*
G01X9485709Y1584940D02*
G01X9389821Y1584940D01*
G01X9858009Y3184520D02*
G01X9858009Y3313013D01*
G01X9858009Y3313013D02*
G01X9674591Y3313013D01*
G01X9674591Y3313013D02*
G01X9674591Y3184520D01*
G01X9858009Y3089280D02*
G01X9858009Y2960787D01*
G01X9858009Y2960787D02*
G01X9674591Y2960787D01*
G01X9674591Y2960787D02*
G01X9674591Y3089280D01*
G01X11625021Y8061940D02*
G01X11720909Y8061940D01*
G01X11720909Y8194060D01*
G01X11625021Y8194060D01*
G01X11539779Y8061940D02*
G01X11443891Y8061940D01*
G01X11443891Y8194060D01*
G01X11539779Y8194060D01*
G01X12463221Y7719040D02*
G01X12559109Y7719040D01*
G01X12559109Y7851160D01*
G01X12463221Y7851160D01*
G01X12377979Y7719040D02*
G01X12282091Y7719040D01*
G01X12282091Y7851160D01*
G01X12377979Y7851160D01*
G01X11026160Y8234121D02*
G01X11026160Y8330009D01*
G01X10894040Y8330009D01*
G01X10894040Y8234121D01*
G01X11026160Y8148879D02*
G01X11026160Y8052991D01*
G01X10894040Y8052991D01*
G01X10894040Y8148879D01*
G01X10772160Y8234121D02*
G01X10772160Y8330009D01*
G01X10640040Y8330009D01*
G01X10640040Y8234121D01*
G01X10772160Y8148879D02*
G01X10772160Y8052991D01*
G01X10640040Y8052991D01*
G01X10640040Y8148879D01*
G54D13*
G01X6540500Y3482340D02*
G01X6540500Y3528060D01*
G01X6570980Y3528060D01*
G01X6570980Y3482340D01*
G01X6543040Y3482340D01*
G54D14*
G01X6503200Y3556203D02*
G01X6503187Y3635210D01*
G01X6603213Y3635210D01*
G01X6603213Y3558197D01*
G01X6603213Y3557207D01*
G01X6503200Y3454202D02*
G01X6503187Y3375190D01*
G01X6603213Y3375190D01*
G01X6603213Y3455200D01*
G54D13*
G01X6426200Y3185160D02*
G01X6426200Y3139440D01*
G01X6395720Y3139440D01*
G01X6395720Y3185160D01*
G01X6423660Y3185160D01*
G54D14*
G01X6463500Y3111297D02*
G01X6463513Y3032290D01*
G01X6363487Y3032290D01*
G01X6363487Y3109303D01*
G01X6363487Y3110294D01*
G01X6463500Y3213298D02*
G01X6463513Y3292310D01*
G01X6363487Y3292310D01*
G01X6363487Y3212300D01*
G54D10*
G01X10924560Y4271721D02*
G01X10924560Y4367609D01*
G01X10792440Y4367609D01*
G01X10792440Y4271721D01*
G01X10924560Y4186479D02*
G01X10924560Y4090591D01*
G01X10792440Y4090591D01*
G01X10792440Y4186479D01*
G01X655879Y5514360D02*
G01X559991Y5514360D01*
G01X559991Y5382240D01*
G01X655879Y5382240D01*
G01X741121Y5514360D02*
G01X837009Y5514360D01*
G01X837009Y5382240D01*
G01X741121Y5382240D01*
G01X757977Y6940685D02*
G01X662089Y6940685D01*
G01X662089Y6808564D01*
G01X757977Y6808564D01*
G01X843219Y6940685D02*
G01X939107Y6940685D01*
G01X939107Y6808564D01*
G01X843219Y6808564D01*
G01X757977Y6813194D02*
G01X662089Y6813194D01*
G01X662089Y6681074D01*
G01X757977Y6681074D01*
G01X843219Y6813194D02*
G01X939107Y6813194D01*
G01X939107Y6681074D01*
G01X843219Y6681074D01*
G01X5311160Y6494221D02*
G01X5311160Y6590109D01*
G01X5179040Y6590109D01*
G01X5179040Y6494221D01*
G01X5311160Y6408979D02*
G01X5311160Y6313091D01*
G01X5179040Y6313091D01*
G01X5179040Y6408979D01*
G01X5971560Y6494221D02*
G01X5971560Y6590109D01*
G01X5839440Y6590109D01*
G01X5839440Y6494221D01*
G01X5971560Y6408979D02*
G01X5971560Y6313091D01*
G01X5839440Y6313091D01*
G01X5839440Y6408979D01*
G01X5179040Y6726479D02*
G01X5179040Y6630591D01*
G01X5311160Y6630591D01*
G01X5311160Y6726479D01*
G01X5179040Y6811721D02*
G01X5179040Y6907609D01*
G01X5311160Y6907609D01*
G01X5311160Y6811721D01*
G01X5839440Y6726479D02*
G01X5839440Y6630591D01*
G01X5971560Y6630591D01*
G01X5971560Y6726479D01*
G01X5839440Y6811721D02*
G01X5839440Y6907609D01*
G01X5971560Y6907609D01*
G01X5971560Y6811721D01*
G01X6358677Y5844560D02*
G01X6262789Y5844560D01*
G01X6262789Y5712440D01*
G01X6358677Y5712440D01*
G01X6443919Y5844560D02*
G01X6539807Y5844560D01*
G01X6539807Y5712440D01*
G01X6443919Y5712440D01*
G01X6358677Y5680932D02*
G01X6262789Y5680932D01*
G01X6262789Y5548812D01*
G01X6358677Y5548812D01*
G01X6443919Y5680932D02*
G01X6539807Y5680932D01*
G01X6539807Y5548812D01*
G01X6443919Y5548812D01*
G01X9808921Y4798040D02*
G01X9904809Y4798040D01*
G01X9904809Y4930160D01*
G01X9808921Y4930160D01*
G01X9723679Y4798040D02*
G01X9627791Y4798040D01*
G01X9627791Y4930160D01*
G01X9723679Y4930160D01*
G01X9808921Y5496540D02*
G01X9904809Y5496540D01*
G01X9904809Y5628660D01*
G01X9808921Y5628660D01*
G01X9723679Y5496540D02*
G01X9627791Y5496540D01*
G01X9627791Y5628660D01*
G01X9723679Y5628660D01*
G01X7141921Y7566640D02*
G01X7237809Y7566640D01*
G01X7237809Y7698760D01*
G01X7141921Y7698760D01*
G01X7056679Y7566640D02*
G01X6960791Y7566640D01*
G01X6960791Y7698760D01*
G01X7056679Y7698760D01*
G01X6878879Y5107960D02*
G01X6782991Y5107960D01*
G01X6782991Y4975840D01*
G01X6878879Y4975840D01*
G01X6964121Y5107960D02*
G01X7060009Y5107960D01*
G01X7060009Y4975840D01*
G01X6964121Y4975840D01*
G54D13*
G01X6235700Y3528060D02*
G01X6235700Y3482340D01*
G01X6205220Y3482340D01*
G01X6205220Y3528060D01*
G01X6233160Y3528060D01*
G54D14*
G01X6273000Y3454197D02*
G01X6273013Y3375190D01*
G01X6172987Y3375190D01*
G01X6172987Y3452203D01*
G01X6172987Y3453194D01*
G01X6273000Y3556198D02*
G01X6273013Y3635210D01*
G01X6172987Y3635210D01*
G01X6172987Y3555200D01*
G54D13*
G01X6703060Y2476500D02*
G01X6657340Y2476500D01*
G01X6657340Y2506980D01*
G01X6703060Y2506980D01*
G01X6703060Y2479040D01*
G54D14*
G01X6629197Y2439200D02*
G01X6550190Y2439187D01*
G01X6550190Y2539213D01*
G01X6627203Y2539213D01*
G01X6628194Y2539213D01*
G01X6731198Y2439200D02*
G01X6810210Y2439187D01*
G01X6810210Y2539213D01*
G01X6730200Y2539213D01*
G54D13*
G01X6703060Y2781300D02*
G01X6657340Y2781300D01*
G01X6657340Y2811780D01*
G01X6703060Y2811780D01*
G01X6703060Y2783840D01*
G54D14*
G01X6629197Y2744000D02*
G01X6550190Y2743987D01*
G01X6550190Y2844013D01*
G01X6627203Y2844013D01*
G01X6628194Y2844013D01*
G01X6731198Y2744000D02*
G01X6810210Y2743987D01*
G01X6810210Y2844013D01*
G01X6730200Y2844013D01*
G54D13*
G01X6703060Y2628900D02*
G01X6657340Y2628900D01*
G01X6657340Y2659380D01*
G01X6703060Y2659380D01*
G01X6703060Y2631440D01*
G54D14*
G01X6629197Y2591600D02*
G01X6550190Y2591587D01*
G01X6550190Y2691613D01*
G01X6627203Y2691613D01*
G01X6628194Y2691613D01*
G01X6731198Y2591600D02*
G01X6810210Y2591587D01*
G01X6810210Y2691613D01*
G01X6730200Y2691613D01*
G54D10*
G01X6764579Y5717560D02*
G01X6668691Y5717560D01*
G01X6668691Y5585440D01*
G01X6764579Y5585440D01*
G01X6849821Y5717560D02*
G01X6945709Y5717560D01*
G01X6945709Y5585440D01*
G01X6849821Y5585440D01*
G01X7167321Y5585440D02*
G01X7263209Y5585440D01*
G01X7263209Y5717560D01*
G01X7167321Y5717560D01*
G01X7082079Y5585440D02*
G01X6986191Y5585440D01*
G01X6986191Y5717560D01*
G01X7082079Y5717560D01*
G01X12260021Y6347440D02*
G01X12355909Y6347440D01*
G01X12355909Y6479560D01*
G01X12260021Y6479560D01*
G01X12174779Y6347440D02*
G01X12078891Y6347440D01*
G01X12078891Y6479560D01*
G01X12174779Y6479560D01*
G01X9808921Y4988540D02*
G01X9904809Y4988540D01*
G01X9904809Y5120660D01*
G01X9808921Y5120660D01*
G01X9723679Y4988540D02*
G01X9627791Y4988540D01*
G01X9627791Y5120660D01*
G01X9723679Y5120660D01*
G01X9808921Y5179040D02*
G01X9904809Y5179040D01*
G01X9904809Y5311160D01*
G01X9808921Y5311160D01*
G01X9723679Y5179040D02*
G01X9627791Y5179040D01*
G01X9627791Y5311160D01*
G01X9723679Y5311160D01*
G01X11381760Y4373321D02*
G01X11381760Y4469209D01*
G01X11249640Y4469209D01*
G01X11249640Y4373321D01*
G01X11381760Y4288079D02*
G01X11381760Y4192191D01*
G01X11249640Y4192191D01*
G01X11249640Y4288079D01*
G01X10855940Y6231179D02*
G01X10855940Y6135291D01*
G01X10988060Y6135291D01*
G01X10988060Y6231179D01*
G01X10855940Y6316421D02*
G01X10855940Y6412309D01*
G01X10988060Y6412309D01*
G01X10988060Y6316421D01*
G54D12*
G01X5460512Y3514700D02*
G01X5452301Y3514697D01*
G01X5460507Y3114700D02*
G01X5452298Y3114700D01*
G01X5952302Y3514700D02*
G01X5952300Y3114703D01*
G01X5952300Y3114703D02*
G01X5944090Y3114703D01*
G01X5841510Y3114700D02*
G01X5817090Y3114700D01*
G01X5714510Y3114700D02*
G01X5690090Y3114700D01*
G01X5587510Y3114700D02*
G01X5563090Y3114700D01*
G01X5952302Y3514700D02*
G01X5944088Y3514700D01*
G01X5841512Y3514700D02*
G01X5817088Y3514700D01*
G01X5714512Y3514700D02*
G01X5690088Y3514700D01*
G01X5587512Y3514700D02*
G01X5563088Y3514700D01*
G01X5452301Y3514697D02*
G01X5452298Y3374700D01*
G01X5452298Y3114700D02*
G01X5452301Y3254700D01*
G01X5452364Y3254756D02*
G03X5452364Y3374644I-7293J59944D01*
G54D10*
G01X6843781Y5410220D02*
G01X6843781Y5232380D01*
G01X7151619Y5410220D02*
G01X7151619Y5232380D01*
G54D12*
G01X3306100Y2618202D02*
G01X5406100Y2618199D01*
G01X3306100Y918200D02*
G01X5406100Y918200D01*
G01X5406100Y2618199D02*
G01X5406100Y918200D01*
G01X3306100Y2618202D02*
G01X3306100Y918200D01*
G01X3390306Y2618202D02*
G01X3390306Y949000D01*
G01X5290602Y2618199D02*
G01X5290602Y918200D01*
G01X715300Y2618202D02*
G01X2815300Y2618199D01*
G01X715300Y918200D02*
G01X2815300Y918200D01*
G01X2815300Y2618199D02*
G01X2815300Y918200D01*
G01X715300Y2618202D02*
G01X715300Y918200D01*
G01X799506Y2618202D02*
G01X799506Y949000D01*
G01X2699802Y2618199D02*
G01X2699802Y918200D01*
G01X5877700Y5439601D02*
G01X5800357Y5439601D01*
G01X5577700Y5439601D02*
G01X5655071Y5439601D01*
G01X5577700Y5439601D02*
G01X5537200Y5439601D01*
G01X5537200Y5448742D01*
G01X5877700Y5939600D02*
G01X5918200Y5939600D01*
G01X5918200Y5930458D01*
G01X5877700Y5439601D02*
G01X5918200Y5439601D01*
G01X5918200Y5448742D01*
G01X5577700Y5939600D02*
G01X5537200Y5939600D01*
G01X5537200Y5930458D01*
G01X5577700Y5939600D02*
G01X5877700Y5939600D01*
G01X5800357Y5439601D02*
G03X5655071Y5440091I-72657J-3980D01*
G01X1563205Y6748549D02*
G01X1563205Y6810822D01*
G01X1563205Y6494549D02*
G01X1563205Y6611838D01*
G01X1563205Y6240549D02*
G01X1563205Y6357838D01*
G01X1563205Y6031309D02*
G01X1563205Y6103838D01*
G01X1563205Y5719191D02*
G01X1563205Y5805079D01*
G01X963209Y6879196D02*
G01X1563205Y6879196D01*
G01X963209Y5719191D02*
G01X1563205Y5719191D01*
G01X963209Y5719191D02*
G01X963209Y6879196D01*
G01X1563205Y6770520D02*
G01X1563205Y6879196D01*
G01X1563205Y6516520D02*
G01X1563205Y6589867D01*
G01X1563205Y6262520D02*
G01X1563205Y6335867D01*
G01X11359340Y4656201D02*
G01X11359340Y4656204D01*
G01X11359340Y4656204D02*
G01X11446218Y4743082D01*
G01X10446220Y5656199D02*
G01X10446220Y5569321D01*
G01X10446220Y5656199D02*
G01X10533101Y5656199D01*
G01X10533101Y4656201D02*
G01X10446220Y4656201D01*
G01X10446220Y4656201D02*
G01X10446220Y4743082D01*
G01X11446218Y4743082D02*
G01X11446218Y4656201D01*
G01X11446218Y4656201D02*
G01X11359340Y4656201D01*
G01X11359340Y5656199D02*
G01X11446218Y5656199D01*
G01X11446218Y5656199D02*
G01X11446218Y5569318D01*
G54D14*
G01X10521218Y4731200D02*
G01X11371219Y4731200D01*
G01X11371219Y4731200D02*
G01X11371219Y5581200D01*
G01X11371219Y5581200D02*
G01X10521218Y5581200D01*
G01X10521218Y5581200D02*
G01X10521218Y4731200D01*
G54D22*
G01X11248733Y4826254D02*
G03X11308732Y4826508I29999J254D01*
G03X11248733Y4826762I-30000J0D01*
G54D11*
G01X11495217Y4720074D02*
G03X11525219Y4720201I15001J127D01*
G03X11495217Y4720328I-15001J0D01*
G36*
G01X11446218Y4743082D02*
G01X11446218Y4656201D01*
G01X11359340Y4656201D01*
G01X11446218Y4743079D01*
G01X11446218Y4743082D01*
G37*
G54D10*
G01X9655620Y3644641D02*
G01X9655620Y3340359D01*
G01X9655620Y3340359D02*
G01X9140381Y3340359D01*
G01X9140381Y3340359D02*
G01X9140381Y3644641D01*
G01X9140381Y3644641D02*
G01X9655620Y3644641D01*
G54D12*
G01X12407900Y5118100D02*
G01X12407900Y5820951D01*
G01X12915900Y5130800D02*
G01X12915900Y5814792D01*
G01X12598400Y5410200D02*
G01X12661900Y5410200D01*
G01X12661900Y5410200D02*
G01X12725400Y5410200D01*
G01X12661900Y5410200D02*
G01X12661900Y5372100D01*
G01X12725400Y5448300D02*
G01X12725400Y5499100D01*
G01X12598400Y5448300D02*
G01X12725400Y5448300D01*
G01X12598400Y5499100D02*
G01X12598400Y5448300D01*
G01X12725400Y5499100D02*
G01X12598400Y5499100D01*
G01X12661900Y5537200D02*
G01X12661900Y5575300D01*
G01X12661900Y5537200D02*
G01X12725400Y5537200D01*
G01X12598400Y5537200D02*
G01X12661900Y5537200D01*
G54D23*
G01X12821902Y5153701D02*
G01X12821902Y5793697D01*
G01X12501898Y5793697D02*
G01X12501898Y5153701D01*
G01X12821902Y5153701D02*
G02X12501880Y5153660I-160011J617D01*
G01X12501898Y5793697D02*
G02X12821920Y5793740I160011J-616D01*
G54D12*
G01X12407859Y5121318D02*
G03X12915859Y5134018I253469J27609D01*
G01X12915900Y5814792D02*
G03X12407900Y5820918I-254272J-19526D01*
G01X12407900Y3911600D02*
G01X12407900Y4614451D01*
G01X12915900Y3924300D02*
G01X12915900Y4608292D01*
G01X12598400Y4203700D02*
G01X12661900Y4203700D01*
G01X12661900Y4203700D02*
G01X12725400Y4203700D01*
G01X12661900Y4203700D02*
G01X12661900Y4165600D01*
G01X12725400Y4241800D02*
G01X12725400Y4292600D01*
G01X12598400Y4241800D02*
G01X12725400Y4241800D01*
G01X12598400Y4292600D02*
G01X12598400Y4241800D01*
G01X12725400Y4292600D02*
G01X12598400Y4292600D01*
G01X12661900Y4330700D02*
G01X12661900Y4368800D01*
G01X12661900Y4330700D02*
G01X12725400Y4330700D01*
G01X12598400Y4330700D02*
G01X12661900Y4330700D01*
G54D23*
G01X12821902Y3947201D02*
G01X12821902Y4587197D01*
G01X12501898Y4587197D02*
G01X12501898Y3947201D01*
G01X12821902Y3947201D02*
G02X12501880Y3947160I-160011J617D01*
G01X12501898Y4587197D02*
G02X12821920Y4587240I160011J-616D01*
G54D12*
G01X12407859Y3914818D02*
G03X12915859Y3927518I253469J27609D01*
G01X12915900Y4608292D02*
G03X12407900Y4614418I-254272J-19526D01*
G01X11609677Y5652199D02*
G01X11529675Y5652199D01*
G01X11640663Y5763174D02*
G01X11640663Y5683176D01*
G01X11498697Y5763174D02*
G01X11498697Y5683176D01*
G01X11641244Y5820763D02*
G01X11641244Y5900763D01*
G01X11610261Y5931746D02*
G01X11530264Y5931746D01*
G01X11499284Y5820763D02*
G01X11499284Y5900763D01*
G01X11610261Y5931751D02*
G02X11641244Y5900768I0J-30983D01*
G01X11499279Y5900768D02*
G02X11530264Y5931751I30983J0D01*
G01X11640663Y5683181D02*
G02X11609677Y5652199I-30983J0D01*
G01X11529680Y5652199D02*
G02X11498697Y5683181I0J30983D01*
G01X11504323Y4406202D02*
G01X11584325Y4406202D01*
G01X11473337Y4295226D02*
G01X11473337Y4375224D01*
G01X11615303Y4295226D02*
G01X11615303Y4375224D01*
G01X11472756Y4237637D02*
G01X11472756Y4157637D01*
G01X11503739Y4126654D02*
G01X11583736Y4126654D01*
G01X11614716Y4237637D02*
G01X11614716Y4157637D01*
G01X11503739Y4126649D02*
G02X11472756Y4157632I0J30983D01*
G01X11614722Y4157632D02*
G02X11583736Y4126649I-30983J0D01*
G01X11473337Y4375219D02*
G02X11504323Y4406202I30983J0D01*
G01X11584320Y4406202D02*
G02X11615303Y4375219I0J-30983D01*
G01X10158123Y4723702D02*
G01X10238125Y4723702D01*
G01X10127137Y4612726D02*
G01X10127137Y4692724D01*
G01X10269103Y4612726D02*
G01X10269103Y4692724D01*
G01X10126556Y4555137D02*
G01X10126556Y4475137D01*
G01X10157539Y4444154D02*
G01X10237536Y4444154D01*
G01X10268516Y4555137D02*
G01X10268516Y4475137D01*
G01X10157539Y4444149D02*
G02X10126556Y4475132I0J30983D01*
G01X10268522Y4475132D02*
G02X10237536Y4444149I-30983J0D01*
G01X10127137Y4692719D02*
G02X10158123Y4723702I30983J0D01*
G01X10238120Y4723702D02*
G02X10269103Y4692719I0J-30983D01*
G01X10629202Y6110577D02*
G01X10629202Y6030575D01*
G01X10518226Y6141563D02*
G01X10598224Y6141563D01*
G01X10518226Y5999597D02*
G01X10598224Y5999597D01*
G01X10460637Y6142144D02*
G01X10380637Y6142144D01*
G01X10349654Y6111161D02*
G01X10349654Y6031164D01*
G01X10460637Y6000184D02*
G01X10380637Y6000184D01*
G01X10349649Y6111161D02*
G02X10380632Y6142144I30983J0D01*
G01X10380632Y6000179D02*
G02X10349649Y6031164I0J30983D01*
G01X10598219Y6141563D02*
G02X10629202Y6110577I0J-30983D01*
G01X10629202Y6030580D02*
G02X10598219Y5999597I-30983J0D01*

G04 Circle Start*
G01X1119302Y4533900D02*
G03X2919298Y4533900I899998J0D01*
G03X1119302Y4533900I-899998J0D01*
G01X3265602Y4521200D02*
G03X5065598Y4521200I899998J0D01*
G03X3265602Y4521200I-899998J0D01*
G01X12363808Y1231905D02*
G03X12477397Y1231905I56794J0D01*
G03X12363808Y1231905I-56794J0D01*
G01X12319003Y1231905D02*
G03X12522203Y1231905I101600J0D01*
G03X12319003Y1231905I-101600J0D01*
G01X12567008Y1231905D02*
G03X12680597Y1231905I56794J0D01*
G03X12567008Y1231905I-56794J0D01*
G01X12160608Y1231905D02*
G03X12274197Y1231905I56794J0D01*
G03X12160608Y1231905I-56794J0D01*
G01X12605101Y6604003D02*
G03X12718689Y6604003I56794J0D01*
G03X12605101Y6604003I-56794J0D01*
G01X12560295Y6604003D02*
G03X12763495Y6604003I101600J0D01*
G03X12560295Y6604003I-101600J0D01*
G01X12605101Y6807203D02*
G03X12718689Y6807203I56794J0D01*
G03X12605101Y6807203I-56794J0D01*
G01X12605101Y6400803D02*
G03X12718689Y6400803I56794J0D01*
G03X12605101Y6400803I-56794J0D01*
G54D21*
G01X546265Y5603100D02*
G03X564147Y5603100I8941J0D01*
G03X546265Y5603100I-8941J0D01*
G54D12*
G01X5408930Y3004820D02*
G03X5447030Y3004820I19050J0D01*
G03X5408930Y3004820I-19050J0D01*
G54D11*
G01X7149529Y5451452D02*
G03X7179551Y5451452I15011J0D01*
G03X7149529Y5451452I-15011J0D01*
G01X5979401Y5435603D02*
G03X6009424Y5435603I15011J0D01*
G03X5979401Y5435603I-15011J0D01*
G54D20*
G01X1601206Y5793207D02*
G03X1641185Y5793207I19990J0D01*
G03X1601206Y5793207I-19990J0D01*
G54D11*
G01X9650217Y3760760D02*
G03X9680240Y3760760I15011J0D01*
G03X9650217Y3760760I-15011J0D01*
G01X9573484Y3569421D02*
G03X9603506Y3569421I15011J0D01*
G03X9573484Y3569421I-15011J0D01*
G04 Circle End*

M02*

