G04 Layer: BottomSilkscreenLayer*
G04 EasyEDA Pro v3.2.91, 2026-07-09 07:33:27*
G04 Gerber Generator version 0.3*
G04 Scale: 100 percent, Rotated: No, Reflected: No*
G04 Dimensions in millimeters*
G04 Leading zeros omitted, absolute positions, 4 integers and 5 decimals*
G04 Generated by one-click*
%FSLAX45Y45*%
%MOMM*%
%ADD10C,0.1524*%
%ADD11C,0.254*%
%ADD12C,0.15199*%
%ADD13C,0.3*%
%ADD14C,0.4305*%
G75*


G04 Text Start*
G54D10*
G01X1831480Y1275758D02*
G01X1828432Y1269408D01*
G01X1822082Y1263312D01*
G01X1815986Y1260264D01*
G01X1803540Y1260264D01*
G01X1797444Y1263312D01*
G01X1791094Y1269408D01*
G01X1788046Y1275758D01*
G01X1784998Y1284902D01*
G01X1784998Y1300396D01*
G01X1788046Y1309794D01*
G01X1791094Y1315890D01*
G01X1797444Y1322240D01*
G01X1803540Y1325288D01*
G01X1815986Y1325288D01*
G01X1822082Y1322240D01*
G01X1828432Y1315890D01*
G01X1831480Y1309794D01*
G01X1861706Y1272710D02*
G01X1867802Y1269408D01*
G01X1876946Y1260264D01*
G01X1876946Y1325288D01*
G01X1925714Y1260264D02*
G01X1916316Y1263312D01*
G01X1910220Y1272710D01*
G01X1907172Y1287950D01*
G01X1907172Y1297348D01*
G01X1910220Y1312842D01*
G01X1916316Y1322240D01*
G01X1925714Y1325288D01*
G01X1931810Y1325288D01*
G01X1941208Y1322240D01*
G01X1947304Y1312842D01*
G01X1950352Y1297348D01*
G01X1950352Y1287950D01*
G01X1947304Y1272710D01*
G01X1941208Y1263312D01*
G01X1931810Y1260264D01*
G01X1925714Y1260264D01*
G01X4862690Y1423553D02*
G01X4865738Y1429903D01*
G01X4872088Y1435999D01*
G01X4878184Y1439047D01*
G01X4890630Y1439047D01*
G01X4896726Y1435999D01*
G01X4903076Y1429903D01*
G01X4906124Y1423553D01*
G01X4909172Y1414409D01*
G01X4909172Y1398915D01*
G01X4906124Y1389517D01*
G01X4903076Y1383421D01*
G01X4896726Y1377071D01*
G01X4890630Y1374023D01*
G01X4878184Y1374023D01*
G01X4872088Y1377071D01*
G01X4865738Y1383421D01*
G01X4862690Y1389517D01*
G01X4829416Y1423553D02*
G01X4829416Y1426601D01*
G01X4826368Y1432951D01*
G01X4823320Y1435999D01*
G01X4817224Y1439047D01*
G01X4804778Y1439047D01*
G01X4798428Y1435999D01*
G01X4795380Y1432951D01*
G01X4792332Y1426601D01*
G01X4792332Y1420505D01*
G01X4795380Y1414409D01*
G01X4801730Y1405011D01*
G01X4832464Y1374023D01*
G01X4789284Y1374023D01*
G01X4743818Y1439047D02*
G01X4752962Y1435999D01*
G01X4756010Y1429903D01*
G01X4756010Y1423553D01*
G01X4752962Y1417457D01*
G01X4746866Y1414409D01*
G01X4734420Y1411361D01*
G01X4725022Y1408059D01*
G01X4718926Y1401963D01*
G01X4715878Y1395867D01*
G01X4715878Y1386469D01*
G01X4718926Y1380373D01*
G01X4721974Y1377071D01*
G01X4731372Y1374023D01*
G01X4743818Y1374023D01*
G01X4752962Y1377071D01*
G01X4756010Y1380373D01*
G01X4759058Y1386469D01*
G01X4759058Y1395867D01*
G01X4756010Y1401963D01*
G01X4749914Y1408059D01*
G01X4740516Y1411361D01*
G01X4728324Y1414409D01*
G01X4721974Y1417457D01*
G01X4718926Y1423553D01*
G01X4718926Y1429903D01*
G01X4721974Y1435999D01*
G01X4731372Y1439047D01*
G01X4743818Y1439047D01*
G01X1518412Y4130662D02*
G01X1453388Y4130662D01*
G01X1518412Y4130662D02*
G01X1518412Y4152252D01*
G01X1515364Y4161650D01*
G01X1509268Y4167746D01*
G01X1502918Y4170794D01*
G01X1493774Y4174096D01*
G01X1478280Y4174096D01*
G01X1468882Y4170794D01*
G01X1462786Y4167746D01*
G01X1456436Y4161650D01*
G01X1453388Y4152252D01*
G01X1453388Y4130662D01*
G01X1518412Y4219562D02*
G01X1515364Y4210418D01*
G01X1509268Y4207370D01*
G01X1502918Y4207370D01*
G01X1496822Y4210418D01*
G01X1493774Y4216514D01*
G01X1490726Y4228960D01*
G01X1487424Y4238358D01*
G01X1481328Y4244454D01*
G01X1475232Y4247502D01*
G01X1465834Y4247502D01*
G01X1459738Y4244454D01*
G01X1456436Y4241406D01*
G01X1453388Y4232008D01*
G01X1453388Y4219562D01*
G01X1456436Y4210418D01*
G01X1459738Y4207370D01*
G01X1465834Y4204322D01*
G01X1475232Y4204322D01*
G01X1481328Y4207370D01*
G01X1487424Y4213466D01*
G01X1490726Y4222864D01*
G01X1493774Y4235056D01*
G01X1496822Y4241406D01*
G01X1502918Y4244454D01*
G01X1509268Y4244454D01*
G01X1515364Y4241406D01*
G01X1518412Y4232008D01*
G01X1518412Y4219562D01*
G01X4526788Y4343768D02*
G01X4591812Y4343768D01*
G01X4526788Y4343768D02*
G01X4526788Y4322178D01*
G01X4529836Y4312780D01*
G01X4535932Y4306684D01*
G01X4542282Y4303636D01*
G01X4551426Y4300334D01*
G01X4566920Y4300334D01*
G01X4576318Y4303636D01*
G01X4582414Y4306684D01*
G01X4588764Y4312780D01*
G01X4591812Y4322178D01*
G01X4591812Y4343768D01*
G01X4539234Y4270108D02*
G01X4535932Y4264012D01*
G01X4526788Y4254868D01*
G01X4591812Y4254868D01*
G01X4526788Y4206100D02*
G01X4529836Y4215498D01*
G01X4539234Y4221594D01*
G01X4554474Y4224642D01*
G01X4563872Y4224642D01*
G01X4579366Y4221594D01*
G01X4588764Y4215498D01*
G01X4591812Y4206100D01*
G01X4591812Y4200004D01*
G01X4588764Y4190606D01*
G01X4579366Y4184510D01*
G01X4563872Y4181462D01*
G01X4554474Y4181462D01*
G01X4539234Y4184510D01*
G01X4529836Y4190606D01*
G01X4526788Y4200004D01*
G01X4526788Y4206100D01*
G01X2024380Y1854220D02*
G01X2024380Y1919244D01*
G01X2024380Y1854220D02*
G01X2052320Y1854220D01*
G01X2061464Y1857268D01*
G01X2064512Y1860316D01*
G01X2067814Y1866666D01*
G01X2067814Y1872762D01*
G01X2064512Y1878858D01*
G01X2061464Y1881906D01*
G01X2052320Y1885208D01*
G01X2024380Y1885208D01*
G01X2045970Y1885208D02*
G01X2067814Y1919244D01*
G01X2104136Y1854220D02*
G01X2138172Y1854220D01*
G01X2119630Y1878858D01*
G01X2128774Y1878858D01*
G01X2135124Y1881906D01*
G01X2138172Y1885208D01*
G01X2141220Y1894352D01*
G01X2141220Y1900702D01*
G01X2138172Y1909846D01*
G01X2132076Y1916196D01*
G01X2122678Y1919244D01*
G01X2113280Y1919244D01*
G01X2104136Y1916196D01*
G01X2101088Y1912894D01*
G01X2098040Y1906798D01*
G01X4107180Y8326277D02*
G01X4107180Y8391301D01*
G01X4107180Y8326277D02*
G01X4135120Y8326277D01*
G01X4144264Y8329325D01*
G01X4147312Y8332373D01*
G01X4150614Y8338723D01*
G01X4150614Y8344819D01*
G01X4147312Y8350915D01*
G01X4144264Y8353963D01*
G01X4135120Y8357265D01*
G01X4107180Y8357265D01*
G01X4128770Y8357265D02*
G01X4150614Y8391301D01*
G01X4196080Y8326277D02*
G01X4186936Y8329325D01*
G01X4183888Y8335421D01*
G01X4183888Y8341771D01*
G01X4186936Y8347867D01*
G01X4193032Y8350915D01*
G01X4205478Y8353963D01*
G01X4214876Y8357265D01*
G01X4220972Y8363361D01*
G01X4224020Y8369457D01*
G01X4224020Y8378855D01*
G01X4220972Y8384951D01*
G01X4217924Y8388253D01*
G01X4208526Y8391301D01*
G01X4196080Y8391301D01*
G01X4186936Y8388253D01*
G01X4183888Y8384951D01*
G01X4180840Y8378855D01*
G01X4180840Y8369457D01*
G01X4183888Y8363361D01*
G01X4189984Y8357265D01*
G01X4199382Y8353963D01*
G01X4211574Y8350915D01*
G01X4217924Y8347867D01*
G01X4220972Y8341771D01*
G01X4220972Y8335421D01*
G01X4217924Y8329325D01*
G01X4208526Y8326277D01*
G01X4196080Y8326277D01*
G01X1859153Y1919244D02*
G01X1859153Y1854220D01*
G01X1859153Y1919244D02*
G01X1831213Y1919244D01*
G01X1822069Y1916196D01*
G01X1819021Y1913148D01*
G01X1815719Y1906798D01*
G01X1815719Y1900702D01*
G01X1819021Y1894606D01*
G01X1822069Y1891558D01*
G01X1831213Y1888256D01*
G01X1859153Y1888256D01*
G01X1837563Y1888256D02*
G01X1815719Y1854220D01*
G01X1785493Y1906798D02*
G01X1779397Y1910100D01*
G01X1770253Y1919244D01*
G01X1770253Y1854220D01*
G01X1733931Y1919244D02*
G01X1699895Y1919244D01*
G01X1718437Y1894606D01*
G01X1709293Y1894606D01*
G01X1702943Y1891558D01*
G01X1699895Y1888256D01*
G01X1696847Y1879112D01*
G01X1696847Y1872762D01*
G01X1699895Y1863618D01*
G01X1705991Y1857268D01*
G01X1715389Y1854220D01*
G01X1724787Y1854220D01*
G01X1733931Y1857268D01*
G01X1736979Y1860570D01*
G01X1740027Y1866666D01*
G01X4298188Y2194220D02*
G01X4363212Y2194220D01*
G01X4298188Y2194220D02*
G01X4298188Y2166280D01*
G01X4301236Y2157136D01*
G01X4304284Y2154088D01*
G01X4310634Y2150786D01*
G01X4316730Y2150786D01*
G01X4322826Y2154088D01*
G01X4325874Y2157136D01*
G01X4329176Y2166280D01*
G01X4329176Y2194220D01*
G01X4329176Y2172630D02*
G01X4363212Y2150786D01*
G01X4298188Y2114464D02*
G01X4298188Y2080428D01*
G01X4322826Y2098970D01*
G01X4322826Y2089826D01*
G01X4325874Y2083476D01*
G01X4329176Y2080428D01*
G01X4338320Y2077380D01*
G01X4344670Y2077380D01*
G01X4353814Y2080428D01*
G01X4360164Y2086524D01*
G01X4363212Y2095922D01*
G01X4363212Y2105320D01*
G01X4360164Y2114464D01*
G01X4356862Y2117512D01*
G01X4350766Y2120560D01*
G01X4298188Y2028612D02*
G01X4301236Y2038010D01*
G01X4310634Y2044106D01*
G01X4325874Y2047154D01*
G01X4335272Y2047154D01*
G01X4350766Y2044106D01*
G01X4360164Y2038010D01*
G01X4363212Y2028612D01*
G01X4363212Y2022516D01*
G01X4360164Y2013118D01*
G01X4350766Y2007022D01*
G01X4335272Y2003974D01*
G01X4325874Y2003974D01*
G01X4310634Y2007022D01*
G01X4301236Y2013118D01*
G01X4298188Y2022516D01*
G01X4298188Y2028612D01*
G01X1288288Y2039280D02*
G01X1353312Y2039280D01*
G01X1288288Y2039280D02*
G01X1288288Y2011340D01*
G01X1291336Y2002196D01*
G01X1294384Y1999148D01*
G01X1300734Y1995846D01*
G01X1306830Y1995846D01*
G01X1312926Y1999148D01*
G01X1315974Y2002196D01*
G01X1319276Y2011340D01*
G01X1319276Y2039280D01*
G01X1319276Y2017690D02*
G01X1353312Y1995846D01*
G01X1288288Y1959524D02*
G01X1288288Y1925488D01*
G01X1312926Y1944030D01*
G01X1312926Y1934886D01*
G01X1315974Y1928536D01*
G01X1319276Y1925488D01*
G01X1328420Y1922440D01*
G01X1334770Y1922440D01*
G01X1343914Y1925488D01*
G01X1350264Y1931584D01*
G01X1353312Y1940982D01*
G01X1353312Y1950380D01*
G01X1350264Y1959524D01*
G01X1346962Y1962572D01*
G01X1340866Y1965620D01*
G01X1300734Y1892214D02*
G01X1297432Y1886118D01*
G01X1288288Y1876974D01*
G01X1353312Y1876974D01*
G01X1490853Y8338977D02*
G01X1490853Y8404001D01*
G01X1490853Y8338977D02*
G01X1518793Y8338977D01*
G01X1527937Y8342025D01*
G01X1530985Y8345073D01*
G01X1534287Y8351423D01*
G01X1534287Y8357519D01*
G01X1530985Y8363615D01*
G01X1527937Y8366663D01*
G01X1518793Y8369965D01*
G01X1490853Y8369965D01*
G01X1512443Y8369965D02*
G01X1534287Y8404001D01*
G01X1570609Y8338977D02*
G01X1604645Y8338977D01*
G01X1586103Y8363615D01*
G01X1595247Y8363615D01*
G01X1601597Y8366663D01*
G01X1604645Y8369965D01*
G01X1607693Y8379109D01*
G01X1607693Y8385459D01*
G01X1604645Y8394603D01*
G01X1598549Y8400953D01*
G01X1589151Y8404001D01*
G01X1579753Y8404001D01*
G01X1570609Y8400953D01*
G01X1567561Y8397651D01*
G01X1564513Y8391555D01*
G01X1668653Y8338977D02*
G01X1637919Y8382157D01*
G01X1684147Y8382157D01*
G01X1668653Y8338977D02*
G01X1668653Y8404001D01*
G01X5366512Y2091769D02*
G01X5301488Y2091769D01*
G01X5366512Y2091769D02*
G01X5366512Y2119709D01*
G01X5363464Y2128853D01*
G01X5360416Y2131901D01*
G01X5354066Y2135203D01*
G01X5347970Y2135203D01*
G01X5341874Y2131901D01*
G01X5338826Y2128853D01*
G01X5335524Y2119709D01*
G01X5335524Y2091769D01*
G01X5335524Y2113359D02*
G01X5301488Y2135203D01*
G01X5366512Y2196163D02*
G01X5323332Y2165429D01*
G01X5323332Y2211657D01*
G01X5366512Y2196163D02*
G01X5301488Y2196163D01*
G01X5366512Y2278967D02*
G01X5366512Y2247979D01*
G01X5338826Y2244931D01*
G01X5341874Y2247979D01*
G01X5344922Y2257123D01*
G01X5344922Y2266521D01*
G01X5341874Y2275919D01*
G01X5335524Y2282015D01*
G01X5326380Y2285063D01*
G01X5320030Y2285063D01*
G01X5310886Y2282015D01*
G01X5304536Y2275919D01*
G01X5301488Y2266521D01*
G01X5301488Y2257123D01*
G01X5304536Y2247979D01*
G01X5307838Y2244931D01*
G01X5313934Y2241883D01*
G01X5316426Y1814319D02*
G01X5316426Y1879343D01*
G01X5316426Y1814319D02*
G01X5344366Y1814319D01*
G01X5353510Y1817367D01*
G01X5356558Y1820415D01*
G01X5359860Y1826765D01*
G01X5359860Y1832861D01*
G01X5356558Y1838957D01*
G01X5353510Y1842005D01*
G01X5344366Y1845307D01*
G01X5316426Y1845307D01*
G01X5338016Y1845307D02*
G01X5359860Y1879343D01*
G01X5420820Y1814319D02*
G01X5390086Y1857499D01*
G01X5436314Y1857499D01*
G01X5420820Y1814319D02*
G01X5420820Y1879343D01*
G01X5503624Y1823463D02*
G01X5500576Y1817367D01*
G01X5491178Y1814319D01*
G01X5485082Y1814319D01*
G01X5475684Y1817367D01*
G01X5469588Y1826765D01*
G01X5466540Y1842005D01*
G01X5466540Y1857499D01*
G01X5469588Y1869945D01*
G01X5475684Y1876295D01*
G01X5485082Y1879343D01*
G01X5488130Y1879343D01*
G01X5497274Y1876295D01*
G01X5503624Y1869945D01*
G01X5506672Y1860801D01*
G01X5506672Y1857499D01*
G01X5503624Y1848355D01*
G01X5497274Y1842005D01*
G01X5488130Y1838957D01*
G01X5485082Y1838957D01*
G01X5475684Y1842005D01*
G01X5469588Y1848355D01*
G01X5466540Y1857499D01*
G01X2030117Y1619264D02*
G01X1983635Y1619264D01*
G01X1974491Y1622312D01*
G01X1968141Y1628662D01*
G01X1965093Y1637806D01*
G01X1965093Y1644156D01*
G01X1968141Y1653300D01*
G01X1974491Y1659396D01*
G01X1983635Y1662698D01*
G01X2030117Y1662698D01*
G01X2017671Y1692924D02*
G01X2020973Y1699020D01*
G01X2030117Y1708164D01*
G01X1965093Y1708164D01*
G01X2030117Y1769124D02*
G01X1986937Y1738390D01*
G01X1986937Y1784618D01*
G01X2030117Y1769124D02*
G01X1965093Y1769124D01*
G01X5154317Y1733564D02*
G01X5107835Y1733564D01*
G01X5098691Y1736612D01*
G01X5092341Y1742962D01*
G01X5089293Y1752106D01*
G01X5089293Y1758456D01*
G01X5092341Y1767600D01*
G01X5098691Y1773696D01*
G01X5107835Y1776998D01*
G01X5154317Y1776998D01*
G01X5141871Y1807224D02*
G01X5145173Y1813320D01*
G01X5154317Y1822464D01*
G01X5089293Y1822464D01*
G01X5154317Y1889774D02*
G01X5154317Y1858786D01*
G01X5126631Y1855738D01*
G01X5129679Y1858786D01*
G01X5132727Y1867930D01*
G01X5132727Y1877328D01*
G01X5129679Y1886726D01*
G01X5123329Y1892822D01*
G01X5114185Y1895870D01*
G01X5107835Y1895870D01*
G01X5098691Y1892822D01*
G01X5092341Y1886726D01*
G01X5089293Y1877328D01*
G01X5089293Y1867930D01*
G01X5092341Y1858786D01*
G01X5095643Y1855738D01*
G01X5101739Y1852690D01*
G04 Text End*

G04 PolygonModel Start*
G54D11*
G01X1727899Y1195677D02*
G01X1727899Y1115675D01*
G01X1838874Y1226663D02*
G01X1758876Y1226663D01*
G01X1838874Y1084697D02*
G01X1758876Y1084697D01*
G01X1896463Y1227244D02*
G01X1976463Y1227244D01*
G01X2007446Y1196261D02*
G01X2007446Y1116264D01*
G01X1896463Y1085284D02*
G01X1976463Y1085284D01*
G01X2007451Y1196261D02*
G03X1976468Y1227244I-30983J0D01*
G01X1976468Y1085279D02*
G03X2007451Y1116264I0J30983D01*
G01X1758881Y1226663D02*
G03X1727899Y1195677I0J-30983D01*
G01X1727899Y1115680D02*
G03X1758881Y1084697I30983J0D01*
G01X4952302Y1230023D02*
G01X4952302Y1310025D01*
G01X4841326Y1199037D02*
G01X4921324Y1199037D01*
G01X4841326Y1341003D02*
G01X4921324Y1341003D01*
G01X4783737Y1198456D02*
G01X4703737Y1198456D01*
G01X4672754Y1229439D02*
G01X4672754Y1309436D01*
G01X4783737Y1340416D02*
G01X4703737Y1340416D01*
G01X4672749Y1229439D02*
G03X4703732Y1198456I30983J0D01*
G01X4703732Y1340422D02*
G03X4672749Y1309436I0J-30983D01*
G01X4921319Y1199037D02*
G03X4952302Y1230023I0J30983D01*
G01X4952302Y1310020D02*
G03X4921319Y1341003I-30983J0D01*
G54D12*
G01X1297280Y3886200D02*
G01X1674520Y3886200D01*
G54D10*
G01X1297280Y4058971D02*
G01X1297280Y3510229D01*
G01X1674520Y4058971D02*
G01X1674520Y3510229D01*
G01X1297280Y3510229D02*
G01X1355961Y3510227D01*
G01X1674520Y3510229D02*
G01X1615839Y3510229D01*
G36*
G01X1289660Y4051351D02*
G01X1361041Y4051348D01*
G01X1361041Y4097071D01*
G01X1289660Y4097071D01*
G01X1289660Y4051351D01*
G37*
G36*
G01X1682140Y4051351D02*
G01X1682140Y4097071D01*
G01X1610759Y4097071D01*
G01X1610759Y4051351D01*
G01X1682140Y4051351D01*
G37*
G54D12*
G01X4747920Y3733800D02*
G01X4370680Y3733800D01*
G54D10*
G01X4747920Y3561029D02*
G01X4747920Y4109771D01*
G01X4370680Y3561029D02*
G01X4370680Y4109771D01*
G01X4747920Y4109771D02*
G01X4689239Y4109773D01*
G01X4370680Y4109771D02*
G01X4429361Y4109771D01*
G36*
G01X4755540Y3568649D02*
G01X4684159Y3568652D01*
G01X4684159Y3522929D01*
G01X4755540Y3522929D01*
G01X4755540Y3568649D01*
G37*
G36*
G01X4363060Y3568649D02*
G01X4363060Y3522929D01*
G01X4434441Y3522929D01*
G01X4434441Y3568649D01*
G01X4363060Y3568649D01*
G37*
G01X2040179Y1699240D02*
G01X1944291Y1699240D01*
G01X1944291Y1831360D01*
G01X2040179Y1831360D01*
G01X2125421Y1699240D02*
G01X2221309Y1699240D01*
G01X2221309Y1831360D01*
G01X2125421Y1831360D01*
G01X3886200Y7912100D02*
G01X3742705Y7912100D01*
G01X3742705Y8303417D01*
G01X3886200Y8303417D01*
G01X4445000Y7912100D02*
G01X4588495Y7912100D01*
G01X4588495Y8303417D01*
G01X4445000Y8303417D01*
G01X1820621Y1831360D02*
G01X1916509Y1831360D01*
G01X1916509Y1699240D01*
G01X1820621Y1699240D01*
G01X1735379Y1831360D02*
G01X1639491Y1831360D01*
G01X1639491Y1699240D01*
G01X1735379Y1699240D01*
G01X4135041Y1837619D02*
G01X4135041Y1981114D01*
G01X4526359Y1981114D01*
G01X4526359Y1837619D01*
G01X4135041Y1337381D02*
G01X4135041Y1193886D01*
G01X4526359Y1193886D01*
G01X4526359Y1337381D01*
G01X1125141Y1710619D02*
G01X1125141Y1854114D01*
G01X1516459Y1854114D01*
G01X1516459Y1710619D01*
G01X1125141Y1210381D02*
G01X1125141Y1066886D01*
G01X1516459Y1066886D01*
G01X1516459Y1210381D01*
G01X1308100Y7924800D02*
G01X1164605Y7924800D01*
G01X1164605Y8316117D01*
G01X1308100Y8316117D01*
G01X1866900Y7924800D02*
G01X2010395Y7924800D01*
G01X2010395Y8316117D01*
G01X1866900Y8316117D01*
G01X5400060Y1887779D02*
G01X5400060Y1791891D01*
G01X5267940Y1791891D01*
G01X5267940Y1887779D01*
G01X5400060Y1973021D02*
G01X5400060Y2068909D01*
G01X5267940Y2068909D01*
G01X5267940Y1973021D01*
G01X5368928Y1659339D02*
G01X5273040Y1659339D01*
G01X5273040Y1791459D01*
G01X5368928Y1791459D01*
G01X5454170Y1659339D02*
G01X5550057Y1659339D01*
G01X5550057Y1791459D01*
G01X5454170Y1791459D01*
G01X2101040Y1580020D02*
G01X1886760Y1580020D01*
G01X1886760Y1264780D01*
G01X2101040Y1264780D01*
G01X2101040Y1580020D01*
G01X5225240Y1694320D02*
G01X5010960Y1694320D01*
G01X5010960Y1379080D01*
G01X5225240Y1379080D01*
G01X5225240Y1694320D01*

G04 Circle Start*
G54D13*
G01X2010791Y1522400D02*
G03X2040814Y1522400I15011J0D01*
G03X2010791Y1522400I-15011J0D01*
G01X2189886Y1581633D02*
G03X2219909Y1581633I15011J0D01*
G03X2189886Y1581633I-15011J0D01*
G01X5134991Y1636700D02*
G03X5165014Y1636700I15011J0D01*
G03X5134991Y1636700I-15011J0D01*
G01X5314086Y1695933D02*
G03X5344109Y1695933I15011J0D01*
G03X5314086Y1695933I-15011J0D01*
G04 Circle End*

M02*

